<svg width="72" height="72" viewBox="0 0 72 72" fill="none" xmlns="http://www.w3.org/2000/svg">
<g filter="url(#filter0_i_1561_3742)">
<circle cx="36" cy="36" r="36" fill="white"/>
<mask id="mask0_1561_3742" style="mask-type:alpha" maskUnits="userSpaceOnUse" x="0" y="0" width="72" height="72">
<rect width="72" height="72" fill="#D9D9D9"/>
</mask>
<g mask="url(#mask0_1561_3742)">
<path d="M36 72C25.9714 72 17.4643 68.5071 10.4786 61.5214C3.49286 54.5357 0 46.0286 0 36C0 25.9714 3.49286 17.4643 10.4786 10.4786C17.4643 3.49286 25.9714 0 36 0C46.0286 0 54.5357 3.49286 61.5214 10.4786C68.5071 17.4643 72 25.9714 72 36C72 46.0286 68.5071 54.5357 61.5214 61.5214C54.5357 68.5071 46.0286 72 36 72ZM25.2 34.2C26.2286 34.2 27.1286 33.8143 27.9 33.0429C28.6714 32.2714 29.0571 31.3714 29.0571 30.3429C29.0571 29.3143 28.6714 28.4143 27.9 27.6429C27.1286 26.8714 26.2286 26.4857 25.2 26.4857C24.1714 26.4857 23.2714 26.8714 22.5 27.6429C21.7286 28.4143 21.3429 29.3143 21.3429 30.3429C21.3429 31.3714 21.7286 32.2714 22.5 33.0429C23.2714 33.8143 24.1714 34.2 25.2 34.2ZM46.8 34.2C47.8286 34.2 48.7286 33.8143 49.5 33.0429C50.2714 32.2714 50.6571 31.3714 50.6571 30.3429C50.6571 29.3143 50.2714 28.4143 49.5 27.6429C48.7286 26.8714 47.8286 26.4857 46.8 26.4857C45.7714 26.4857 44.8714 26.8714 44.1 27.6429C43.3286 28.4143 42.9429 29.3143 42.9429 30.3429C42.9429 31.3714 43.3286 32.2714 44.1 33.0429C44.8714 33.8143 45.7714 34.2 46.8 34.2ZM36 22.6286C37.0286 22.6286 37.9286 22.2429 38.7 21.4714C39.4714 20.7 39.8571 19.8 39.8571 18.7714C39.8571 17.7429 39.4714 16.8429 38.7 16.0714C37.9286 15.3 37.0286 14.9143 36 14.9143C34.9714 14.9143 34.0714 15.3 33.3 16.0714C32.5286 16.8429 32.1429 17.7429 32.1429 18.7714C32.1429 19.8 32.5286 20.7 33.3 21.4714C34.0714 22.2429 34.9714 22.6286 36 22.6286Z" fill="#35287D"/>
</g>
</g>
<defs>
<filter id="filter0_i_1561_3742" x="0" y="0" width="72" height="72" filterUnits="userSpaceOnUse" color-interpolation-filters="sRGB">
<feFlood flood-opacity="0" result="BackgroundImageFix"/>
<feBlend mode="normal" in="SourceGraphic" in2="BackgroundImageFix" result="shape"/>
<feColorMatrix in="SourceAlpha" type="matrix" values="0 0 0 0 0 0 0 0 0 0 0 0 0 0 0 0 0 0 127 0" result="hardAlpha"/>
<feOffset dx="-7" dy="-7"/>
<feComposite in2="hardAlpha" operator="arithmetic" k2="-1" k3="1"/>
<feColorMatrix type="matrix" values="0 0 0 0 0 0 0 0 0 0 0 0 0 0 0 0 0 0 0.2 0"/>
<feBlend mode="normal" in2="shape" result="effect1_innerShadow_1561_3742"/>
</filter>
</defs>
</svg>
