<svg width="72" height="72" viewBox="0 0 72 72" fill="none" xmlns="http://www.w3.org/2000/svg">
<g filter="url(#filter0_i_1561_3744)">
<circle cx="36" cy="36" r="36" fill="white"/>
<mask id="mask0_1561_3744" style="mask-type:alpha" maskUnits="userSpaceOnUse" x="0" y="0" width="72" height="72">
<rect width="72" height="72" fill="#D9D9D9"/>
</mask>
<g mask="url(#mask0_1561_3744)">
<path d="M29.4195 67.0373L30.8259 61.579C31.0931 60.7191 31.517 59.9794 32.0976 59.36C32.6781 58.7405 33.4105 58.3992 34.2947 58.3361L46.6761 57.3887C47.5749 57.3255 48.3875 57.509 49.1138 57.9389C49.8401 58.3689 50.3612 58.9822 50.677 59.779L51.9449 63.4738C54.549 61.8802 56.8846 60.0377 58.9519 57.9462C61.0191 55.8547 62.7159 53.4753 64.0422 50.8081L63.0948 50.0867C62.298 49.5814 61.7417 48.9498 61.4259 48.1919C61.1101 47.434 61.0275 46.6445 61.1782 45.8235L63.9474 33.5733C64.098 32.7377 64.4988 32.0769 65.1498 31.5911C65.8009 31.1053 66.5248 30.8429 67.3215 30.8041C67.0057 29.1619 66.5855 27.532 66.0607 25.9142C65.5361 24.2963 64.8632 22.7028 64.0422 21.1336C63.5369 21.4883 62.9685 21.6656 62.3369 21.6656C61.7053 21.6656 61.0859 21.4567 60.4785 21.0388L50.0138 14.8227C49.3191 14.3806 48.8138 13.7708 48.498 12.9935C48.1822 12.2161 48.0996 11.3853 48.2502 10.5011L49.1028 7.16355C47.0429 6.17727 44.9162 5.45338 42.7226 4.99189C40.5292 4.53033 38.2883 4.29955 36 4.29955C35.0138 4.29955 34.0531 4.32141 33.1178 4.36511C32.1826 4.40888 31.234 4.49392 30.2721 4.62024L33.3474 11.3684C33.702 12.1894 33.7652 13.0299 33.5368 13.8899C33.3085 14.7498 32.8397 15.4834 32.1304 16.0906L22.8607 24.2818C22.1514 24.7482 21.3607 25.0227 20.4886 25.1052C19.6166 25.1878 18.7822 24.9887 17.9854 24.5077L9.09467 19.2025C7.47687 21.7433 6.27324 24.4324 5.48376 27.2696C4.69429 30.1069 4.29955 33.017 4.29955 36C4.29955 37.1125 4.42586 38.8056 4.6785 41.0793L13.438 40.2267C14.3222 40.1247 15.1469 40.3045 15.9121 40.766C16.6773 41.2275 17.2493 41.8761 17.6283 42.7117L22.1757 54.1458C22.5304 54.9426 22.6288 55.726 22.4709 56.496C22.313 57.266 21.8988 57.9547 21.2283 58.562L17.6283 61.8632C19.3725 63.1264 21.2271 64.1843 23.1923 65.0369C25.1575 65.8895 27.2332 66.5563 29.4195 67.0373ZM36.7214 49.9554C35.7984 50.0186 34.9737 49.8352 34.2474 49.4053C33.521 48.9753 32.9806 48.3498 32.6259 47.5287L27.1239 35.1838C26.8081 34.3628 26.7802 33.5417 27.04 32.7207C27.3 31.8996 27.7968 31.2365 28.5304 30.7312L38.6162 21.9862C39.2235 21.3546 39.9571 21.0486 40.817 21.068C41.6769 21.0875 42.5053 21.3061 43.3021 21.7239L54.3352 28.3409C55.0689 28.783 55.6057 29.3927 55.9458 30.1701C56.2859 30.9474 56.3612 31.766 56.1717 32.6259L53.2567 45.634C53.0284 46.4162 52.5947 47.0915 51.9559 47.66C51.317 48.2284 50.638 48.5442 49.9191 48.6073L36.7214 49.9554ZM36.0063 72C31.0272 72 26.3471 71.0552 21.9659 69.1655C17.5847 67.2758 13.7737 64.7113 10.5329 61.4719C7.29198 58.2324 4.72628 54.4231 2.83577 50.0438C0.945256 45.6646 0 40.9855 0 36.0063C0 31.0272 0.944845 26.3471 2.83453 21.9659C4.72422 17.5847 7.28876 13.7737 10.5281 10.5329C13.7676 7.29198 17.5769 4.72628 21.9562 2.83577C26.3354 0.945259 31.0145 0 35.9937 0C40.9728 0 45.6529 0.944849 50.0341 2.83454C54.4153 4.72423 58.2263 7.28876 61.4671 10.5281C64.708 13.7676 67.2737 17.5769 69.1642 21.9562C71.0547 26.3354 72 31.0145 72 35.9937C72 40.9728 71.0552 45.6529 69.1655 50.0341C67.2758 54.4153 64.7113 58.2263 61.4719 61.4671C58.2324 64.708 54.4231 67.2737 50.0438 69.1642C45.6646 71.0547 40.9855 72 36.0063 72Z" fill="#3E4244"/>
</g>
</g>
<defs>
<filter id="filter0_i_1561_3744" x="0" y="0" width="72" height="72" filterUnits="userSpaceOnUse" color-interpolation-filters="sRGB">
<feFlood flood-opacity="0" result="BackgroundImageFix"/>
<feBlend mode="normal" in="SourceGraphic" in2="BackgroundImageFix" result="shape"/>
<feColorMatrix in="SourceAlpha" type="matrix" values="0 0 0 0 0 0 0 0 0 0 0 0 0 0 0 0 0 0 127 0" result="hardAlpha"/>
<feOffset dx="-7" dy="-7"/>
<feComposite in2="hardAlpha" operator="arithmetic" k2="-1" k3="1"/>
<feColorMatrix type="matrix" values="0 0 0 0 0 0 0 0 0 0 0 0 0 0 0 0 0 0 0.1 0"/>
<feBlend mode="normal" in2="shape" result="effect1_innerShadow_1561_3744"/>
</filter>
</defs>
</svg>
