<svg width="72" height="72" viewBox="0 0 72 72" fill="none" xmlns="http://www.w3.org/2000/svg">
<g filter="url(#filter0_i_1561_3740)">
<circle cx="36" cy="36" r="36" fill="#3E4244"/>
<circle cx="36" cy="36" r="18" fill="white"/>
<path d="M36.3409 48.3182C34.6515 48.3182 33.1515 48.0341 31.8409 47.4659C30.5379 46.8977 29.5152 46.1212 28.7727 45.1364C28.0379 44.1439 27.6742 43.0189 27.6818 41.7614C27.6742 40.7841 27.8864 39.8864 28.3182 39.0682C28.75 38.25 29.3333 37.5682 30.0682 37.0227C30.8106 36.4697 31.6364 36.1174 32.5455 35.9659V35.8068C31.3485 35.5417 30.3788 34.9318 29.6364 33.9773C28.9015 33.0152 28.5379 31.9053 28.5455 30.6477C28.5379 29.4508 28.8712 28.3826 29.5455 27.4432C30.2197 26.5038 31.1439 25.7652 32.3182 25.2273C33.4924 24.6818 34.8333 24.4091 36.3409 24.4091C37.8333 24.4091 39.1629 24.6818 40.3295 25.2273C41.5038 25.7652 42.428 26.5038 43.1023 27.4432C43.7841 28.3826 44.125 29.4508 44.125 30.6477C44.125 31.9053 43.75 33.0152 43 33.9773C42.2576 34.9318 41.2992 35.5417 40.125 35.8068V35.9659C41.0341 36.1174 41.8523 36.4697 42.5795 37.0227C43.3144 37.5682 43.8977 38.25 44.3295 39.0682C44.7689 39.8864 44.9886 40.7841 44.9886 41.7614C44.9886 43.0189 44.6174 44.1439 43.875 45.1364C43.1326 46.1212 42.1098 46.8977 40.8068 47.4659C39.5114 48.0341 38.0227 48.3182 36.3409 48.3182ZM36.3409 45.0682C37.2121 45.0682 37.9697 44.9205 38.6136 44.625C39.2576 44.322 39.7576 43.8977 40.1136 43.3523C40.4697 42.8068 40.6515 42.178 40.6591 41.4659C40.6515 40.7235 40.4583 40.0682 40.0795 39.5C39.7083 38.9242 39.197 38.4735 38.5455 38.1477C37.9015 37.822 37.1667 37.6591 36.3409 37.6591C35.5076 37.6591 34.7652 37.822 34.1136 38.1477C33.4621 38.4735 32.947 38.9242 32.5682 39.5C32.197 40.0682 32.0152 40.7235 32.0227 41.4659C32.0152 42.178 32.1894 42.8068 32.5455 43.3523C32.9015 43.8902 33.4015 44.3106 34.0455 44.6136C34.697 44.9167 35.4621 45.0682 36.3409 45.0682ZM36.3409 34.4659C37.053 34.4659 37.6818 34.322 38.2273 34.0341C38.7803 33.7462 39.2159 33.3447 39.5341 32.8295C39.8523 32.3144 40.0152 31.7197 40.0227 31.0455C40.0152 30.3788 39.8561 29.7955 39.5455 29.2955C39.2348 28.7879 38.803 28.3977 38.25 28.125C37.697 27.8447 37.0606 27.7045 36.3409 27.7045C35.6061 27.7045 34.9583 27.8447 34.3977 28.125C33.8447 28.3977 33.4129 28.7879 33.1023 29.2955C32.7992 29.7955 32.6515 30.3788 32.6591 31.0455C32.6515 31.7197 32.803 32.3144 33.1136 32.8295C33.4318 33.3371 33.8674 33.7386 34.4205 34.0341C34.9811 34.322 35.6212 34.4659 36.3409 34.4659Z" fill="#3E4244"/>
</g>
<defs>
<filter id="filter0_i_1561_3740" x="0" y="0" width="72" height="72" filterUnits="userSpaceOnUse" color-interpolation-filters="sRGB">
<feFlood flood-opacity="0" result="BackgroundImageFix"/>
<feBlend mode="normal" in="SourceGraphic" in2="BackgroundImageFix" result="shape"/>
<feColorMatrix in="SourceAlpha" type="matrix" values="0 0 0 0 0 0 0 0 0 0 0 0 0 0 0 0 0 0 127 0" result="hardAlpha"/>
<feOffset dx="-7" dy="-7"/>
<feComposite in2="hardAlpha" operator="arithmetic" k2="-1" k3="1"/>
<feColorMatrix type="matrix" values="0 0 0 0 0 0 0 0 0 0 0 0 0 0 0 0 0 0 0.1 0"/>
<feBlend mode="normal" in2="shape" result="effect1_innerShadow_1561_3740"/>
</filter>
</defs>
</svg>
