<svg width="72" height="72" viewBox="0 0 72 72" fill="none" xmlns="http://www.w3.org/2000/svg">
<g filter="url(#filter0_i_1561_3745)">
<circle cx="36" cy="36" r="36" fill="#3E4244"/>
<mask id="mask0_1561_3745" style="mask-type:alpha" maskUnits="userSpaceOnUse" x="0" y="0" width="72" height="72">
<rect width="72" height="72" fill="#D9D9D9"/>
</mask>
<g mask="url(#mask0_1561_3745)">
<path d="M0 33.8446C0.102333 30.6978 0.800139 27.3367 2.09342 23.7613C3.3867 20.1859 5.03922 17.0368 7.05098 14.3138C10.6264 17.5141 13.2251 20.779 14.8472 24.1084C16.4693 27.4378 17.4532 30.6832 17.7991 33.8446H0ZM54.2009 33.8446C54.5468 30.6832 55.5124 27.4561 57.098 24.1632C58.6835 20.8703 61.3006 17.6237 64.949 14.4234C66.9608 17.122 68.6133 20.2529 69.9066 23.8161C71.1999 27.3793 71.8977 30.7221 72 33.8446H54.2009ZM7.05098 57.5182C5.03922 54.7952 3.39886 51.674 2.1299 48.1546C0.860995 44.6352 0.151029 41.3022 0 38.1554H17.7991C17.4532 41.3168 16.4693 44.5281 14.8472 47.7893C13.2251 51.0505 10.6264 54.2935 7.05098 57.5182ZM64.949 57.5182C61.3006 54.2935 58.6835 51.0505 57.098 47.7893C55.5124 44.5281 54.5468 41.3168 54.2009 38.1554H72C71.8977 41.2779 71.1999 44.6048 69.9066 48.1364C68.6133 51.668 66.9608 54.7952 64.949 57.5182ZM22.2049 33.8446C21.8201 30.0548 20.746 26.3053 18.9827 22.5959C17.2193 18.8866 14.2041 15.0591 9.93707 11.1135C12.6844 8.259 16.065 5.7735 20.0787 3.657C24.0926 1.5405 28.6812 0.3215 33.8446 0V33.8446H22.2049ZM38.1554 33.8446V0C43.3188 0.3215 47.9171 1.5405 51.9504 3.657C55.9838 5.7735 59.3863 8.259 62.1579 11.1135C57.8421 15.0104 54.7989 18.8257 53.0282 22.5594C51.2576 26.2931 50.1799 30.0548 49.7951 33.8446H38.1554ZM33.8446 72C28.4133 71.6785 23.7577 70.4376 19.8778 68.2772C15.998 66.1169 12.6844 63.6094 9.93707 60.755C14.2528 56.8337 17.2802 53.0464 19.0193 49.3931C20.7582 45.7398 21.8201 41.9939 22.2049 38.1554H33.8446V72ZM38.1554 72V38.1554H49.7951C50.1799 41.9939 51.2576 45.7519 53.0282 49.4297C54.7989 53.1074 57.8421 56.9068 62.1579 60.828C59.3863 63.6825 56.0446 66.1777 52.1331 68.3137C48.2216 70.4497 43.5624 71.6785 38.1554 72Z" fill="#F35600"/>
</g>
</g>
<defs>
<filter id="filter0_i_1561_3745" x="0" y="0" width="72" height="72" filterUnits="userSpaceOnUse" color-interpolation-filters="sRGB">
<feFlood flood-opacity="0" result="BackgroundImageFix"/>
<feBlend mode="normal" in="SourceGraphic" in2="BackgroundImageFix" result="shape"/>
<feColorMatrix in="SourceAlpha" type="matrix" values="0 0 0 0 0 0 0 0 0 0 0 0 0 0 0 0 0 0 127 0" result="hardAlpha"/>
<feOffset dx="-7" dy="-7"/>
<feComposite in2="hardAlpha" operator="arithmetic" k2="-1" k3="1"/>
<feColorMatrix type="matrix" values="0 0 0 0 0 0 0 0 0 0 0 0 0 0 0 0 0 0 0.1 0"/>
<feBlend mode="normal" in2="shape" result="effect1_innerShadow_1561_3745"/>
</filter>
</defs>
</svg>
