<svg width="240" height="240" viewBox="0 0 240 240" fill="none" xmlns="http://www.w3.org/2000/svg">
<path d="M50 122C51.1667 122.667 53.6 124.3 54 125.5" stroke="#3E4244" stroke-width="3" stroke-linecap="round"/>
<path d="M57 129C58.1667 129.667 60.1 133.8 60.5 135" stroke="#3E4244" stroke-width="3" stroke-linecap="round"/>
<ellipse opacity="0.5" cx="154" cy="181.5" rx="52" ry="7.5" fill="#3E4244"/>
<path d="M181.63 96C182.03 118.8 160.523 129.333 149.856 131.5C157.856 130.7 164.815 137 168.356 142C172.96 148.5 167.13 155.5 162.63 152C160.99 150.725 158.847 149.532 156.601 148.5C156.101 154 162.701 170 164.63 176.5C166.856 184 156.13 192.5 144.63 179C138.104 171.339 132.648 169.096 128.6 168.915C128.356 172 128.63 173.5 125.13 177.5C121.13 181.5 113.13 181.5 109.13 177.5C103.91 172.28 110.63 162 112.13 160C113.053 158.77 113.443 149.78 113.575 142.431C103.575 144.431 96.8563 144 84.3563 140C71.8563 136 76.6302 123.5 88.6302 128C98.2302 131.6 109.964 130.5 114.63 129.5C100.5 128 80.9653 119.5 82.6302 95.5C84.7993 64.2318 112.13 52 133.63 52C155.13 52 181.13 67.5 181.63 96Z" fill="#FFFFFA"/>
<path d="M113.575 142.431C103.575 144.431 96.8563 144 84.3563 140C71.8563 136 76.6302 123.5 88.6302 128C98.2302 131.6 109.964 130.5 114.63 129.5C100.5 128 80.9653 119.5 82.6302 95.5C84.7993 64.2318 112.13 52 133.63 52C155.13 52 181.13 67.5 181.63 96C182.03 118.8 160.523 129.333 149.856 131.5C157.856 130.7 164.815 137 168.356 142C172.96 148.5 167.13 155.5 162.63 152C158.165 148.527 149.963 145.667 146.13 145M113.63 136.5C113.63 143.667 113.33 158.4 112.13 160C110.63 162 103.91 172.28 109.13 177.5C113.13 181.5 121.13 181.5 125.13 177.5C128.63 173.5 128.356 172 128.6 168.915M124.356 169.5C128.356 168.167 135.43 168.2 144.63 179C156.13 192.5 166.856 184 164.63 176.5C162.701 170 156.101 154 156.601 148.5" stroke="#3E4244" stroke-width="3" stroke-linecap="round" stroke-linejoin="round"/>
<ellipse cx="101.5" cy="102.5" rx="4.5" ry="5.5" fill="#3E4244"/>
<path d="M111.5 105.5C112 110 119 110.5 120.5 106" stroke="#3E4244" stroke-width="3" stroke-linecap="round"/>
<ellipse cx="130.5" cy="102.5" rx="4.5" ry="5.5" fill="#3E4244"/>
<g opacity="0.38" filter="url(#filter0_f_1562_5503)">
<path d="M144 138.5C130.4 138.1 113.333 133.667 107 131C109.774 131.102 111.94 129.562 114.5 129.5C172.103 128.104 177 88.5 167 64C173.5 69 180.928 78.4687 182.5 84.5C189.102 109.83 169.423 126.558 156.5 131C160.5 131 169 139 171 143.5C172.6 147.1 168 153.5 165.5 153.5C166.5 151.5 161 139 144 138.5Z" fill="#3E4244"/>
</g>
<path d="M80.1211 109.977C81.1056 111.792 81.748 113.831 81.886 115.835C82.1283 119.353 80.8312 122.743 77.0402 124.8C71.0484 128.05 64.056 124.958 61.3791 120.023C60.0254 117.528 59.3434 114.291 59.7628 111.288C60.1787 108.311 61.6631 105.615 64.6095 104.017C67.5562 102.418 70.7131 102.628 73.5269 103.895C76.3601 105.171 78.7754 107.497 80.1211 109.977Z" fill="#92A5B1" stroke="#3E4244" stroke-width="2"/>
<path d="M73.8086 124.679C73.3531 123.733 73.7067 122.596 74.6183 122.075L75.007 121.853C75.8655 121.363 76.9536 121.573 77.5674 122.348L84.5188 131.129C85.2912 132.105 84.9946 133.541 83.8989 134.131L81.3424 135.508C80.3386 136.048 79.0868 135.642 78.5922 134.615L73.8086 124.679Z" fill="#D9D9D9" stroke="#3E4244" stroke-width="2" stroke-linejoin="round"/>
<circle cx="40.5" cy="115.5" r="5.5" fill="#FFFFFA" stroke="#3E4244" stroke-width="2"/>
<path d="M43 98.5C44.5 94.1667 50.1 85 60.5 83" stroke="#3E4244" stroke-width="3" stroke-linecap="round"/>
<path d="M54 98.5247C56.3333 96.1913 62.2 91.6247 67 92.0247" stroke="#3E4244" stroke-width="3" stroke-linecap="round"/>
<path d="M73 92C74 92.1667 76.3 92.8 77.5 94" stroke="#3E4244" stroke-width="3" stroke-linecap="round"/>
<defs>
<filter id="filter0_f_1562_5503" x="103.7" y="60.7" width="83.4188" height="96.1" filterUnits="userSpaceOnUse" color-interpolation-filters="sRGB">
<feFlood flood-opacity="0" result="BackgroundImageFix"/>
<feBlend mode="normal" in="SourceGraphic" in2="BackgroundImageFix" result="shape"/>
<feGaussianBlur stdDeviation="1.65" result="effect1_foregroundBlur_1562_5503"/>
</filter>
</defs>
</svg>
