<svg width="240" height="240" viewBox="0 0 240 240" fill="none" xmlns="http://www.w3.org/2000/svg">
<ellipse opacity="0.5" cx="120" cy="179.5" rx="52" ry="7.5" fill="#3E4244"/>
<path d="M119.63 53C141.13 53 167.63 68.4956 167.63 97C167.63 112 160.451 118.5 150.054 126C151.201 133.612 144.544 139.812 139.789 143C140.151 147.422 141.262 153.574 143.5 160C145.339 165.281 149.614 173.019 150.63 177.5C152.361 185.13 141 189.5 129.5 176C124.664 170.323 120.727 168.726 117.5 168.682C117.5 170.028 112.92 175.295 110.63 177.76C103.361 185.612 94.582 184.638 90.9999 180.26C86.4999 174.76 95.7344 167.5 98.1301 161C100.98 153.268 100.224 148.067 99.745 143C95.1562 143.71 83.0182 136.106 80.1173 125C69.5 118.5 68.1649 104 68.6301 96.5C70.7992 65.2318 98.1301 53 119.63 53Z" fill="#FFFFFA"/>
<path d="M128.5 127C125.5 124 119.5 118 116.5 114.5C111.356 110 104 118.5 102 111.5C101 106 114.5 106 113.5 102.5C112.575 97.0523 112.5 92.3214 117 92C124 91.5 118.5 100 124 105C131 110.5 138.986 111.371 144 116C157 128 146.5 138.5 139.789 143M102 128C98.6301 126.5 92 120.5 95.5 109C98.5001 108 97 108.5 98.5 108C103.87 105.5 97.6461 100.282 100.5 97.5C105.5 94.5 111 96 111 92C111 87 97 89 88.5 96.5C86.0364 98.6737 83.8879 101.733 82.279 106C80.9273 109.585 79.9565 114.021 79.5 119.5C79.4318 121.408 79.6596 123.248 80.1173 125M99.6301 137.5C99.6301 139.389 99.5733 141.186 99.745 143M110.356 170.5C112.253 169.868 114.588 168.643 117.5 168.682M117.5 168.682C120.727 168.726 124.664 170.323 129.5 176C141 189.5 152.361 185.13 150.63 177.5C149.614 173.019 145.339 165.281 143.5 160C140.192 150.5 139.345 141.6 139.745 138M117.5 168.682C117.5 170.028 112.92 175.295 110.63 177.76C103.361 185.612 94.582 184.638 90.9999 180.26C86.4999 174.76 95.7344 167.5 98.1301 161C100.98 153.268 100.224 148.067 99.745 143M99.745 143C95.1562 143.71 83.0182 136.106 80.1173 125M150.054 126C160.451 118.5 167.63 112 167.63 97C167.63 68.4956 141.13 53 119.63 53C98.1301 53 70.7992 65.2318 68.6301 96.5C68.1649 104 69.5 118.5 80.1173 125" stroke="#3E4244" stroke-width="3" stroke-linecap="round" stroke-linejoin="round"/>
<path d="M134.5 96L130 100M130 100L134.5 104M130 100H135.5" stroke="#3E4244" stroke-width="3" stroke-linecap="round" stroke-linejoin="round"/>
<ellipse cx="106.745" cy="100.5" rx="4.5" ry="5.5" fill="#3E4244"/>
</svg>
