<svg width="240" height="240" viewBox="0 0 240 240" fill="none" xmlns="http://www.w3.org/2000/svg">
<ellipse opacity="0.5" cx="120" cy="179.5" rx="52" ry="7.5" fill="#3E4244"/>
<path d="M119.5 54.4998C141.63 53.9998 166.5 68.4955 166.5 96.9999C166.5 118.2 152.094 125.451 142.094 128.951C158.5 131 156 141 151.5 148C149.37 151.314 145.667 155.04 142.5 157.06C142.829 158.098 143.165 159.078 143.5 160C145.5 165.5 149.614 173.019 150.63 177.5C152.361 185.129 141 189.5 129.5 176C124.664 170.322 120.727 168.726 117.5 168.682C117.5 170.028 112.92 175.295 110.63 177.76C103.361 185.612 94.5821 184.638 91 180.26C86.5 174.76 95.7345 167.5 98.1302 161C98.8266 159.11 99.1776 158.122 99.5001 156.5C95.9567 155.083 89.6111 151 86.5 147C83.3889 143 81 133.5 94.0002 129.5C75.5 120 70.2369 108 70.9999 96.9999C73.169 65.7316 97.3699 54.9998 119.5 54.4998Z" fill="#FFFFFA"/>
<path d="M99.6302 137.5C99.6302 139.389 99.5734 141.186 99.7451 143C100.107 146.828 100.497 151.484 99.5001 156.5M110.356 170.5C112.254 169.867 114.588 168.643 117.5 168.682M117.5 168.682C120.727 168.726 124.664 170.322 129.5 176C141 189.5 152.361 185.129 150.63 177.5C149.614 173.019 145.5 165.5 143.5 160C143.165 159.078 142.829 158.098 142.5 157.06M117.5 168.682C117.5 170.028 112.92 175.295 110.63 177.76C103.361 185.612 94.5821 184.638 91 180.26C86.5 174.76 95.7345 167.5 98.1302 161C98.8266 159.11 99.1776 158.122 99.5001 156.5M99.5001 156.5C95.9567 155.083 89.6111 151 86.5 147C83.3889 143 81 133.5 94.0002 129.5C75.5 120 70.2369 108 70.9999 96.9999C73.169 65.7316 97.3699 54.9998 119.5 54.4998C141.63 53.9998 166.5 68.4955 166.5 96.9999C166.5 118.2 152.094 125.451 142.094 128.951C158.5 131 156 141 151.5 148C149.37 151.314 145.667 155.04 142.5 157.06M139 137.5C139.416 145.4 140.876 151.935 142.5 157.06" stroke="#3E4244" stroke-width="3" stroke-linecap="round" stroke-linejoin="round"/>
<path d="M119.729 53.0114C141.859 52.5114 167.729 68.507 167.729 97.0114C167.729 114.5 156.5 126 142 129.511C130.331 132.337 105.733 131.674 94.0988 129.511C72.5986 124.011 69.3356 108.011 70.0987 97.0114C72.2677 65.7431 97.5987 53.5114 119.729 53.0114Z" fill="#FE4A65" stroke="#3E4244" stroke-width="2" stroke-linecap="round" stroke-linejoin="round"/>
<path d="M119.672 64.009C136.882 63.6136 157 76.2647 157 98.8092C157 112.641 148.268 121.737 136.992 124.514C127.917 126.749 108.788 126.225 99.7407 124.514C83.0209 120.164 80.4833 107.509 81.0767 98.8092C82.7635 74.0787 102.462 64.4044 119.672 64.009Z" fill="#2B3227" stroke="#3E4244" stroke-width="2" stroke-linecap="round" stroke-linejoin="round"/>
<path d="M117.268 82C118.038 80.6667 119.962 80.6667 120.732 82L135.454 107.5C136.224 108.833 135.262 110.5 133.722 110.5H104.278C102.738 110.5 101.776 108.833 102.546 107.5L117.268 82Z" stroke="#FFFFFA" stroke-width="4"/>
</svg>
