<svg width="240" height="240" viewBox="0 0 240 240" fill="none" xmlns="http://www.w3.org/2000/svg">
<ellipse opacity="0.5" cx="120" cy="203.5" rx="52" ry="7.5" fill="#3E4244"/>
<path d="M119.63 76C141.13 76 167.63 91.4956 167.63 120C167.63 135 164.094 142 153.696 149.5C154.131 159.315 147.261 165.245 139.934 167.5C140.406 171.762 141.506 177.272 143.5 183C145.339 188.281 149.614 196.019 150.63 200.5C152.361 208.13 141 212.5 129.5 199C124.664 193.323 120.727 191.726 117.5 191.682C117.5 193.028 112.92 198.295 110.63 200.76C103.361 208.612 94.5823 207.638 91.0002 203.26C86.5002 197.76 95.7347 190.5 98.1304 184C100.98 176.268 100.225 171.067 99.7453 166C94.4324 166.822 86.7119 158.53 84.9581 150C69.5285 141.2 67.6439 126 68.6304 119.5C70.7995 88.2318 98.1304 76 119.63 76Z" fill="#FFFFFA"/>
<path d="M141.5 154C135 151.5 123.245 140.5 127.745 133.5C130.99 128.453 145.279 127.446 150.63 138.5C158.618 155 149.68 164.5 139.934 167.5M101.245 155C105.745 151 111.745 140 108.245 133.5C103.625 124.919 87.2764 127.627 84.7454 144.5C84.4778 146.284 84.5773 148.148 84.9581 150M99.6304 160.5C99.6304 162.389 99.5736 164.186 99.7453 166M110.357 193.5C112.254 192.868 114.588 191.643 117.5 191.682M117.5 191.682C120.727 191.726 124.664 193.323 129.5 199C141 212.5 152.361 208.13 150.63 200.5C149.614 196.019 145.339 188.281 143.5 183C140.192 173.5 139.345 164.6 139.745 161M117.5 191.682C117.5 193.028 112.92 198.295 110.63 200.76C103.361 208.612 94.5823 207.638 91.0002 203.26C86.5002 197.76 95.7347 190.5 98.1304 184C100.98 176.268 100.225 171.067 99.7453 166M99.7453 166C94.4324 166.822 86.7119 158.53 84.9581 150M153.696 149.5C164.094 142 167.63 135 167.63 120C167.63 91.4956 141.13 76 119.63 76C98.1304 76 70.7995 88.2318 68.6304 119.5C67.6439 126 69.5285 141.2 84.9581 150" stroke="#3E4244" stroke-width="3" stroke-linecap="round" stroke-linejoin="round"/>
<ellipse cx="131.745" cy="123.5" rx="4.5" ry="5.5" fill="#3E4244"/>
<ellipse cx="106.745" cy="123.5" rx="4.5" ry="5.5" fill="#3E4244"/>
<path fill-rule="evenodd" clip-rule="evenodd" d="M107.072 38.9485C107.01 36.5834 104.709 34.3411 100.806 35.1601C95.0833 36.3613 91.4033 39.9132 89.2711 45.0489C87.1003 50.2773 86.5537 57.1427 87.3421 64.6581C88.4489 75.2094 92.1394 86.6256 97.0666 95.829C93.9464 83.3892 93.0445 72.8115 93.1211 67.2924C94.8833 67.0407 98.3653 65.2105 99.0695 59.9498L98.5779 60.4414C98.1873 60.0509 97.7887 59.6644 97.3845 59.2729L97.3571 59.2463L97.357 59.2463C96.9658 58.8673 96.568 58.4819 96.1884 58.1023C95.4247 57.3387 94.6531 56.5189 94.0692 55.6892C93.5099 54.8944 92.9291 53.825 92.9421 52.5942C92.9568 51.1972 93.7141 50.1014 94.7946 49.3297L95.0393 49.1549L95.3246 49.0598C104.741 45.9207 107.137 41.4753 107.072 38.9485ZM98.9522 55.2092C98.2468 54.5007 97.7038 53.9036 97.3404 53.3872C97.1033 53.0503 97.0074 52.837 96.9685 52.7263C106.66 49.398 111.205 44.0222 111.07 38.8447C110.93 33.4385 105.767 30.0318 99.9848 31.2454C92.7877 32.756 88.1393 37.3432 85.5768 43.5151C83.0528 49.5942 82.5382 57.2049 83.3639 65.0754C85.0133 80.7981 92.1078 98.4003 100.889 108.743L100.945 108.695C102.946 114.334 105.418 120.117 108.455 125.801C108.32 126.743 108.535 128.787 110.472 129.433C110.203 130.509 110.149 132.742 112.086 133.065C111.414 135.755 108.616 141.215 102.805 141.538C101.46 141.942 98.8511 143.475 99.1738 146.38L96.3492 150.012H141.538L138.713 146.38C139.036 143.475 136.427 141.942 135.082 141.538C129.271 141.215 126.474 135.755 125.801 133.065C127.738 132.742 127.684 130.509 127.415 129.433C129.352 128.787 129.567 126.743 129.433 125.801C132.503 120.054 134.996 114.205 137.008 108.507C145.697 98.134 152.697 80.6792 154.334 65.0754C155.16 57.2049 154.645 49.5942 152.121 43.5151C149.559 37.3432 144.91 32.756 137.713 31.2454C131.931 30.0318 126.768 33.4385 126.628 38.8447C126.493 44.0222 131.038 49.398 140.729 52.7263C140.691 52.837 140.595 53.0503 140.358 53.3872C140.021 53.8661 139.529 54.4144 138.897 55.0566C138.509 53.5999 137.44 52.296 135.082 51.959C129.433 51.152 123.38 50.7485 118.941 50.7485C114.503 50.7485 108.454 51.152 102.805 51.959C100.365 52.3077 99.3049 53.6918 98.9522 55.2092ZM138.849 60.1703C139.62 65.2618 143.029 67.0442 144.766 67.2924C144.841 72.7116 143.973 83.008 140.988 95.1555C145.736 86.0724 149.276 74.9534 150.356 64.6581C151.144 57.1427 150.598 50.2773 148.427 45.0489C146.295 39.9132 142.615 36.3613 136.891 35.1601C132.989 34.3411 130.688 36.5834 130.626 38.9485C130.561 41.4753 132.956 45.9207 142.373 49.0598L142.659 49.1549L142.903 49.3297C143.984 50.1014 144.741 51.1972 144.756 52.5942C144.769 53.825 144.188 54.8944 143.629 55.6892C143.045 56.5189 142.273 57.3387 141.51 58.1023C141.13 58.4819 140.732 58.8674 140.341 59.2463L140.313 59.2729C139.909 59.6644 139.511 60.0509 139.12 60.4414L138.849 60.1703ZM96.9054 52.7749C96.9046 52.775 96.9073 52.7695 96.9162 52.7586C96.9107 52.7695 96.9062 52.7749 96.9054 52.7749ZM140.793 52.7749C140.793 52.775 140.793 52.7743 140.792 52.7731C140.791 52.7707 140.788 52.7659 140.782 52.7586C140.787 52.7695 140.792 52.7749 140.793 52.7749Z" fill="#BDBDBD"/>
<path d="M100.806 35.1601L101.012 36.1388H101.012L100.806 35.1601ZM107.072 38.9485L106.072 38.9744V38.9744L107.072 38.9485ZM89.2711 45.0489L90.1946 45.4323L89.2711 45.0489ZM87.3421 64.6581L88.3366 64.5538L87.3421 64.6581ZM97.0666 95.829L96.185 96.301C96.4233 96.7461 96.956 96.9437 97.427 96.7618C97.8979 96.5799 98.1594 96.0754 98.0366 95.5857L97.0666 95.829ZM93.1211 67.2924L92.9797 66.3025C92.4923 66.3721 92.1281 66.7862 92.1212 67.2785L93.1211 67.2924ZM99.0695 59.9498L100.061 60.0825C100.118 59.6575 99.8971 59.2435 99.5127 59.0534C99.1284 58.8633 98.6656 58.9395 98.3624 59.2427L99.0695 59.9498ZM98.5779 60.4414L97.8708 61.1485C98.2613 61.539 98.8945 61.539 99.285 61.1485L98.5779 60.4414ZM97.3845 59.2729L96.6887 59.9911L96.6887 59.9911L97.3845 59.2729ZM97.3571 59.2463L96.65 59.9534C96.6537 59.9572 96.6575 59.9609 96.6613 59.9646L97.3571 59.2463ZM97.357 59.2463L98.0641 58.5391C98.0604 58.5354 98.0566 58.5317 98.0528 58.528L97.357 59.2463ZM96.1884 58.1023L95.4812 58.8094L95.4812 58.8094L96.1884 58.1023ZM94.0692 55.6892L94.887 55.1137H94.887L94.0692 55.6892ZM92.9421 52.5942L91.9421 52.5836L92.9421 52.5942ZM94.7946 49.3297L95.3758 50.1434L95.3758 50.1434L94.7946 49.3297ZM95.0393 49.1549L94.7231 48.2062C94.6285 48.2377 94.5392 48.2832 94.4581 48.3411L95.0393 49.1549ZM95.3246 49.0598L95.6408 50.0085H95.6408L95.3246 49.0598ZM98.9522 55.2092L98.2436 55.9148C98.5001 56.1724 98.8764 56.2705 99.2261 56.1709C99.5758 56.0714 99.8439 55.7898 99.9262 55.4356L98.9522 55.2092ZM97.3404 53.3872L96.5226 53.9627L97.3404 53.3872ZM96.9685 52.7263L96.6437 51.7805C96.3917 51.8671 96.1846 52.0506 96.0685 52.2904C95.9524 52.5302 95.9367 52.8065 96.025 53.0578L96.9685 52.7263ZM111.07 38.8447L110.071 38.8706V38.8706L111.07 38.8447ZM99.9848 31.2454L100.19 32.2241L100.19 32.2241L99.9848 31.2454ZM85.5768 43.5151L84.6533 43.1316L85.5768 43.5151ZM83.3639 65.0754L82.3693 65.1798L83.3639 65.0754ZM100.889 108.743L100.126 109.39C100.484 109.811 101.115 109.863 101.536 109.505L100.889 108.743ZM100.945 108.695L101.888 108.36C101.778 108.051 101.522 107.815 101.205 107.729C100.888 107.644 100.549 107.72 100.298 107.932L100.945 108.695ZM108.455 125.801L109.444 125.943C109.475 125.732 109.437 125.518 109.337 125.33L108.455 125.801ZM110.472 129.433L111.442 129.675C111.569 129.169 111.284 128.65 110.788 128.484L110.472 129.433ZM112.086 133.065L113.056 133.307C113.124 133.036 113.075 132.75 112.922 132.516C112.769 132.283 112.526 132.124 112.25 132.078L112.086 133.065ZM102.805 141.538L102.75 140.54C102.671 140.544 102.593 140.558 102.518 140.58L102.805 141.538ZM99.1738 146.38L99.9631 146.994C100.123 146.789 100.196 146.529 100.168 146.27L99.1738 146.38ZM96.3492 150.012L95.5599 149.398C95.3254 149.7 95.2831 150.108 95.4509 150.451C95.6187 150.794 95.9673 151.012 96.3492 151.012V150.012ZM141.538 150.012V151.012C141.92 151.012 142.268 150.794 142.436 150.451C142.604 150.108 142.562 149.7 142.327 149.398L141.538 150.012ZM138.713 146.38L137.719 146.27C137.691 146.529 137.764 146.789 137.924 146.994L138.713 146.38ZM135.082 141.538L135.369 140.58C135.294 140.558 135.216 140.544 135.137 140.54L135.082 141.538ZM125.801 133.065L125.637 132.078C125.361 132.124 125.118 132.283 124.965 132.516C124.812 132.75 124.763 133.036 124.831 133.307L125.801 133.065ZM127.415 129.433L127.099 128.484C126.603 128.65 126.318 129.169 126.445 129.675L127.415 129.433ZM129.433 125.801L128.551 125.33C128.45 125.518 128.413 125.732 128.443 125.943L129.433 125.801ZM137.008 108.507L136.242 107.865C136.165 107.956 136.105 108.061 136.066 108.174L137.008 108.507ZM154.334 65.0754L155.329 65.1798L154.334 65.0754ZM152.121 43.5151L151.198 43.8985L152.121 43.5151ZM137.713 31.2454L137.508 32.2241V32.2241L137.713 31.2454ZM126.628 38.8447L127.627 38.8706V38.8706L126.628 38.8447ZM140.729 52.7263L141.673 53.0578C141.761 52.8064 141.746 52.5302 141.629 52.2904C141.513 52.0506 141.306 51.8671 141.054 51.7805L140.729 52.7263ZM140.358 53.3872L139.54 52.8117L139.54 52.8117L140.358 53.3872ZM138.897 55.0566L137.93 55.3137C138.023 55.6606 138.294 55.9314 138.641 56.0233C138.988 56.1152 139.358 56.014 139.609 55.7582L138.897 55.0566ZM135.082 51.959L135.223 50.9691L135.082 51.959ZM102.805 51.959L102.947 52.949L102.805 51.959ZM138.849 60.1703L139.556 59.4632C139.251 59.1578 138.784 59.083 138.398 59.2778C138.013 59.4726 137.796 59.8929 137.86 60.32L138.849 60.1703ZM144.766 67.2924L145.766 67.2785C145.759 66.7862 145.395 66.3721 144.907 66.3025L144.766 67.2924ZM140.988 95.1555L140.017 94.9168C139.896 95.408 140.161 95.9121 140.634 96.0909C141.107 96.2697 141.64 96.067 141.874 95.6188L140.988 95.1555ZM150.356 64.6581L149.361 64.5538L150.356 64.6581ZM148.427 45.0489L149.35 44.6654V44.6654L148.427 45.0489ZM136.891 35.1601L136.686 36.1388L136.891 35.1601ZM130.626 38.9485L131.626 38.9744V38.9744L130.626 38.9485ZM142.373 49.0598L142.057 50.0085L142.373 49.0598ZM142.659 49.1549L143.24 48.3411C143.159 48.2832 143.069 48.2377 142.975 48.2062L142.659 49.1549ZM142.903 49.3297L142.322 50.1434L142.322 50.1434L142.903 49.3297ZM144.756 52.5942L145.756 52.5836L144.756 52.5942ZM143.629 55.6892L142.811 55.1137V55.1137L143.629 55.6892ZM141.51 58.1023L142.217 58.8094L142.217 58.8094L141.51 58.1023ZM140.341 59.2463L139.645 58.528L139.645 58.5281L140.341 59.2463ZM140.313 59.2729L141.009 59.9911L141.009 59.9911L140.313 59.2729ZM139.12 60.4414L138.413 61.1485C138.803 61.539 139.437 61.539 139.827 61.1485L139.12 60.4414ZM96.9054 52.7749L96.9235 53.7748H96.9236L96.9054 52.7749ZM96.9162 52.7586L97.809 53.209C98.0392 52.7526 97.8882 52.1961 97.4589 51.9186C97.0295 51.6412 96.4601 51.7323 96.1386 52.1297L96.9162 52.7586ZM140.792 52.7731L139.899 53.2229L139.9 53.2243L140.792 52.7731ZM140.793 52.7749L140.813 51.7752L140.811 51.7751L140.793 52.7749ZM140.782 52.7586L141.559 52.1297C141.238 51.7322 140.668 51.6412 140.239 51.9186C139.81 52.1961 139.659 52.7526 139.889 53.209L140.782 52.7586ZM141.542 150.012V151.012C141.924 151.012 142.273 150.794 142.441 150.451C142.608 150.108 142.566 149.7 142.332 149.398L141.542 150.012ZM96.3447 150.012L95.5553 149.398C95.3209 149.7 95.2786 150.108 95.4464 150.451C95.6142 150.794 95.9628 151.012 96.3447 151.012V150.012ZM101.012 36.1388C102.739 35.7762 103.997 36.1099 104.804 36.678C105.619 37.2517 106.05 38.1114 106.072 38.9744L108.071 38.9225C108.032 37.4205 107.282 35.9765 105.955 35.0425C104.62 34.1029 102.776 33.725 100.601 34.1814L101.012 36.1388ZM90.1946 45.4323C92.2191 40.5563 95.6567 37.2628 101.012 36.1388L100.601 34.1814C94.5099 35.4599 90.5876 39.2702 88.3475 44.6654L90.1946 45.4323ZM88.3366 64.5538C87.5575 57.1272 88.1121 50.4481 90.1946 45.4323L88.3475 44.6654C86.0884 50.1066 85.5498 57.1583 86.3475 64.7624L88.3366 64.5538ZM97.9482 95.357C93.0774 86.259 89.429 74.9669 88.3366 64.5538L86.3475 64.7624C87.4689 75.4518 91.2013 86.9922 96.185 96.301L97.9482 95.357ZM98.0366 95.5857C94.9349 83.2201 94.0457 72.7291 94.121 67.3063L92.1212 67.2785C92.0433 72.8939 92.9578 83.5583 96.0967 96.0723L98.0366 95.5857ZM93.2626 68.2824C95.4374 67.9717 99.2931 65.8168 100.061 60.0825L98.0783 59.8171C97.4375 64.6041 94.3293 66.1097 92.9797 66.3025L93.2626 68.2824ZM99.285 61.1485L99.7766 60.6569L98.3624 59.2427L97.8708 59.7343L99.285 61.1485ZM96.6887 59.9911C97.0936 60.3834 97.4867 60.7645 97.8708 61.1485L99.285 59.7343C98.888 59.3373 98.4837 58.9454 98.0803 58.5546L96.6887 59.9911ZM96.6613 59.9646L96.6887 59.9911L98.0803 58.5546L98.0529 58.5281L96.6613 59.9646ZM96.6499 59.9534L96.65 59.9534L98.0642 58.5392L98.0641 58.5391L96.6499 59.9534ZM95.4812 58.8094C95.8675 59.1956 96.2711 59.5866 96.6613 59.9645L98.0528 58.528C97.6605 58.148 97.2685 57.7682 96.8955 57.3952L95.4812 58.8094ZM93.2514 56.2647C93.8876 57.1687 94.7106 58.0388 95.4812 58.8094L96.8955 57.3952C96.1387 56.6385 95.4186 55.8691 94.887 55.1137L93.2514 56.2647ZM91.9421 52.5836C91.9258 54.1303 92.6519 55.4127 93.2514 56.2647L94.887 55.1137C94.3679 54.376 93.9324 53.5198 93.942 52.6047L91.9421 52.5836ZM94.2134 48.5159C92.9487 49.4192 91.9611 50.7846 91.9421 52.5836L93.942 52.6047C93.9525 51.6097 94.4794 50.7837 95.3758 50.1434L94.2134 48.5159ZM94.4581 48.3411L94.2134 48.5159L95.3758 50.1434L95.6205 49.9687L94.4581 48.3411ZM95.0083 48.1111L94.7231 48.2062L95.3556 50.1036L95.6408 50.0085L95.0083 48.1111ZM106.072 38.9744C106.12 40.8264 104.285 45.0189 95.0083 48.1111L95.6408 50.0085C105.198 46.8226 108.155 42.1241 108.071 38.9225L106.072 38.9744ZM99.6608 54.5036C98.9629 53.8026 98.4702 53.2551 98.1582 52.8117L96.5226 53.9627C96.9374 54.5521 97.5308 55.1989 98.2436 55.9148L99.6608 54.5036ZM98.1582 52.8117C97.961 52.5314 97.9137 52.3998 97.9119 52.3948L96.025 53.0578C96.1011 53.2742 96.2456 53.5691 96.5226 53.9627L98.1582 52.8117ZM97.2933 53.6721C107.117 50.2984 112.222 44.6702 112.07 38.8187L110.071 38.8706C110.188 43.3741 106.202 48.4977 96.6437 51.7805L97.2933 53.6721ZM112.07 38.8187C111.91 32.64 106.018 28.9573 99.7794 30.2667L100.19 32.2241C105.516 31.1063 109.95 34.237 110.071 38.8706L112.07 38.8187ZM99.7794 30.2667C92.2134 31.8547 87.3231 36.7011 84.6533 43.1316L86.5004 43.8985C88.9555 37.9852 93.362 33.6572 100.19 32.2241L99.7794 30.2667ZM84.6533 43.1316C82.041 49.4235 81.5344 57.2205 82.3693 65.1798L84.3584 64.9711C83.5421 57.1894 84.0647 49.765 86.5004 43.8985L84.6533 43.1316ZM82.3693 65.1798C84.0364 81.0708 91.1959 98.8713 100.126 109.39L101.651 108.096C93.0197 97.9292 85.9901 80.5254 84.3584 64.9711L82.3693 65.1798ZM101.536 109.505L101.592 109.457L100.298 107.932L100.241 107.98L101.536 109.505ZM109.337 125.33C106.326 119.695 103.874 113.959 101.888 108.36L100.003 109.029C102.018 114.709 104.509 120.539 107.573 126.273L109.337 125.33ZM110.788 128.484C110.152 128.272 109.809 127.85 109.617 127.362C109.412 126.841 109.397 126.274 109.444 125.943L107.465 125.66C107.377 126.27 107.403 127.196 107.756 128.094C108.122 129.025 108.856 129.948 110.156 130.382L110.788 128.484ZM112.25 132.078C111.964 132.03 111.802 131.925 111.697 131.816C111.582 131.697 111.484 131.521 111.418 131.274C111.28 130.756 111.334 130.11 111.442 129.675L109.502 129.19C109.341 129.832 109.233 130.84 109.485 131.788C109.615 132.274 109.85 132.784 110.261 133.208C110.682 133.642 111.239 133.937 111.922 134.051L112.25 132.078ZM102.861 142.537C106.1 142.357 108.488 140.737 110.128 138.844C111.755 136.968 112.687 134.783 113.056 133.307L111.116 132.822C110.812 134.036 110.01 135.927 108.617 137.534C107.238 139.125 105.321 140.397 102.75 140.54L102.861 142.537ZM100.168 146.27C100.046 145.176 100.462 144.351 101.079 143.721C101.719 143.066 102.55 142.659 103.093 142.496L102.518 140.58C101.715 140.821 100.569 141.382 99.6495 142.322C98.7065 143.285 97.9787 144.679 98.1799 146.491L100.168 146.27ZM97.1386 150.626L99.9631 146.994L98.3844 145.766L95.5599 149.398L97.1386 150.626ZM141.538 149.012H96.3492V151.012H141.538V149.012ZM137.924 146.994L140.748 150.626L142.327 149.398L139.503 145.766L137.924 146.994ZM134.794 142.496C135.337 142.659 136.168 143.066 136.808 143.721C137.425 144.351 137.841 145.176 137.719 146.27L139.707 146.491C139.908 144.679 139.181 143.285 138.238 142.322C137.318 141.382 136.172 140.821 135.369 140.58L134.794 142.496ZM124.831 133.307C125.2 134.783 126.132 136.968 127.759 138.844C129.399 140.737 131.787 142.357 135.026 142.537L135.137 140.54C132.566 140.397 130.65 139.125 129.27 137.534C127.877 135.927 127.075 134.036 126.771 132.822L124.831 133.307ZM126.445 129.675C126.554 130.11 126.607 130.756 126.469 131.274C126.403 131.521 126.305 131.697 126.19 131.816C126.085 131.925 125.923 132.03 125.637 132.078L125.965 134.051C126.648 133.937 127.206 133.642 127.626 133.208C128.037 132.784 128.272 132.274 128.402 131.788C128.654 130.84 128.546 129.832 128.385 129.19L126.445 129.675ZM128.443 125.943C128.49 126.274 128.475 126.841 128.27 127.362C128.078 127.85 127.735 128.272 127.099 128.484L127.731 130.382C129.032 129.948 129.765 129.025 130.131 128.094C130.484 127.196 130.51 126.27 130.422 125.66L128.443 125.943ZM136.066 108.174C134.068 113.831 131.594 119.632 128.551 125.33L130.315 126.273C133.412 120.475 135.924 114.58 137.951 108.84L136.066 108.174ZM153.34 64.9711C151.72 80.4067 144.785 97.6659 136.242 107.865L137.775 109.149C146.61 98.6021 153.674 80.9516 155.329 65.1798L153.34 64.9711ZM151.198 43.8985C153.633 49.765 154.156 57.1894 153.34 64.9711L155.329 65.1798C156.164 57.2205 155.657 49.4235 153.045 43.1316L151.198 43.8985ZM137.508 32.2241C144.336 33.6572 148.742 37.9852 151.198 43.8985L153.045 43.1316C150.375 36.7011 145.485 31.8547 137.919 30.2667L137.508 32.2241ZM127.627 38.8706C127.748 34.237 132.182 31.1063 137.508 32.2241L137.919 30.2667C131.68 28.9573 125.788 32.64 125.628 38.8187L127.627 38.8706ZM141.054 51.7805C131.496 48.4977 127.51 43.3741 127.627 38.8706L125.628 38.8187C125.476 44.6702 130.581 50.2984 140.405 53.6721L141.054 51.7805ZM141.175 53.9627C141.452 53.5691 141.597 53.2742 141.673 53.0578L139.786 52.3948C139.784 52.3997 139.737 52.5314 139.54 52.8117L141.175 53.9627ZM139.609 55.7582C140.251 55.1061 140.79 54.5107 141.175 53.9627L139.54 52.8117C139.251 53.2215 138.807 53.7228 138.184 54.355L139.609 55.7582ZM134.94 52.949C135.957 53.0942 136.62 53.4349 137.059 53.8308C137.5 54.2283 137.777 54.7365 137.93 55.3137L139.863 54.7995C139.629 53.9201 139.178 53.0479 138.398 52.3451C137.616 51.6406 136.565 51.1608 135.223 50.9691L134.94 52.949ZM118.941 51.7485C123.33 51.7485 129.336 52.1483 134.94 52.949L135.223 50.9691C129.529 50.1557 123.429 49.7485 118.941 49.7485V51.7485ZM102.947 52.949C108.551 52.1483 114.552 51.7485 118.941 51.7485V49.7485C114.453 49.7485 108.358 50.1557 102.664 50.9691L102.947 52.949ZM99.9262 55.4356C100.068 54.8275 100.339 54.2912 100.782 53.8733C101.222 53.4583 101.895 53.0992 102.947 52.949L102.664 50.9691C101.275 51.1675 100.198 51.6748 99.4096 52.4184C98.6245 53.159 98.1896 54.0735 97.9782 54.9828L99.9262 55.4356ZM137.86 60.32C138.702 65.8785 142.482 67.9763 144.624 68.2824L144.907 66.3025C143.575 66.1122 140.538 64.645 139.838 60.0207L137.86 60.32ZM143.766 67.3063C143.84 72.6305 142.984 82.8417 140.017 94.9168L141.959 95.3941C144.962 83.1743 145.842 72.7927 145.766 67.2785L143.766 67.3063ZM141.874 95.6188C146.676 86.4333 150.256 75.1933 151.35 64.7624L149.361 64.5538C148.296 74.7136 144.796 85.7114 140.101 94.6922L141.874 95.6188ZM151.35 64.7624C152.148 57.1583 151.61 50.1066 149.35 44.6654L147.503 45.4323C149.586 50.4481 150.14 57.1272 149.361 64.5538L151.35 64.7624ZM149.35 44.6654C147.11 39.2702 143.188 35.4599 137.097 34.1814L136.686 36.1388C142.041 37.2628 145.479 40.5563 147.503 45.4323L149.35 44.6654ZM137.097 34.1814C134.922 33.725 133.078 34.1029 131.743 35.0425C130.416 35.9765 129.666 37.4205 129.627 38.9225L131.626 38.9744C131.648 38.1114 132.079 37.2517 132.894 36.678C133.701 36.1099 134.959 35.7762 136.686 36.1388L137.097 34.1814ZM129.627 38.9225C129.543 42.1241 132.5 46.8226 142.057 50.0085L142.69 48.1111C133.413 45.0189 131.578 40.8264 131.626 38.9744L129.627 38.9225ZM142.057 50.0085L142.342 50.1036L142.975 48.2062L142.69 48.1111L142.057 50.0085ZM142.077 49.9687L142.322 50.1434L143.485 48.5159L143.24 48.3411L142.077 49.9687ZM142.322 50.1434C143.219 50.7837 143.745 51.6097 143.756 52.6047L145.756 52.5836C145.737 50.7846 144.749 49.4192 143.485 48.5159L142.322 50.1434ZM143.756 52.6047C143.766 53.5198 143.33 54.3761 142.811 55.1137L144.447 56.2647C145.046 55.4127 145.772 54.1303 145.756 52.5836L143.756 52.6047ZM142.811 55.1137C142.279 55.8691 141.559 56.6385 140.803 57.3952L142.217 58.8094C142.987 58.0388 143.81 57.1687 144.447 56.2647L142.811 55.1137ZM140.803 57.3952C140.429 57.7682 140.037 58.1481 139.645 58.528L141.037 59.9646C141.427 59.5867 141.83 59.1956 142.217 58.8094L140.803 57.3952ZM139.645 58.5281L139.618 58.5547L141.009 59.9911L141.037 59.9646L139.645 58.5281ZM139.618 58.5546C139.214 58.9454 138.81 59.3373 138.413 59.7343L139.827 61.1485C140.211 60.7645 140.604 60.3834 141.009 59.9911L139.618 58.5546ZM139.827 59.7343L139.556 59.4632L138.142 60.8774L138.413 61.1485L139.827 59.7343ZM96.8873 51.7751C97.0213 51.7727 97.196 51.797 97.3745 51.8918C97.5579 51.9892 97.6892 52.1315 97.7731 52.278C97.9203 52.5351 97.9077 52.7755 97.9028 52.8454C97.891 53.0118 97.8385 53.1342 97.8311 53.1523C97.8002 53.228 97.7668 53.2821 97.7574 53.2972C97.7299 53.3417 97.7054 53.373 97.6937 53.3874L96.1386 52.1297C96.1181 52.1551 96.0878 52.1945 96.0569 52.2446C96.0458 52.2624 96.0113 52.3185 95.9798 52.3956C95.9722 52.4143 95.9196 52.5372 95.9078 52.7039C95.9028 52.7741 95.8902 53.0146 96.0375 53.2718C96.2399 53.6254 96.6029 53.7806 96.9235 53.7748L96.8873 51.7751ZM96.0234 52.3081C96.0377 52.2797 96.0585 52.2424 96.0879 52.2001C96.1009 52.1814 96.1268 52.1455 96.1645 52.1037C96.1812 52.0852 96.2195 52.0439 96.2752 51.9986C96.3024 51.9765 96.3545 51.9364 96.4267 51.897C96.4793 51.8683 96.6487 51.7794 96.8872 51.7751L96.9236 53.7748C97.1622 53.7704 97.3317 53.6815 97.3845 53.6527C97.4569 53.6132 97.5091 53.573 97.5365 53.5508C97.5926 53.5052 97.6315 53.4633 97.6489 53.4441C97.6878 53.401 97.7153 53.363 97.7302 53.3415C97.7634 53.2938 97.7892 53.2483 97.809 53.209L96.0234 52.3081ZM139.9 53.2243C139.891 53.208 139.848 53.123 139.82 53.0047C139.811 52.9707 139.762 52.7761 139.822 52.5352C139.857 52.3946 139.944 52.1793 140.156 52.004C140.377 51.8209 140.626 51.7713 140.813 51.7752L140.772 53.7747C140.959 53.7786 141.208 53.729 141.43 53.5458C141.642 53.3705 141.729 53.1552 141.764 53.0145C141.823 52.7734 141.774 52.5786 141.766 52.5443C141.738 52.4254 141.693 52.3394 141.685 52.322L139.9 53.2243ZM140.004 53.3875C139.995 53.3761 139.982 53.3596 139.968 53.3385C139.96 53.3279 139.951 53.314 139.94 53.2971C139.931 53.2817 139.916 53.2561 139.899 53.2229L141.685 52.3234C141.635 52.2228 141.577 52.151 141.559 52.1297L140.004 53.3875ZM140.811 51.7751C141.049 51.7795 141.219 51.8684 141.271 51.8971C141.344 51.9365 141.396 51.9766 141.423 51.9986C141.478 52.0438 141.517 52.0851 141.533 52.1036C141.571 52.1453 141.597 52.1812 141.61 52.2C141.639 52.2423 141.66 52.2797 141.675 52.3082L139.889 53.209C139.909 53.2483 139.935 53.2939 139.968 53.3417C139.983 53.3632 140.01 53.4011 140.049 53.4442C140.067 53.4634 140.105 53.5052 140.161 53.5508C140.189 53.573 140.241 53.6132 140.313 53.6527C140.366 53.6814 140.536 53.7704 140.774 53.7748L140.811 51.7751ZM141.538 151.012H141.542V149.012H141.538V151.012ZM142.332 149.398L139.507 145.766L137.928 146.994L140.753 150.626L142.332 149.398ZM96.3492 149.012H96.3447V151.012H96.3492V149.012ZM97.134 150.626L99.9586 146.994L98.3799 145.766L95.5553 149.398L97.134 150.626Z" fill="#3E4244"/>
<circle cx="118.942" cy="74.1523" r="6.26318" fill="#D9D9D9" stroke="#3E4244" stroke-width="2"/>
<path d="M84.1508 144.745C86.6817 127.872 103.03 125.163 107.651 133.745C109.302 136.812 108.838 140.882 107.415 144.745C106.702 146.681 105.747 148.565 104.697 150.245H134.467C132.532 148.652 130.657 146.753 129.178 144.745C126.454 141.044 125.077 136.97 127.151 133.745C130.395 128.698 144.684 127.69 150.036 138.745C158.023 155.245 149.085 164.745 139.34 167.745C139.811 172.006 140.911 177.516 142.906 183.245C144.744 188.526 149.019 196.264 150.036 200.745C151.766 208.374 140.406 212.745 128.906 199.245C124.069 193.567 120.133 191.971 116.906 191.927C116.906 193.273 112.326 198.54 110.036 201.005C102.766 208.857 93.9877 207.883 90.4056 203.505C85.9056 198.005 95.1401 190.745 97.5357 184.245C100.385 176.513 99.6301 171.311 99.1506 166.245C93.8378 167.066 86.1172 158.775 84.3635 150.245C83.9826 148.392 83.8831 146.529 84.1508 144.745Z" fill="#FFFFFA"/>
<path d="M140.906 154.245C137.4 152.896 132.367 149.076 129.178 144.745C126.454 141.044 125.077 136.97 127.151 133.745C130.395 128.698 144.684 127.69 150.036 138.745C158.023 155.245 149.085 164.745 139.34 167.745M100.651 155.245C101.963 154.078 103.403 152.316 104.697 150.245M99.0357 160.745C99.0357 162.634 98.979 164.431 99.1506 166.245M109.762 193.745C111.659 193.112 113.994 191.887 116.906 191.927M116.906 191.927C120.133 191.971 124.069 193.567 128.906 199.245C140.406 212.745 151.766 208.374 150.036 200.745C149.019 196.264 144.744 188.526 142.906 183.245C139.598 173.745 138.75 164.845 139.15 161.245M116.906 191.927C116.906 193.273 112.326 198.54 110.036 201.005C102.766 208.857 93.9877 207.883 90.4056 203.505C85.9056 198.005 95.1401 190.745 97.5357 184.245C100.385 176.513 99.6301 171.311 99.1506 166.245M99.1506 166.245C93.8378 167.066 86.1172 158.775 84.3635 150.245C83.9826 148.392 83.8831 146.529 84.1508 144.745C86.6817 127.872 103.03 125.163 107.651 133.745C109.302 136.812 108.838 140.882 107.415 144.745C106.702 146.681 105.747 148.565 104.697 150.245M104.697 150.245H134.467" stroke="#3E4244" stroke-width="3" stroke-linecap="round" stroke-linejoin="round"/>
</svg>
