<svg width="240" height="240" viewBox="0 0 240 240" fill="none" xmlns="http://www.w3.org/2000/svg">
<ellipse opacity="0.5" cx="52" cy="7.5" rx="52" ry="7.5" transform="matrix(-1 0 0 1 164 174)" fill="#3E4244"/>
<path d="M65.0056 95C64.6056 117.8 86.1128 128.333 96.7794 130.5C88.7794 129.7 81.8211 136 78.2795 141C73.6753 147.5 79.5056 154.5 84.0056 151C85.6454 149.725 87.789 148.532 90.0351 147.5C90.5351 153 83.9349 169 82.0056 175.5C79.7794 183 90.5056 191.5 102.006 178C108.531 170.339 113.988 168.096 118.036 167.915C118.279 171 118.006 172.5 121.506 176.5C125.506 180.5 133.506 180.5 137.506 176.5C142.726 171.28 136.006 161 134.506 159C133.583 157.77 133.193 148.78 133.061 141.431C143.061 143.431 149.779 143 162.279 139C174.779 135 170.006 122.5 158.006 127C148.406 130.6 136.672 129.5 132.006 128.5C146.136 127 165.67 118.5 164.006 94.5C161.836 63.2318 134.506 51 113.006 51C91.5056 51 65.5056 66.5 65.0056 95Z" fill="#FFFFFA"/>
<path d="M133.061 141.431C143.061 143.431 149.779 143 162.279 139C174.779 135 170.006 122.5 158.006 127C148.406 130.6 136.672 129.5 132.006 128.5C146.136 127 165.67 118.5 164.006 94.5C161.836 63.2318 134.506 51 113.006 51C91.5056 51 65.5056 66.5 65.0056 95C64.6056 117.8 86.1128 128.333 96.7794 130.5C88.7794 129.7 81.8211 136 78.2795 141C73.6753 147.5 79.5056 154.5 84.0056 151C88.4708 147.527 96.6723 144.667 100.506 144M133.006 135.5C133.006 142.667 133.306 157.4 134.506 159C136.006 161 142.726 171.28 137.506 176.5C133.506 180.5 125.506 180.5 121.506 176.5C118.006 172.5 118.279 171 118.036 167.915M122.279 168.5C118.279 167.167 111.206 167.2 102.006 178C90.5056 191.5 79.7794 183 82.0056 175.5C83.9349 169 90.5351 153 90.0351 147.5" stroke="#3E4244" stroke-width="3" stroke-linecap="round" stroke-linejoin="round"/>
<ellipse cx="4.5" cy="5.5" rx="4.5" ry="5.5" transform="matrix(-1 0 0 1 149.636 96)" fill="#3E4244"/>
<ellipse cx="4.5" cy="5.5" rx="4.5" ry="5.5" transform="matrix(-1 0 0 1 120.636 96)" fill="#3E4244"/>
<ellipse cx="130.759" cy="113.617" rx="5" ry="6" transform="rotate(4.18585 130.759 113.617)" fill="#3E4244"/>
<path d="M158.263 118.487H168.022H171.86L165.061 130L162.795 126.162L158.263 118.487Z" fill="#7CC6F8"/>
<path d="M168.022 118.487H158.263L162.795 126.162L168.022 118.487Z" fill="#6DB5F6"/>
<path d="M165.061 111.359L171.64 117.938H158.482L165.061 111.359Z" fill="#7CC6F8"/>
<path d="M171.64 117.938L165.061 111.359L167.912 117.938H171.64Z" fill="#6DB5F6"/>
<path d="M165.829 111.359H172.079V117.719L165.829 111.359Z" fill="#54A7EB"/>
<path d="M158.153 111.359H164.403L158.153 117.609V111.359Z" fill="#73BDF1"/>
<path d="M158.153 117.609L164.403 111.359L158.153 113.991V117.609Z" fill="#54A8EC"/>
<path d="M153.219 118.487H157.715L163.965 129.013L153.219 118.487Z" fill="#54A7EA"/>
<path d="M163.965 129.013L157.715 118.487H155.467L163.965 129.013Z" fill="#4B91EA"/>
<path d="M157.567 111.908V117.993H153L157.567 111.908Z" fill="#54A7EA"/>
<path d="M157.567 117.993V111.908L155.283 117.993H157.567Z" fill="#4B91EA"/>
<path d="M172.408 118.487H177.013L166.158 129.123L172.408 118.487Z" fill="#9BD6FA"/>
<path d="M166.158 129.123L177.013 118.487H175.478L166.158 129.123Z" fill="#77B4EF"/>
<path d="M172.627 111.798L177.123 117.939H172.627V111.798Z" fill="#9BD6FA"/>
<path d="M177.123 117.939L172.627 111.798L175.587 117.939H177.123Z" fill="#77B4EF"/>
<path d="M168.633 105.747L170.531 108.008M176.111 104.603L174.975 107.328M172.294 104.3L172.725 107.118M179.144 107.023L176.958 108.689M180.575 110.576L177.973 110.974" stroke="#FAE699" stroke-width="2" stroke-linecap="round"/>
<path d="M158.492 110.5C157.871 110.5 157.286 110.788 156.907 111.281L157.683 111.878L156.907 111.281L152.743 116.694C152.13 117.491 152.203 118.618 152.914 119.328L163.6 130.014C164.37 130.784 165.614 130.797 166.399 130.043L177.546 119.342C178.282 118.636 178.368 117.488 177.746 116.68L173.593 111.281C173.214 110.788 172.629 110.5 172.008 110.5H158.492Z" stroke="#3E4244" stroke-width="2"/>
</svg>
