<svg width="240" height="240" viewBox="0 0 240 240" fill="none" xmlns="http://www.w3.org/2000/svg">
<ellipse opacity="0.5" cx="52" cy="7.5" rx="52" ry="7.5" transform="matrix(-1 0 0 1 165 186)" fill="#3E4244"/>
<path d="M62.0062 108C61.6062 130.8 83.1134 141.333 93.7801 143.5C85.7801 142.7 79.0063 147 73.5005 156C69.5005 163.5 80.5005 163.5 83.5956 175.129C81.8484 180.3 79.9123 185.448 79.0063 188.5C76.7801 196 87.5062 204.5 99.0062 191C105.532 183.339 110.988 181.096 115.036 180.915C115.28 184 115.006 185.5 118.506 189.5C122.506 193.5 130.506 193.5 134.506 189.5C139.726 184.28 133.006 174 131.506 172C130.584 170.77 130.193 161.78 130.062 154.431C140.062 156.431 139.445 156.778 151 163C157.5 166.5 162.5 155.931 155 151.5C146 146.5 133.673 142.5 129.006 141.5C143.136 140 162.671 131.5 161.006 107.5C158.837 76.2318 131.506 64 110.006 64C88.5062 64 62.5062 79.5 62.0062 108Z" fill="#FFFFFA"/>
<path d="M130.062 154.431C140.062 156.431 139.445 156.778 151 163C157.5 166.5 162.5 155.931 155 151.5C146 146.5 133.673 142.5 129.006 141.5C143.136 140 162.671 131.5 161.006 107.5C158.837 76.2318 131.506 64 110.006 64C88.5062 64 62.5062 79.5 62.0062 108C61.6062 130.8 83.1134 141.333 93.7801 143.5C85.7801 142.7 79.0063 147 73.5005 156C69.5005 163.5 80.5005 163.5 83.5956 175.129M130.006 148.5C130.006 155.667 130.306 170.4 131.506 172C133.006 174 139.726 184.28 134.506 189.5C130.506 193.5 122.506 193.5 118.506 189.5C115.006 185.5 115.28 184 115.036 180.915M119.28 181.5C115.28 180.167 108.206 180.2 99.0062 191C87.5062 204.5 76.7801 196 79.0063 188.5C79.9123 185.448 81.8484 180.3 83.5956 175.129M97.5063 157C93.7801 157.5 94.0005 157 89.5005 161.5C88.0005 163 92.0005 164 94.5005 167C96.1868 169.024 95.5005 172 93.0005 174.5C90.9939 176.507 87.6758 176.622 83.5956 175.129" stroke="#3E4244" stroke-width="3" stroke-linecap="round" stroke-linejoin="round"/>
<ellipse cx="4.5" cy="5.5" rx="4.5" ry="5.5" transform="matrix(-0.992208 -0.124595 -0.124595 0.992208 147.301 111.122)" fill="#3E4244"/>
<ellipse cx="4.5" cy="5.5" rx="4.5" ry="5.5" transform="matrix(-0.960347 -0.278807 -0.278807 0.960347 118.991 110.473)" fill="#3E4244"/>
<path d="M74.5094 55.0407L69.728 72.9121L160.822 85.6731C164.496 74.9949 164.333 71.1715 163.54 66.9416C162.489 61.3384 159.428 58.2039 152.445 58.6856C148.376 58.9664 145.613 61.3622 139.751 63.5708C138.123 64.1843 133.855 65.2807 129.809 64.7579C124.752 64.1044 117.528 61.0944 99.2092 49.8284C84.5542 40.8156 76.6364 49.5479 74.5094 55.0407Z" fill="#E5A25A" stroke="#3E4244" stroke-width="3"/>
<path d="M69.7282 72.912L160.822 85.673C161.984 82.2984 162.761 79.6084 163.257 77.3738L71.7024 65.5331L69.7282 72.912Z" fill="#CD7900" stroke="#3E4244" stroke-width="3"/>
<path d="M54.3158 75.2688C54.5699 73.4587 56.2433 72.1973 58.0534 72.4514L71.3281 74.315L162.605 87.1288L171.323 88.3527C173.134 88.6068 174.395 90.2802 174.141 92.0903C173.887 93.9004 172.213 95.1618 170.403 94.9077L57.1332 79.0064C55.3231 78.7523 54.0617 77.0789 54.3158 75.2688Z" fill="#E5A25A" stroke="#3E4244" stroke-width="3"/>
<path d="M122.5 123.5C124.5 122 129.5 119.901 133.5 123.501" stroke="#3E4244" stroke-width="3" stroke-linecap="round"/>
<path d="M67.9417 151.777L75.5559 140.365C76.4592 139.012 78.277 138.625 79.6531 139.494L96.2627 149.981C97.1757 150.557 98.3281 150.599 99.28 150.089L101.868 148.704C103.769 147.686 106.092 148.948 106.273 151.098L106.291 151.316C106.376 152.326 106.965 153.224 107.857 153.705L118.866 159.64C120.016 160.26 121.435 160.065 122.374 159.157L127.923 153.794C128.227 153.501 128.326 153.055 128.176 152.661C127.875 151.869 128.585 151.063 129.409 151.261L130.315 151.478C131.195 151.69 132.067 151.104 132.205 150.21L133.091 144.449C133.375 142.6 135.265 141.459 137.034 142.069L152.279 147.323C153.806 147.849 154.642 149.488 154.172 151.032L150.65 162.607C150.144 164.268 148.339 165.155 146.715 164.539L141.504 162.561C139.502 161.801 137.371 163.323 137.441 165.464L137.687 173.016C137.74 174.651 136.474 176.028 134.84 176.11L82.0739 178.774C80.1792 178.87 78.6726 177.205 78.9563 175.329L79.3781 172.541C79.5261 171.563 79.1856 170.571 78.382 169.995C75.641 168.029 70.8978 165.539 68.262 162.284C65.1652 158.459 66.8279 153.286 67.9417 151.777Z" fill="#E5A259" stroke="#3E4244" stroke-width="3"/>
<path d="M90.1755 158.58C91.5167 161.417 92.3333 167.992 84.8696 171.596" stroke="#CD7900" stroke-width="4" stroke-linecap="round"/>
<path d="M116.252 156.012L117.501 147.168C115.79 144.552 116.794 143.501 117.653 143.263L121.386 143.388C123.029 144.864 122.094 147.054 121.521 147.213L124.304 157.258L121.938 159.845L116.252 156.012Z" fill="#3E4244"/>
<path d="M83.1471 128.127L110.595 141.261C110.94 141.426 111.231 141.687 111.432 142.013L117.91 152.478C118.752 153.839 120.771 153.709 121.432 152.252L126.318 141.487C126.524 141.032 126.894 140.671 127.353 140.474L137.495 136.142C138.371 135.768 139.388 136.063 139.928 136.847L142.795 141.01C143.402 141.89 143.208 143.093 142.356 143.738L136.454 148.21C135.922 148.612 135.166 148.522 134.745 148.004C133.924 146.995 132.302 147.773 132.573 149.045L132.782 150.024C132.896 150.557 132.708 151.109 132.293 151.461L121.28 160.823C120.673 161.339 119.817 161.446 119.102 161.094L104.471 153.901C103.86 153.6 103.548 152.909 103.726 152.252C104.159 150.65 101.967 149.726 101.127 151.157C100.741 151.814 99.9062 152.051 99.2332 151.694L74.5579 138.604C73.3761 137.977 73.1311 136.389 74.069 135.435L80.8576 128.529C81.4566 127.92 82.3764 127.759 83.1471 128.127Z" fill="#F9B163" stroke="#3E4244" stroke-width="3" stroke-linecap="round"/>
<path opacity="0.64" d="M175.822 142.186C173.648 145.66 170.72 148.06 167.869 149.212C165.014 150.366 162.471 150.206 160.621 149.048C158.771 147.89 157.515 145.673 157.304 142.601C157.094 139.533 157.972 135.85 160.145 132.377C162.319 128.903 165.247 126.503 168.098 125.351C170.953 124.197 173.496 124.357 175.346 125.515C177.196 126.672 178.452 128.89 178.663 131.962C178.874 135.03 177.996 138.712 175.822 142.186Z" fill="#A4E3F2" stroke="#3E4244" stroke-width="6"/>
<path d="M178.158 143.305C175.934 146.859 172.927 149.334 169.968 150.529C167.006 151.727 164.287 151.589 162.267 150.326C160.248 149.062 158.936 146.677 158.717 143.489C158.499 140.305 159.409 136.519 161.633 132.965C163.856 129.412 166.863 126.937 169.823 125.741C172.785 124.544 175.504 124.681 177.523 125.945C179.543 127.209 180.855 129.594 181.073 132.781C181.292 135.966 180.381 139.752 178.158 143.305Z" stroke="#3E4244" stroke-width="5"/>
<path d="M159.436 150.362L149.635 162.033" stroke="#3E4244" stroke-width="6" stroke-linecap="round"/>
<rect x="109.587" y="104" width="12" height="6" transform="rotate(15.3392 109.587 104)" fill="#FEFEFE"/>
</svg>
