<svg width="240" height="240" viewBox="0 0 240 240" fill="none" xmlns="http://www.w3.org/2000/svg">
<ellipse opacity="0.5" cx="185.485" cy="181.5" rx="49.9215" ry="7.5" fill="#3E4244"/>
<path d="M222.571 96C222.955 118.8 202.308 129.333 192.067 131.5C199.747 130.7 206.428 137 209.828 142C214.248 148.5 208.651 155.5 204.33 152C202.756 150.725 200.698 149.532 198.542 148.5C198.062 154 204.398 170 206.251 176.5C208.388 184 198.09 192.5 187.05 179C180.785 171.339 175.547 169.096 171.661 168.915C171.427 172 171.69 173.5 168.329 177.5C164.489 181.5 156.809 181.5 152.969 177.5C147.957 172.28 154.409 162 155.849 160C156.735 158.77 157.11 149.78 157.236 142.431C147.635 144.431 145.164 147 132.683 147C120.084 147 121.415 133.085 133.643 134.5C142.284 135.5 153.769 130.5 158.249 129.5C144.684 128 125.93 119.5 127.528 95.5C129.611 64.2318 155.849 52 176.49 52C197.13 52 222.091 67.5 222.571 96Z" fill="#FFFFFA"/>
<path d="M157.236 142.431C147.635 144.431 145.164 147 132.683 147C120.084 147 121.415 133.085 133.643 134.5C142.284 135.5 153.769 130.5 158.249 129.5C144.684 128 125.93 119.5 127.528 95.5C129.611 64.2318 155.849 52 176.49 52C197.13 52 222.091 67.5 222.571 96C222.955 118.8 202.308 129.333 192.067 131.5C199.747 130.7 206.428 137 209.828 142C214.248 148.5 208.651 155.5 204.33 152C200.044 148.527 192.17 145.667 188.49 145M157.289 136.5C157.289 143.667 157.001 158.4 155.849 160C154.409 162 147.957 172.28 152.969 177.5C156.809 181.5 164.489 181.5 168.329 177.5C171.69 173.5 171.427 172 171.661 168.915M167.587 169.5C171.427 168.167 178.218 168.2 187.05 179C198.09 192.5 208.388 184 206.251 176.5C204.398 170 198.062 154 198.542 148.5" stroke="#3E4244" stroke-width="3" stroke-linecap="round" stroke-linejoin="round"/>
<ellipse cx="145.644" cy="102.5" rx="4.32013" ry="5.5" fill="#3E4244"/>
<ellipse cx="173.485" cy="102.5" rx="4.32013" ry="5.5" fill="#3E4244"/>
<ellipse cx="4.32527" cy="5.49396" rx="4.32527" ry="5.49396" transform="matrix(0.984722 -0.174134 0.160859 0.986977 153.941 109.831)" fill="#3E4244"/>
<path d="M128.886 120.478C129.832 122.294 130.449 124.335 130.582 126.339C130.815 129.861 129.567 133.234 125.951 135.277C120.233 138.509 113.525 135.444 110.947 130.494C109.646 127.995 108.991 124.756 109.394 121.755C109.793 118.78 111.215 116.098 114.025 114.51C116.836 112.922 119.854 113.126 122.554 114.393C125.272 115.668 127.593 117.994 128.886 120.478Z" fill="#92A5B1" stroke="#3E4244" stroke-width="2"/>
<path d="M122.833 135.121C122.403 134.192 122.745 133.087 123.625 132.564L123.902 132.399C124.776 131.878 125.902 132.097 126.517 132.907L133.166 141.655C133.901 142.622 133.611 144.016 132.552 144.61L130.203 145.927C129.186 146.498 127.899 146.081 127.409 145.022L122.833 135.121Z" fill="#D9D9D9" stroke="#3E4244" stroke-width="2" stroke-linejoin="round"/>
<ellipse opacity="0.5" cx="49.9215" cy="7.5" rx="49.9215" ry="7.5" transform="matrix(-1 0 0 1 104.843 173)" fill="#3E4244"/>
<path d="M99.7734 118.89C98.4611 120.436 97.4203 122.276 96.8585 124.195C95.8724 127.564 96.3529 131.149 99.4447 133.998C104.333 138.502 111.53 137.072 115.099 132.87C116.903 130.746 118.24 127.748 118.496 124.732C118.751 121.742 117.946 118.789 115.544 116.576C113.141 114.361 110.151 113.854 107.249 114.454C104.326 115.059 101.567 116.778 99.7734 118.89Z" fill="#CC8983" stroke="#3E4244" stroke-width="2"/>
<path d="M102.506 134.591C103.128 133.783 103.034 132.621 102.289 131.903L102.052 131.675C101.315 130.965 100.178 130.916 99.4047 131.559L91.038 138.52C90.1101 139.292 90.0894 140.724 90.9942 141.553L93.0007 143.39C93.8653 144.182 95.2036 144.076 95.9085 143.16L102.506 134.591Z" fill="#D9D9D9" stroke="#3E4244" stroke-width="2" stroke-linejoin="round"/>
<path d="M18.7956 96C18.4116 118.8 36.6811 132 51.5615 132C46.7614 133.5 44.8413 135 44.8413 139.5C41.2743 146 35.7093 159.2 42.3281 160C39.8753 166.378 36.9973 172.683 35.1161 176.5C32.9789 184 43.2764 192.5 54.3167 179C60.5817 171.339 65.8196 169.096 69.7059 168.915C69.94 172 69.6771 173.5 73.0372 177.5C76.8773 181.5 84.5575 181.5 88.3977 177.5C93.4091 172.28 86.9576 162 85.5176 160C83.9592 157.68 81.1304 155.716 82.2824 149.5C88.9462 148.318 89.9445 148.006 94.6309 146.541L94.7628 146.5C101.963 144.25 102.923 136.5 99.5629 133.5C96.7747 131.011 92.0522 132.979 84.2027 134.854C84.2792 134.089 84.6494 132.152 85.5176 130.529C98.9487 126.49 115.217 116.204 113.838 95.5C111.756 64.2318 85.5175 52 64.8769 52C44.2363 52 19.2756 67.5 18.7956 96Z" fill="#FFFFFA"/>
<path d="M79.4024 132C81.3138 131.657 83.3798 131.172 85.5176 130.529M69.7059 168.915C69.94 172 69.6771 173.5 73.0372 177.5C76.8773 181.5 84.5575 181.5 88.3977 177.5C93.4091 172.28 86.9576 162 85.5176 160C83.9592 157.68 81.1304 155.716 82.2824 149.5M73.7801 169.5C69.94 168.167 63.1489 168.2 54.3167 179C43.2764 192.5 32.9789 184 35.1161 176.5C36.9973 172.683 39.8753 166.378 42.3281 160M67.402 133.5C71.2421 135.5 73.7801 136.5 81.3224 135.5C82.3264 135.291 83.2859 135.073 84.2027 134.854M82.2824 149.5C89.0082 148.307 89.9626 148 94.7628 146.5C101.963 144.25 102.923 136.5 99.5629 133.5C96.7747 131.011 92.0522 132.979 84.2027 134.854M82.2824 149.5C72.292 151.272 61.1618 150 54.9216 149C51.1001 148.388 48.2014 146.5 47.2414 145.5M47.2414 145.5C45.3213 144.167 44.8413 140.5 44.8413 139.5M47.2414 145.5C46.2814 149.5 44.6943 153.847 42.3281 160M44.8413 139.5C44.8413 135 46.7614 133.5 51.5615 132C36.6811 132 18.4116 118.8 18.7956 96C19.2756 67.5 44.2363 52 64.8769 52C85.5175 52 111.756 64.2318 113.838 95.5C115.217 116.205 98.9487 126.49 85.5176 130.529M44.8413 139.5C41.2743 146 35.7093 159.2 42.3281 160M84.2027 134.854C84.2792 134.089 84.6494 132.152 85.5176 130.529" stroke="#3E4244" stroke-width="3" stroke-linecap="round" stroke-linejoin="round"/>
<ellipse cx="4.32013" cy="5.5" rx="4.32013" ry="5.5" transform="matrix(-1 0 0 1 100.043 97)" fill="#3E4244"/>
<path d="M86.1226 105.5C85.6425 110 78.9223 110.5 77.4823 106" stroke="#3E4244" stroke-width="3" stroke-linecap="round"/>
<ellipse cx="4.32013" cy="5.5" rx="4.32013" ry="5.5" transform="matrix(-1 0 0 1 72.2021 97)" fill="#3E4244"/>
<path d="M111.034 119.177C109.448 120.244 105.798 123.641 103.883 128.691" stroke="#FAE699" stroke-width="2" stroke-linecap="round"/>
<path d="M115.403 111.5C115.723 108.5 117.035 101.6 119.723 98" stroke="#FAE699" stroke-width="2" stroke-linecap="round"/>
<path d="M120.204 118.838C123.289 119.212 130.158 120.626 132.947 123.288" stroke="#FAE699" stroke-width="2" stroke-linecap="round"/>
<g opacity="0.38" filter="url(#filter0_f_1562_5502)">
<path d="M185.485 138.5C172.429 138.1 156.045 133.667 149.964 131C152.628 131.102 154.707 129.562 157.165 129.5C212.465 128.104 217.166 88.5 207.566 64C213.806 69 220.937 78.4687 222.446 84.5C228.785 109.83 209.892 126.558 197.486 131C201.326 131 209.486 139 211.406 143.5C212.942 147.1 208.526 153.5 206.126 153.5C207.086 151.5 201.806 139 185.485 138.5Z" fill="#3E4244"/>
</g>
<g opacity="0.38" filter="url(#filter1_f_1562_5502)">
<path d="M66.9215 138.5C79.9779 138.1 79.5619 135.667 85.6421 133C82.9785 133.102 86.4857 129.562 84.0279 129.5C28.7278 128.104 24.0261 88.5 33.6264 64C27.3862 69 20.2552 78.4687 18.746 84.5C12.4077 109.83 30.9205 130 52.0411 133C45.0009 132 42.4408 145 40.5208 149.5C38.9847 153.1 42.9208 151 45.3209 151C48.681 145 50.6011 139 66.9215 138.5Z" fill="#3E4244"/>
</g>
<defs>
<filter id="filter0_f_1562_5502" x="146.664" y="60.7" width="80.348" height="96.1" filterUnits="userSpaceOnUse" color-interpolation-filters="sRGB">
<feFlood flood-opacity="0" result="BackgroundImageFix"/>
<feBlend mode="normal" in="SourceGraphic" in2="BackgroundImageFix" result="shape"/>
<feGaussianBlur stdDeviation="1.65" result="effect1_foregroundBlur_1562_5502"/>
</filter>
<filter id="filter1_f_1562_5502" x="14.1829" y="60.7" width="74.7592" height="94.2089" filterUnits="userSpaceOnUse" color-interpolation-filters="sRGB">
<feFlood flood-opacity="0" result="BackgroundImageFix"/>
<feBlend mode="normal" in="SourceGraphic" in2="BackgroundImageFix" result="shape"/>
<feGaussianBlur stdDeviation="1.65" result="effect1_foregroundBlur_1562_5502"/>
</filter>
</defs>
</svg>
