<svg width="720" height="720" viewBox="0 0 720 720" fill="none" xmlns="http://www.w3.org/2000/svg">
<ellipse opacity="0.5" cx="360" cy="538.5" rx="156" ry="22.5" fill="#3E4244"/>
<path d="M364.498 197.999C430.889 196.499 490.941 207.009 488.998 292.5C487.498 358.5 445.498 373.5 418.498 381C427.498 412.5 466.353 423.001 451.889 445.5C445.498 455.442 436.998 465.12 427.498 471.18C428.485 474.294 429.493 477.234 430.498 480C436.499 496.5 448.84 519.056 451.889 532.5C457.08 555.389 422.998 568.5 388.498 528C373.99 510.967 362.18 506.177 352.498 506.046C352.498 510.083 338.759 525.884 331.889 533.28C310.081 556.836 283.745 553.915 272.998 540.78C259.498 524.28 287.202 502.5 294.389 483C296.478 477.331 297.531 474.367 298.499 469.5C287.869 465.25 268.832 453 259.498 441C250.165 429 255.388 398.853 294.389 386.853C232.498 364.5 222.68 330 226.498 288C235.498 189 298.108 199.499 364.498 197.999Z" fill="#FFFFFA"/>
<path d="M298.889 412.5C298.889 418.168 298.719 423.558 299.234 429C300.321 440.485 301.49 454.452 298.499 469.5M331.067 511.5C336.759 509.602 343.763 505.928 352.498 506.046M352.498 506.046C362.18 506.177 373.99 510.967 388.498 528C422.998 568.5 457.08 555.389 451.889 532.5C448.84 519.056 436.499 496.5 430.498 480C429.493 477.234 428.485 474.294 427.498 471.18M352.498 506.046C352.498 510.083 338.759 525.884 331.889 533.28C310.081 556.836 283.745 553.915 272.998 540.78C259.498 524.28 287.202 502.5 294.389 483C296.478 477.331 297.531 474.367 298.499 469.5M298.499 469.5C287.869 465.25 268.832 453 259.498 441C250.165 429 255.388 398.853 294.389 386.853C232.498 364.5 222.68 330 226.498 288C235.498 189 298.108 199.499 364.498 197.999C430.889 196.499 490.942 207.009 488.998 292.5C487.498 358.5 445.498 373.5 418.498 381C427.498 412.5 466.353 423.001 451.889 445.5C445.498 455.442 436.998 465.12 427.498 471.18M416.998 412.5C418.246 436.2 422.625 455.806 427.498 471.18" stroke="#3E4244" stroke-width="9" stroke-linecap="round" stroke-linejoin="round"/>
<ellipse cx="13.5" cy="16.5" rx="13.5" ry="16.5" transform="matrix(-0.960347 -0.278807 -0.278807 0.960347 335.127 298.529)" fill="#3E4244"/>
<ellipse cx="401.562" cy="310.611" rx="13.5" ry="16.5" transform="rotate(-16.189 401.562 310.611)" fill="#3E4244"/>
<path d="M341.997 341.961C347.997 337.461 362.997 331.163 374.997 341.963" stroke="#3E4244" stroke-width="9" stroke-linecap="round"/>
<rect x="308.045" y="277.617" width="38.7077" height="23.272" transform="rotate(19.1924 308.045 277.617)" fill="#FFFFFA"/>
<rect width="38.7077" height="23.272" transform="matrix(-0.94442 0.328741 0.328741 0.94442 414.554 276)" fill="#FFFFFA"/>
<path d="M451.102 483H280.898C279.094 483 277.697 481.418 277.931 479.629C282.236 446.642 288.074 421.936 289.37 393.357C289.451 391.569 291.051 390.226 292.823 390.485L360.783 400.395C361.254 400.464 361.735 400.42 362.186 400.266L421.949 379.859C422.627 379.627 423.371 379.647 424.035 379.916C453.517 391.847 475.501 406.742 475.501 427.5C475.501 447.402 460.68 452.035 452.747 457.999C451.946 458.6 451.575 459.596 451.699 460.59L454.079 479.628C454.303 481.418 452.907 483 451.102 483Z" fill="#1D91CE" stroke="#3E4244" stroke-width="9" stroke-linecap="round"/>
<path d="M373.492 412.217L358.5 394.5L346.377 412.012C345.573 413.172 344.069 413.616 342.765 413.077L279.737 387.043C277.876 386.275 277.286 383.929 278.56 382.371L288.145 370.656C288.956 369.665 290.306 369.298 291.507 369.742L358.5 394.5L422.781 369.664C423.836 369.257 425.029 369.476 425.869 370.233L436.195 379.526C437.776 380.948 437.415 383.518 435.505 384.451L377.098 412.975C375.864 413.578 374.379 413.266 373.492 412.217Z" fill="#044C7E"/>
<path d="M358.5 394.5L373.492 412.217C374.379 413.266 375.864 413.578 377.098 412.975L435.505 384.451C437.415 383.518 437.776 380.948 436.195 379.526L425.869 370.233C425.029 369.476 423.836 369.257 422.781 369.664L358.5 394.5ZM358.5 394.5L346.377 412.012C345.573 413.172 344.069 413.616 342.765 413.077L279.737 387.043C277.876 386.275 277.286 383.929 278.56 382.371L288.145 370.656C288.956 369.665 290.306 369.298 291.507 369.742L358.5 394.5Z" stroke="#3E4244" stroke-width="9" stroke-linecap="round"/>
<path d="M418.652 433.637C417.811 427.695 418.414 453.365 431.137 457.624" stroke="#3E4244" stroke-width="9" stroke-linecap="round"/>
<rect x="225" y="384" width="117" height="78" rx="6" fill="#9ED8F4" stroke="#3E4244" stroke-width="9"/>
<path d="M287.97 443.005C289.393 439.219 291.568 433.649 293.195 430.451C293.664 429.529 294.628 429 295.663 429H315.838C317.129 429 318.275 429.826 318.684 431.051L322.684 443.051C323.331 444.994 321.885 447 319.838 447H290.757C288.682 447 287.241 444.947 287.97 443.005Z" fill="#FFFFF9" stroke="#3E4244" stroke-width="6"/>
<circle cx="306" cy="417" r="18" fill="#FFFFF9" stroke="#3E4244" stroke-width="6"/>
<path d="M241.5 411H276" stroke="#3E4244" stroke-width="6" stroke-linecap="round"/>
<path d="M241.5 424.5H276" stroke="#3E4244" stroke-width="6" stroke-linecap="round"/>
<path d="M241.5 436.5H276" stroke="#3E4244" stroke-width="6" stroke-linecap="round"/>
<path d="M285 394.5C291.629 394.5 297.818 392.588 302.465 389.268C307.103 385.955 310.5 380.973 310.5 375C310.5 369.027 307.103 364.045 302.465 360.732C297.818 357.412 291.629 355.5 285 355.5C278.371 355.5 272.182 357.412 267.535 360.732C262.897 364.045 259.5 369.027 259.5 375C259.5 380.973 262.897 385.955 267.535 389.268C272.182 392.588 278.371 394.5 285 394.5Z" fill="#FFFFF9" stroke="#3E4244" stroke-width="9"/>
<path d="M222.585 179.931L216.058 235.046L492.006 233.842C498.332 200.56 496.206 189.278 492.036 177.059C486.512 160.873 476.08 152.88 455.552 157.307C443.589 159.887 436.415 168.186 419.958 177.259C415.387 179.78 403.185 184.867 390.949 185.051C375.653 185.28 352.912 179.444 293.686 153.855C246.305 133.384 226.543 162.709 222.585 179.931Z" fill="#1D91CE" stroke="#3E4244" stroke-width="9"/>
<path d="M216.058 235.045L492.007 233.841C494.006 223.323 495.161 215.002 495.674 208.155L218.753 212.289L216.058 235.045Z" fill="#044C7E" stroke="#3E4244" stroke-width="9"/>
<path d="M171.308 248.657C171.285 243.173 175.713 238.71 181.196 238.687L221.41 238.524L497.924 237.398L524.335 237.291C529.819 237.268 534.282 241.696 534.305 247.179C534.327 252.663 529.9 257.126 524.416 257.148L181.277 258.545C175.793 258.567 171.33 254.14 171.308 248.657Z" fill="#1D91CE" stroke="#3E4244" stroke-width="9"/>
<path d="M373.629 247.069L375.393 244.642L373.629 247.069C376.686 249.29 380.798 246.302 379.631 242.709L374.425 226.687L388.054 216.785C391.111 214.564 389.54 209.729 385.762 209.729H368.915L363.709 193.707C362.542 190.114 357.458 190.114 356.291 193.707L351.085 209.729H334.238C330.46 209.729 328.889 214.564 331.946 216.785L345.575 226.687L340.369 242.709C339.202 246.302 343.314 249.29 346.371 247.069L360 237.167L373.629 247.069Z" fill="#FABC04" stroke="#3E4244" stroke-width="6"/>
</svg>
