<svg width="24" height="24" viewBox="0 0 24 24" fill="none" xmlns="http://www.w3.org/2000/svg">
<mask id="mask0_1561_3207" style="mask-type:alpha" maskUnits="userSpaceOnUse" x="0" y="0" width="24" height="24">
<rect width="24" height="24" fill="#D9D9D9"/>
</mask>
<g mask="url(#mask0_1561_3207)">
<path d="M9.45195 16.1373C7.59942 16.1373 6.03004 15.4942 4.7438 14.208C3.45757 12.9217 2.81445 11.3523 2.81445 9.4998C2.81445 7.64727 3.45757 6.07789 4.7438 4.79165C6.03004 3.50542 7.59942 2.8623 9.45195 2.8623C11.3045 2.8623 12.8739 3.50542 14.1601 4.79165C15.4463 6.07789 16.0895 7.64727 16.0895 9.4998C16.0895 10.2411 15.9768 10.9338 15.7514 11.5778C15.5261 12.2218 15.2213 12.7898 14.8373 13.2819L20.3895 18.84C20.6007 19.0552 20.7063 19.3215 20.7063 19.6387C20.7063 19.9559 20.5987 20.2201 20.3835 20.4313C20.1722 20.6426 19.907 20.7482 19.5878 20.7482C19.2686 20.7482 19.0034 20.6426 18.7922 20.4313L13.246 14.8851C12.75 15.2692 12.1779 15.5739 11.5299 15.7993C10.8819 16.0246 10.1893 16.1373 9.45195 16.1373ZM9.45195 13.8623C10.6661 13.8623 11.6967 13.4388 12.5438 12.5917C13.3909 11.7446 13.8145 10.7139 13.8145 9.4998C13.8145 8.28567 13.3909 7.25505 12.5438 6.40795C11.6967 5.56085 10.6661 5.1373 9.45195 5.1373C8.23782 5.1373 7.2072 5.56085 6.3601 6.40795C5.513 7.25505 5.08945 8.28567 5.08945 9.4998C5.08945 10.7139 5.513 11.7446 6.3601 12.5917C7.2072 13.4388 8.23782 13.8623 9.45195 13.8623Z" fill="white"/>
</g>
</svg>
