<svg width="24" height="24" viewBox="0 0 24 24" fill="none" xmlns="http://www.w3.org/2000/svg">
<g id="Shape=arrow_back">
<mask id="mask0_1561_3290" style="mask-type:alpha" maskUnits="userSpaceOnUse" x="0" y="0" width="24" height="24">
<rect id="Bounding box" width="24" height="24" fill="#D9D9D9"/>
</mask>
<g mask="url(#mask0_1561_3290)">
<path id="arrow_back" d="M9.19981 13.5749L13.1248 17.4999C13.4415 17.8166 13.5998 18.1916 13.5998 18.6249C13.5998 19.0582 13.4415 19.4332 13.1248 19.7499C12.8081 20.0499 12.4331 20.1999 11.9998 20.1999C11.5665 20.1999 11.1915 20.0416 10.8748 19.7249L4.2748 13.1249C4.1248 12.9749 4.00814 12.7999 3.9248 12.5999C3.84147 12.3999 3.7998 12.1999 3.7998 11.9999C3.7998 11.7999 3.84147 11.5999 3.9248 11.3999C4.00814 11.1999 4.1248 11.0249 4.2748 10.8749L10.8998 4.2499C11.2165 3.93324 11.5873 3.7749 12.0123 3.7749C12.4373 3.7749 12.8081 3.93324 13.1248 4.2499C13.4415 4.56657 13.5998 4.94157 13.5998 5.3749C13.5998 5.80824 13.4415 6.18324 13.1248 6.4999L9.19981 10.4249H19.2748C19.7081 10.4249 20.079 10.5791 20.3873 10.8874C20.6956 11.1957 20.8498 11.5666 20.8498 11.9999C20.8498 12.4332 20.6956 12.8041 20.3873 13.1124C20.079 13.4207 19.7081 13.5749 19.2748 13.5749H9.19981Z" fill="white"/>
</g>
</g>
</svg>
