<svg width="24" height="24" viewBox="0 0 24 24" fill="none" xmlns="http://www.w3.org/2000/svg">
<mask id="mask0_1562_3937" style="mask-type:alpha" maskUnits="userSpaceOnUse" x="0" y="0" width="24" height="24">
<rect width="24" height="24" fill="#D9D9D9"/>
</mask>
<g mask="url(#mask0_1562_3937)">
<path d="M9.65064 14.1482H3.36401C2.78439 14.1482 2.28838 13.942 1.87595 13.5296C1.46353 13.1171 1.25732 12.6211 1.25732 12.0415C1.25732 11.4619 1.46353 10.9659 1.87595 10.5534C2.28838 10.141 2.78439 9.93482 3.36401 9.93482H9.65064V3.64819C9.65064 3.06857 9.85685 2.57255 10.2693 2.16013C10.6817 1.74771 11.1777 1.5415 11.7573 1.5415C12.3369 1.5415 12.833 1.74771 13.2454 2.16013C13.6578 2.57255 13.864 3.06857 13.864 3.64819V9.93482H20.1506C20.7303 9.93482 21.2263 10.141 21.6387 10.5534C22.0511 10.9659 22.2573 11.4619 22.2573 12.0415C22.2573 12.6211 22.0511 13.1171 21.6387 13.5296C21.2263 13.942 20.7303 14.1482 20.1506 14.1482H13.864V20.4348C13.864 21.0144 13.6578 21.5105 13.2454 21.9229C12.833 22.3353 12.3369 22.5415 11.7573 22.5415C11.1777 22.5415 10.6817 22.3353 10.2693 21.9229C9.85685 21.5105 9.65064 21.0144 9.65064 20.4348V14.1482Z" fill="white"/>
</g>
</svg>
