<svg width="24" height="24" viewBox="0 0 24 24" fill="none" xmlns="http://www.w3.org/2000/svg">
<mask id="mask0_1561_3208" style="mask-type:alpha" maskUnits="userSpaceOnUse" x="0" y="0" width="24" height="24">
<rect width="24" height="24" fill="#D9D9D9"/>
</mask>
<g mask="url(#mask0_1561_3208)">
<path d="M18.1074 10.791H16.2031C15.9062 10.791 15.6573 10.6906 15.4565 10.4897C15.2556 10.2889 15.1552 10.04 15.1552 9.74315C15.1552 9.44626 15.2556 9.1974 15.4565 8.99657C15.6573 8.79574 15.9062 8.69532 16.2031 8.69532H18.1074V6.79097C18.1074 6.49409 18.2078 6.24523 18.4086 6.0444C18.6095 5.84356 18.8583 5.74315 19.1552 5.74315C19.4521 5.74315 19.701 5.84356 19.9018 6.0444C20.1026 6.24523 20.2031 6.49409 20.2031 6.79097V8.69532H22.1074C22.4043 8.69532 22.6531 8.79574 22.854 8.99657C23.0548 9.1974 23.1552 9.44626 23.1552 9.74315C23.1552 10.04 23.0548 10.2889 22.854 10.4897C22.6531 10.6906 22.4043 10.791 22.1074 10.791H20.2031V12.6953C20.2031 12.9922 20.1026 13.2411 19.9018 13.4419C19.701 13.6427 19.4521 13.7431 19.1552 13.7431C18.8583 13.7431 18.6095 13.6427 18.4086 13.4419C18.2078 13.2411 18.1074 12.9922 18.1074 12.6953V10.791ZM9.0177 11.8986C7.85792 11.8986 6.86744 11.488 6.04625 10.6668C5.22505 9.8456 4.81445 8.8551 4.81445 7.69532C4.81445 6.53554 5.22505 5.54605 6.04625 4.72685C6.86744 3.90765 7.85792 3.49805 9.0177 3.49805C10.1775 3.49805 11.168 3.90765 11.9892 4.72685C12.8104 5.54605 13.221 6.53554 13.221 7.69532C13.221 8.8551 12.8104 9.8456 11.9892 10.6668C11.168 11.488 10.1775 11.8986 9.0177 11.8986ZM0.814453 18.0301V17.2899C0.814453 16.6862 0.970636 16.1313 1.283 15.6252C1.59539 15.1191 2.01039 14.7329 2.52803 14.4665C3.57333 13.9459 4.6372 13.5544 5.71963 13.2921C6.80208 13.0298 7.90144 12.8986 9.0177 12.8986C10.1416 12.8986 11.2449 13.0288 12.3275 13.2891C13.4101 13.5494 14.4701 13.9399 15.5074 14.4605C16.025 14.7263 16.44 15.1117 16.7524 15.6167C17.0648 16.1217 17.221 16.6794 17.221 17.2899V18.0301C17.221 18.6598 16.9992 19.1964 16.5558 19.6399C16.1123 20.0834 15.5757 20.3051 14.946 20.3051H3.08945C2.45974 20.3051 1.92314 20.0834 1.47968 19.6399C1.03618 19.1964 0.814453 18.6598 0.814453 18.0301Z" fill="white"/>
</g>
</svg>
