<svg width="24" height="24" viewBox="0 0 24 24" fill="none" xmlns="http://www.w3.org/2000/svg">
<mask id="mask0_1561_3212" style="mask-type:alpha" maskUnits="userSpaceOnUse" x="0" y="0" width="24" height="24">
<rect width="24" height="24" fill="#D9D9D9"/>
</mask>
<g mask="url(#mask0_1561_3212)">
<path d="M12 13.8965L6.27414 19.6224C6.0224 19.8741 5.70631 20 5.32588 20C4.94546 20 4.62937 19.8741 4.37762 19.6224C4.12587 19.3706 4 19.0545 4 18.6741C4 18.2937 4.12587 17.9776 4.37762 17.7259L10.1035 12L4.37762 6.27414C4.12587 6.0224 4 5.70631 4 5.32588C4 4.94546 4.12587 4.62937 4.37762 4.37762C4.62937 4.12587 4.94546 4 5.32588 4C5.70631 4 6.0224 4.12587 6.27414 4.37762L12 10.1035L17.7259 4.37762C17.9776 4.12587 18.2937 4 18.6741 4C19.0545 4 19.3706 4.12587 19.6224 4.37762C19.8741 4.62937 20 4.94546 20 5.32588C20 5.70631 19.8741 6.0224 19.6224 6.27414L13.8965 12L19.6224 17.7259C19.8741 17.9776 20 18.2937 20 18.6741C20 19.0545 19.8741 19.3706 19.6224 19.6224C19.3706 19.8741 19.0545 20 18.6741 20C18.2937 20 17.9776 19.8741 17.7259 19.6224L12 13.8965Z" fill="#3E4244"/>
</g>
</svg>
