<svg width="24" height="24" viewBox="0 0 24 24" fill="none" xmlns="http://www.w3.org/2000/svg">
<mask id="mask0_1561_3215" style="mask-type:alpha" maskUnits="userSpaceOnUse" x="0" y="0" width="24" height="24">
<rect width="24" height="24" fill="#D9D9D9"/>
</mask>
<g mask="url(#mask0_1561_3215)">
<path d="M6.93401 21.2033C6.30429 21.2033 5.76769 20.9816 5.32421 20.5381C4.88073 20.0946 4.65898 19.558 4.65898 18.9283V6.06582C4.33978 6.06582 4.0704 5.95604 3.85083 5.73649C3.63127 5.51693 3.52148 5.24754 3.52148 4.92832C3.52148 4.60912 3.63127 4.33974 3.85083 4.12017C4.0704 3.9006 4.33978 3.79082 4.65898 3.79082H8.86226C8.86226 3.47162 8.97204 3.20224 9.19161 2.98267C9.41118 2.7631 9.68056 2.65332 9.99976 2.65332H13.9878C14.307 2.65332 14.5764 2.7631 14.796 2.98267C15.0155 3.20224 15.1253 3.47162 15.1253 3.79082H19.3405C19.6597 3.79082 19.9291 3.9006 20.1487 4.12017C20.3682 4.33974 20.478 4.60912 20.478 4.92832C20.478 5.24754 20.3682 5.51693 20.1487 5.73649C19.9291 5.95604 19.6597 6.06582 19.3405 6.06582V18.9283C19.3405 19.558 19.1188 20.0946 18.6753 20.5381C18.2318 20.9816 17.6952 21.2033 17.0655 21.2033H6.93401ZM17.0655 6.06582H6.93401V18.9283H17.0655V6.06582ZM9.96388 16.9941C10.2632 16.9941 10.5156 16.8913 10.7212 16.6857C10.9269 16.4801 11.0297 16.2276 11.0297 15.9283V9.05984C11.0297 8.76058 10.9269 8.50814 10.7212 8.30252C10.5156 8.0969 10.2632 7.99409 9.96388 7.99409C9.66462 7.99409 9.41118 8.0969 9.20356 8.30252C8.99596 8.50814 8.89216 8.76058 8.89216 9.05984V15.9283C8.89216 16.2276 8.99596 16.4801 9.20356 16.6857C9.41118 16.8913 9.66462 16.9941 9.96388 16.9941ZM14.0416 16.9941C14.3409 16.9941 14.5933 16.8913 14.7989 16.6857C15.0045 16.4801 15.1074 16.2276 15.1074 15.9283V9.05984C15.1074 8.76058 15.0045 8.50814 14.7989 8.30252C14.5933 8.0969 14.3409 7.99409 14.0416 7.99409C13.7423 7.99409 13.4889 8.0969 13.2813 8.30252C13.0737 8.50814 12.9699 8.76058 12.9699 9.05984V15.9283C12.9699 16.2276 13.0737 16.4801 13.2813 16.6857C13.4889 16.8913 13.7423 16.9941 14.0416 16.9941Z" fill="white"/>
</g>
</svg>
