<svg width="24" height="24" viewBox="0 0 24 24" fill="none" xmlns="http://www.w3.org/2000/svg">
<mask id="mask0_1561_3214" style="mask-type:alpha" maskUnits="userSpaceOnUse" x="0" y="0" width="24" height="24">
<rect width="24" height="24" fill="#D9D9D9"/>
</mask>
<g mask="url(#mask0_1561_3214)">
<path d="M17.7232 8.97795L20.9732 5.70892C21.2011 5.48102 21.4705 5.36807 21.7814 5.37007C22.0923 5.37205 22.3616 5.48501 22.5895 5.70892C22.8174 5.93682 22.9314 6.2062 22.9314 6.51707C22.9314 6.82794 22.8174 7.09732 22.5895 7.32522L18.5249 11.3959C18.297 11.6238 18.0298 11.7377 17.7232 11.7377C17.4167 11.7377 17.1495 11.6238 16.9216 11.3959L14.9162 9.39045C14.6883 9.16255 14.5753 8.89316 14.5773 8.5823C14.5793 8.27141 14.6943 8.00203 14.9221 7.77415C15.15 7.55023 15.4163 7.43727 15.7208 7.43527C16.0253 7.43329 16.2915 7.54625 16.5194 7.77415L17.7232 8.97795ZM8.96399 11.8986C7.80421 11.8986 6.81372 11.488 5.99252 10.6668C5.17133 9.8456 4.76074 8.8551 4.76074 7.69532C4.76074 6.53554 5.17133 5.54605 5.99252 4.72685C6.81372 3.90765 7.80421 3.49805 8.96399 3.49805C10.1238 3.49805 11.1143 3.90765 11.9355 4.72685C12.7567 5.54605 13.1673 6.53554 13.1673 7.69532C13.1673 8.8551 12.7567 9.8456 11.9355 10.6668C11.1143 11.488 10.1238 11.8986 8.96399 11.8986ZM0.760742 18.0301V17.2899C0.760742 16.6874 0.916534 16.1327 1.22812 15.6258C1.53972 15.1189 1.95512 14.7325 2.47432 14.4665C3.51962 13.9459 4.58357 13.5544 5.66617 13.2921C6.74878 13.0298 7.84806 12.8986 8.96399 12.8986C10.0879 12.8986 11.1912 13.0288 12.2738 13.2891C13.3564 13.5494 14.4164 13.9399 15.4537 14.4605C15.9729 14.7265 16.3883 15.1119 16.6999 15.6168C17.0115 16.1217 17.1673 16.6794 17.1673 17.2899V18.0301C17.1673 18.6598 16.9455 19.1964 16.502 19.6399C16.0586 20.0834 15.522 20.3051 14.8923 20.3051H3.03574C2.40603 20.3051 1.86943 20.0834 1.42594 19.6399C0.982476 19.1964 0.760742 18.6598 0.760742 18.0301Z" fill="white"/>
</g>
</svg>
