<svg width="24" height="24" viewBox="0 0 24 24" fill="none" xmlns="http://www.w3.org/2000/svg">
<mask id="mask0_1561_3209" style="mask-type:alpha" maskUnits="userSpaceOnUse" x="0" y="0" width="24" height="24">
<rect width="24" height="24" fill="#D9D9D9"/>
</mask>
<g mask="url(#mask0_1561_3209)">
<path d="M8.88377 15.608L19.5065 5.41638C19.7958 5.13879 20.1391 5 20.5362 5C20.9334 5 21.2767 5.13879 21.566 5.41638C21.8553 5.69397 22 6.0233 22 6.40438C22 6.78544 21.8553 7.11476 21.566 7.39235L9.90146 18.5836C9.61214 18.8612 9.27291 19 8.88377 19C8.49464 19 8.15541 18.8612 7.86608 18.5836L2.42226 13.3607C2.13293 13.0831 1.99229 12.7538 2.00033 12.3727C2.00839 11.9916 2.15708 11.6623 2.44641 11.3847C2.73574 11.1071 3.079 10.9683 3.47619 10.9683C3.87337 10.9683 4.21662 11.1071 4.50594 11.3847L8.88377 15.608Z" fill="white"/>
</g>
</svg>
