<svg width="24" height="24" viewBox="0 0 24 24" fill="none" xmlns="http://www.w3.org/2000/svg">
<mask id="mask0_1561_3206" style="mask-type:alpha" maskUnits="userSpaceOnUse" x="0" y="0" width="24" height="24">
<rect width="24" height="24" fill="#D9D9D9"/>
</mask>
<g mask="url(#mask0_1561_3206)">
<path d="M11.9989 21.3229C11.3977 21.3229 10.8833 21.1089 10.4558 20.6807C10.0282 20.2526 9.81445 19.7379 9.81445 19.1367C9.81445 18.5355 10.0285 18.0211 10.4567 17.5936C10.8848 17.166 11.3995 16.9523 12.0007 16.9523C12.6019 16.9523 13.1163 17.1663 13.5438 17.5945C13.9713 18.0226 14.1851 18.5373 14.1851 19.1385C14.1851 19.7397 13.971 20.2541 13.5429 20.6816C13.1148 21.1092 12.6001 21.3229 11.9989 21.3229ZM12.0028 14.9523C11.4269 14.9523 10.9341 14.7477 10.5245 14.3384C10.1149 13.9292 9.9101 13.4373 9.9101 12.8626V4.81477C9.9101 4.24011 10.1139 3.74816 10.5215 3.33892C10.9291 2.92971 11.4209 2.7251 11.9968 2.7251C12.5727 2.7251 13.0655 2.92971 13.4751 3.33892C13.8847 3.74816 14.0895 4.24011 14.0895 4.81477V12.8626C14.0895 13.4373 13.8856 13.9292 13.478 14.3384C13.0704 14.7477 12.5787 14.9523 12.0028 14.9523Z" fill="white"/>
</g>
</svg>
