<svg width="20" height="22" viewBox="0 0 20 22" fill="none" xmlns="http://www.w3.org/2000/svg">
<path d="M7.32227 17.5592C2.85798 18.8985 2.85798 15.3271 1.07227 14.8806M13.5723 20.2378V16.7824C13.6058 16.3567 13.5482 15.9287 13.4035 15.5269C13.2588 15.1251 13.0302 14.7587 12.733 14.4521C15.5366 14.1396 18.483 13.0771 18.483 8.20208C18.4827 6.95549 18.0032 5.75672 17.1437 4.85386C17.5507 3.76324 17.5219 2.55774 17.0633 1.48779C17.0633 1.48779 16.0098 1.17529 13.5723 2.80922C11.5258 2.25459 9.36869 2.25459 7.32227 2.80922C4.88477 1.17529 3.83119 1.48779 3.83119 1.48779C3.3726 2.55774 3.34382 3.76324 3.75084 4.85386C2.88488 5.76341 2.40488 6.97302 2.41155 8.22886C2.41155 13.0681 5.35798 14.1306 8.16155 14.4789C7.8678 14.7824 7.64125 15.1444 7.49665 15.5413C7.35205 15.9382 7.29263 16.3611 7.32227 16.7824V20.2378" stroke="white" stroke-width="2" stroke-linecap="round" stroke-linejoin="round"/>
</svg>
