<svg width="24" height="24" viewBox="0 0 24 24" fill="none" xmlns="http://www.w3.org/2000/svg">
<mask id="mask0_1561_3204" style="mask-type:alpha" maskUnits="userSpaceOnUse" x="0" y="0" width="24" height="24">
<rect width="24" height="24" fill="#D9D9D9"/>
</mask>
<g mask="url(#mask0_1561_3204)">
<path d="M6.0719 20.2031C5.44218 20.2031 4.90558 19.9814 4.4621 19.5379C4.01862 19.0944 3.79688 18.5578 3.79688 17.9281V16.0656C3.79688 15.7464 3.90666 15.477 4.12622 15.2574C4.34579 15.0379 4.61518 14.9281 4.9344 14.9281C5.2536 14.9281 5.52298 15.0379 5.74255 15.2574C5.96212 15.477 6.0719 15.7464 6.0719 16.0656V17.9281H17.9284V16.0656C17.9284 15.7464 18.0382 15.477 18.2578 15.2574C18.4773 15.0379 18.7467 14.9281 19.0659 14.9281C19.3851 14.9281 19.6545 15.0379 19.8741 15.2574C20.0936 15.477 20.2034 15.7464 20.2034 16.0656V17.9281C20.2034 18.5578 19.9817 19.0944 19.5382 19.5379C19.0947 19.9814 18.5581 20.2031 17.9284 20.2031H6.0719ZM10.8626 8.16072L9.12515 9.89822C8.90123 10.1261 8.63384 10.2379 8.32297 10.2335C8.01211 10.2292 7.74273 10.1131 7.51483 9.88517C7.29961 9.65727 7.18882 9.39105 7.18247 9.08652C7.17614 8.782 7.28693 8.51579 7.51483 8.28789L11.1985 4.59822C11.3105 4.48625 11.4348 4.40445 11.5714 4.35282C11.7079 4.3012 11.8509 4.27539 12.0001 4.27539C12.1494 4.27539 12.2924 4.3012 12.429 4.35282C12.5655 4.40445 12.6898 4.48625 12.8018 4.59822L16.4914 8.28789C16.7154 8.51181 16.8242 8.77703 16.8178 9.08354C16.8115 9.39006 16.7027 9.65528 16.4914 9.87919C16.2635 10.1071 15.9942 10.2242 15.6833 10.2305C15.3724 10.2369 15.103 10.1261 14.8751 9.89822L13.1376 8.16072V14.7906C13.1376 15.1098 13.0279 15.3792 12.8083 15.5987C12.5887 15.8183 12.3193 15.9281 12.0001 15.9281C11.6809 15.9281 11.4116 15.8183 11.192 15.5987C10.9724 15.3792 10.8626 15.1098 10.8626 14.7906V8.16072Z" fill="white"/>
</g>
</svg>
