<svg width="24" height="24" viewBox="0 0 24 24" fill="none" xmlns="http://www.w3.org/2000/svg">
<mask id="mask0_1561_3213" style="mask-type:alpha" maskUnits="userSpaceOnUse" x="0" y="0" width="24" height="24">
<rect width="24" height="24" fill="#D9D9D9"/>
</mask>
<g mask="url(#mask0_1561_3213)">
<path d="M7.0719 21.2034C6.44218 21.2034 5.90558 20.9817 5.4621 20.5382C5.01862 20.0947 4.79688 19.5581 4.79688 18.9284V5.0719C4.79688 4.44218 5.01862 3.90558 5.4621 3.4621C5.90558 3.01862 6.44218 2.79688 7.0719 2.79688H12.9105C13.2297 2.79688 13.4991 2.90666 13.7186 3.12623C13.9382 3.34579 14.048 3.61518 14.048 3.9344C14.048 4.2536 13.9382 4.52298 13.7186 4.74255C13.4991 4.96212 13.2297 5.0719 12.9105 5.0719H7.0719V18.9284H12.9105C13.2297 18.9284 13.4991 19.0382 13.7186 19.2577C13.9382 19.4773 14.048 19.7467 14.048 20.0659C14.048 20.3851 13.9382 20.6545 13.7186 20.8741C13.4991 21.0936 13.2297 21.2034 12.9105 21.2034H7.0719ZM18.8643 13.1376H12.0898C11.7706 13.1376 11.5012 13.0279 11.2817 12.8083C11.0621 12.5887 10.9523 12.3193 10.9523 12.0001C10.9523 11.681 11.0621 11.4116 11.2817 11.192C11.5012 10.9724 11.7706 10.8626 12.0898 10.8626H18.8643L17.1268 9.12515C16.9155 8.91392 16.8099 8.65504 16.8099 8.34852C16.8099 8.04199 16.9155 7.77677 17.1268 7.55288C17.338 7.32498 17.6022 7.20785 17.9194 7.2015C18.2366 7.19517 18.5092 7.30595 18.7371 7.53385L22.4078 11.2045C22.6317 11.4324 22.7436 11.6976 22.7436 12.0001C22.7436 12.3027 22.6317 12.5679 22.4078 12.7958L18.7371 16.4664C18.5132 16.6943 18.2448 16.8051 17.9319 16.7988C17.6191 16.7925 17.3507 16.6753 17.1268 16.4474C16.9155 16.2235 16.8131 15.9551 16.8194 15.6423C16.8258 15.3294 16.9346 15.0674 17.1458 14.8561L18.8643 13.1376Z" fill="white"/>
</g>
</svg>
