<svg width="24" height="24" viewBox="0 0 24 24" fill="none" xmlns="http://www.w3.org/2000/svg">
<mask id="mask0_1561_3210" style="mask-type:alpha" maskUnits="userSpaceOnUse" x="0" y="0" width="24" height="24">
<rect width="24" height="24" fill="#D9D9D9"/>
</mask>
<g mask="url(#mask0_1561_3210)">
<path d="M4.22372 21.1305C3.81792 21.2258 3.46792 21.1254 3.1737 20.8292C2.8795 20.533 2.77805 20.182 2.86935 19.7762L3.78022 15.3528L8.64707 20.2197L4.22372 21.1305ZM10.2242 18.9468L5.05305 13.7756L15.3003 3.52833C15.7395 3.0892 16.2782 2.86963 16.9166 2.86963C17.555 2.86963 18.0938 3.0892 18.5329 3.52833L20.4715 5.46693C20.9107 5.90606 21.1302 6.44483 21.1302 7.08323C21.1302 7.72163 20.9107 8.2604 20.4715 8.69953L10.2242 18.9468Z" fill="white"/>
</g>
</svg>
