<svg width="24" height="24" viewBox="0 0 24 24" fill="none" xmlns="http://www.w3.org/2000/svg">
<mask id="mask0_1561_3309" style="mask-type:alpha" maskUnits="userSpaceOnUse" x="0" y="0" width="24" height="24">
<rect width="24" height="24" fill="#D9D9D9"/>
</mask>
<g mask="url(#mask0_1561_3309)">
<path d="M13.6752 12.0001L6.7252 5.0501C6.3752 4.7001 6.2002 4.2751 6.2002 3.7751C6.2002 3.2751 6.3752 2.8501 6.7252 2.5001C7.0752 2.1501 7.50436 1.9751 8.0127 1.9751C8.52103 1.9751 8.9502 2.1501 9.3002 2.5001L16.6002 9.7751C16.9169 10.0918 17.1502 10.4418 17.3002 10.8251C17.4502 11.2084 17.5252 11.6001 17.5252 12.0001C17.5252 12.4001 17.4502 12.7918 17.3002 13.1751C17.1502 13.5584 16.9169 13.9084 16.6002 14.2251L9.3002 21.5251C8.9502 21.8751 8.5252 22.0459 8.0252 22.0376C7.5252 22.0293 7.1002 21.8501 6.7502 21.5001C6.4002 21.1501 6.2252 20.7209 6.2252 20.2126C6.2252 19.7043 6.4002 19.2751 6.7502 18.9251L13.6752 12.0001Z" fill="white"/>
</g>
</svg>
