<svg width="24" height="24" viewBox="0 0 24 24" fill="none" xmlns="http://www.w3.org/2000/svg">
<g id="Shape=arrow_back_ios_new">
<mask id="mask0_1561_3310" style="mask-type:alpha" maskUnits="userSpaceOnUse" x="0" y="0" width="24" height="24">
<rect id="Bounding box" width="24" height="24" fill="#D9D9D9"/>
</mask>
<g mask="url(#mask0_1561_3310)">
<path id="arrow_back_ios_new" d="M10.3999 11.9998L17.3499 18.9498C17.6999 19.2998 17.8749 19.7248 17.8749 20.2248C17.8749 20.7248 17.6916 21.1581 17.3249 21.5248C16.9749 21.8748 16.5499 22.0498 16.0499 22.0498C15.5499 22.0498 15.1249 21.8748 14.7749 21.5248L7.4499 14.2248C7.13324 13.9081 6.8999 13.5581 6.7499 13.1748C6.5999 12.7915 6.5249 12.3998 6.5249 11.9998C6.5249 11.5998 6.5999 11.2081 6.7499 10.8248C6.8999 10.4415 7.13324 10.0915 7.4499 9.77479L14.7749 2.47479C15.1249 2.12479 15.5499 1.94562 16.0499 1.93729C16.5499 1.92896 16.9832 2.10812 17.3499 2.47479C17.6999 2.82479 17.8749 3.25396 17.8749 3.76229C17.8749 4.27062 17.6999 4.69979 17.3499 5.04979L10.3999 11.9998Z" fill="#3E4244"/>
</g>
</g>
</svg>
