<svg width="237" height="166" viewBox="0 0 237 166" fill="none" xmlns="http://www.w3.org/2000/svg">
<ellipse opacity="0.5" cx="118.5" cy="152" rx="118.5" ry="14" fill="#3E4244"/>
<rect x="47" y="13" width="12" height="144" rx="5" fill="#3E4244"/>
<rect x="37" y="145" width="32" height="12" rx="4" fill="#3E4244"/>
<rect x="179" y="13" width="12" height="144" rx="5" fill="#3E4244"/>
<rect x="169" y="145" width="32" height="12" rx="4" fill="#3E4244"/>
<rect x="21" y="27" width="198" height="66" rx="4" fill="#FE4A65" stroke="#3E4244" stroke-width="6"/>
<path fill-rule="evenodd" clip-rule="evenodd" d="M216 59.8027V41.4302L167.43 90H185.803L216 59.8027ZM208.43 90H216V82.4302L208.43 90ZM188.43 30H204.803L144.803 90H128.43L188.43 30ZM165.803 30H146.43L86.4302 90H105.803L165.803 30ZM105.43 30H123.803L63.8027 90H45.4302L105.43 30ZM82.8027 30H64.4302L24 70.4302V88.8027L82.8027 30ZM24 30H41.8027L24 47.8027V30Z" fill="#FFFFF9"/>
<rect x="63" y="59.5684" width="80" height="80" rx="2" transform="rotate(-45 63 59.5684)" fill="#FDCA6B" stroke="#3E4244" stroke-width="6"/>
<path d="M86.7026 68.3636V63.4545L96.0662 48.7273H100.521V55.2727H97.9753L92.9298 63.2727V63.4545H106.748V68.3636H86.7026ZM98.0207 72V66.8636L98.1571 64.7273V48.7273H104.066V72H98.0207ZM121.135 72.6364C119.021 72.6288 117.196 72.1402 115.658 71.1705C114.12 70.2008 112.934 68.803 112.101 66.9773C111.268 65.1515 110.855 62.9621 110.862 60.4091C110.87 57.8485 111.286 55.6742 112.112 53.8864C112.946 52.0985 114.127 50.7386 115.658 49.8068C117.196 48.875 119.021 48.4091 121.135 48.4091C123.249 48.4091 125.074 48.8788 126.612 49.8182C128.15 50.75 129.336 52.1098 130.169 53.8977C131.002 55.6856 131.415 57.8561 131.408 60.4091C131.408 62.9773 130.991 65.1742 130.158 67C129.324 68.8258 128.139 70.2235 126.601 71.1932C125.071 72.1553 123.249 72.6364 121.135 72.6364ZM121.135 67.5C122.226 67.5 123.12 66.9318 123.817 65.7955C124.521 64.6515 124.87 62.8561 124.862 60.4091C124.862 58.8106 124.703 57.5038 124.385 56.4886C124.067 55.4735 123.627 54.7235 123.067 54.2386C122.506 53.7462 121.862 53.5 121.135 53.5C120.044 53.5 119.154 54.053 118.464 55.1591C117.775 56.2652 117.423 58.0152 117.408 60.4091C117.4 62.0379 117.555 63.3788 117.874 64.4318C118.192 65.4773 118.631 66.25 119.192 66.75C119.76 67.25 120.408 67.5 121.135 67.5ZM147.383 48.7273V72H141.064V54.5455H140.928L135.837 57.5909V52.2273L141.564 48.7273H147.383Z" fill="#3E4244"/>
</svg>
