<svg width="123" height="130" viewBox="0 0 123 130" fill="none" xmlns="http://www.w3.org/2000/svg">
<ellipse opacity="0.5" cx="61.5" cy="114" rx="61.5" ry="16" fill="#3E4244"/>
<path d="M58.3107 23.6363C60.2409 16.8597 69.845 16.8597 71.7752 23.6363L81.0644 56.25L84.2687 67.5L94.5459 103.582C95.8192 108.053 92.4619 112.5 87.8137 112.5H42.2722C37.6239 112.5 34.2666 108.053 35.5399 103.582L45.8172 67.5L49.0215 56.25L58.3107 23.6363Z" fill="#FE4A65" stroke="#3E4244" stroke-width="5"/>
<path d="M80.6558 58H48.6129L45.4086 69.25H83.8601L80.6558 58Z" fill="#FFFFF9"/>
<path d="M90.2687 91.75H39L42.2043 80.5H87.0644L90.2687 91.75Z" fill="#FFFFF9"/>
<path d="M80.6558 58H48.6129L45.4086 69.25H83.8601L80.6558 58Z" stroke="#3E4244" stroke-width="5"/>
<path d="M90.2687 91.75H39L42.2043 80.5H87.0644L90.2687 91.75Z" stroke="#3E4244" stroke-width="5"/>
<rect x="23" y="104" width="85" height="17" rx="6" fill="#FE4A65" stroke="#3E4244" stroke-width="5"/>
</svg>
