<svg width="184" height="184" viewBox="0 0 184 184" fill="none" xmlns="http://www.w3.org/2000/svg">
<path fill-rule="evenodd" clip-rule="evenodd" d="M137.875 78.6946C142.188 73.1419 144.793 67.8932 146 63.8664C142.123 62.2014 136.389 60.8077 129.313 60.5316C129.767 66.1005 131.949 73.1013 137.875 78.6946ZM136.935 79.8757C130.569 73.9245 128.263 66.4265 127.81 60.4904C112.482 60.2461 91.3382 65.2464 69.2404 83.453C65.2007 79.545 53.8943 75.6279 40.9862 91.2228C45.6615 90.1717 55.6895 89.1403 58.3988 93.4234C57.6216 93.9954 56.9037 95.8019 57.6713 99.2095C56.2184 98.7073 52.4742 98.1831 49.1203 100.104C47.0036 101.316 45.1162 104.228 43.2982 107.032C41.5156 109.782 39.7997 112.429 38 113.27C40.0678 112.304 43.5557 112.537 47.1738 112.78H47.1738C49.9161 112.963 52.7332 113.152 55.0635 112.827C57.432 112.497 58.2798 111.547 59.6007 110.067C60.1348 109.469 60.7462 108.784 61.5667 108.018C63.9164 111.478 65.9726 112.091 67.0017 111.84C68.5478 116.666 61.491 124.058 57.6845 126.969C77.9283 127.078 82.0958 115.521 81.6912 109.915C109.842 104.659 127.276 91.7299 136.935 79.8757ZM122.615 77.4131C122.615 81.1801 119.561 84.2338 115.794 84.2338C112.027 84.2338 108.974 81.1801 108.974 77.4131C108.974 73.6462 112.027 70.5925 115.794 70.5925C119.561 70.5925 122.615 73.6462 122.615 77.4131ZM58.0194 101.085C54.0073 102.69 52.8036 103.492 49.5939 108.307C54.4085 109.109 57.217 109.109 60.4267 106.301L58.0194 101.085Z" fill="#EF283B"/>
<path d="M61.5059 34.7785C61.2792 47.7034 73.2572 52.5972 80.1947 53.2909C75.6596 52.8374 66.5097 60.1428 65.4231 62.4782C63.5183 66.5722 66.6403 68.253 69.7074 67.2346C71.2274 66.7299 73.9689 65.4239 76.5609 64.2292C76.5569 68.226 74.5003 80.5366 76.5377 87.6595C78.776 92.6957 85.2889 93.2553 85.8485 83.7424C86.32 75.7257 92.1303 73.3968 94.2324 72.5543L94.2418 72.5505C95.5852 71.6552 100.118 69.4729 102.356 69.193C101.312 65.1868 100.929 62.3014 100.797 59.4945C106.466 60.6066 114.958 56.9648 120.727 53.7454C127.223 50.1196 125.107 44.3919 118.304 46.9428C112.862 48.9836 102.809 52.724 100.164 52.1571C108.174 51.3068 116.73 47.2645 115.786 33.6593C114.556 15.934 99.0627 9 86.8747 9C74.6868 9 61.7894 18.6224 61.5059 34.7785Z" fill="#EF283B"/>
<path fill-rule="evenodd" clip-rule="evenodd" d="M121.05 46.4491C114.116 44.4507 117.385 35.6452 119.97 32.9857C120.548 32.3918 121.445 32.3098 122.143 32.7558C125.671 35.0103 129.124 43.7726 123.14 46.3347C122.484 46.6152 121.735 46.6465 121.05 46.4491ZM121.924 35.1594C121.721 35.3459 121.707 35.6622 121.893 35.8659C122.639 36.6803 123.489 38.2233 123.822 39.8269C124.156 41.4341 123.946 42.9525 122.8 43.9143C122.589 44.0918 122.561 44.4071 122.739 44.6187C122.916 44.8302 123.232 44.8578 123.443 44.6803C124.999 43.3751 125.168 41.3924 124.801 39.6237C124.433 37.8513 123.503 36.1432 122.631 35.1905C122.444 34.9869 122.128 34.9729 121.924 35.1594ZM120.72 36.0789C120.877 35.852 120.821 35.5405 120.594 35.3832C120.367 35.2258 120.055 35.2822 119.898 35.5091C119.05 36.732 118.404 38.5418 118.393 40.3158C118.382 42.1031 119.022 43.9213 120.829 45.0034C121.066 45.1453 121.373 45.0682 121.515 44.8312C121.657 44.5943 121.58 44.2873 121.343 44.1454C119.926 43.297 119.383 41.8698 119.393 40.322C119.402 38.7608 119.98 37.1457 120.72 36.0789Z" fill="#EF283B"/>
<path d="M16.9176 160.857V156.013L29.0625 136.879H33.2386V143.584H30.767L23.1108 155.7V155.928H40.3693V160.857H16.9176ZM30.8807 165.97V159.379L30.9943 157.234V136.879H36.7614V165.97H30.8807ZM44.4673 165.97V161.538L54.8224 151.95C55.7031 151.098 56.4418 150.331 57.0384 149.649C57.6444 148.967 58.1037 148.3 58.4162 147.646C58.7287 146.983 58.8849 146.269 58.8849 145.501C58.8849 144.649 58.6908 143.915 58.3026 143.3C57.9143 142.675 57.384 142.197 56.7116 141.865C56.0393 141.524 55.277 141.354 54.4247 141.354C53.5346 141.354 52.758 141.534 52.0952 141.894C51.4323 142.253 50.9209 142.769 50.5611 143.442C50.2012 144.114 50.0213 144.914 50.0213 145.842H44.1832C44.1832 143.939 44.6141 142.287 45.4759 140.885C46.3376 139.483 47.545 138.399 49.098 137.632C50.651 136.865 52.4408 136.482 54.4673 136.482C56.5507 136.482 58.3641 136.851 59.9077 137.59C61.4607 138.319 62.6681 139.332 63.5298 140.629C64.3916 141.927 64.8224 143.413 64.8224 145.09C64.8224 146.188 64.6046 147.272 64.169 148.342C63.7429 149.412 62.9806 150.601 61.8821 151.908C60.7836 153.205 59.2353 154.763 57.2372 156.581L52.9901 160.743V160.942H65.206V165.97H44.4673ZM103.423 136.879V165.97H98.1108L85.4545 147.661H85.2415V165.97H79.0909V136.879H84.4886L97.0455 155.175H97.3011V136.879H103.423ZM122.383 156.68V144.152H128.434V165.97H122.624V162.007H122.397C121.905 163.286 121.085 164.313 119.94 165.09C118.803 165.866 117.416 166.254 115.778 166.254C114.319 166.254 113.036 165.923 111.928 165.26C110.82 164.597 109.954 163.655 109.329 162.433C108.713 161.212 108.401 159.749 108.391 158.044V144.152H114.442V156.965C114.452 158.252 114.798 159.27 115.479 160.019C116.161 160.767 117.075 161.141 118.221 161.141C118.95 161.141 119.632 160.975 120.266 160.644C120.901 160.303 121.412 159.801 121.8 159.138C122.198 158.475 122.392 157.656 122.383 156.68ZM144.879 144.152V148.697H131.74V144.152H144.879ZM134.723 138.925H140.774V159.266C140.774 159.824 140.859 160.26 141.03 160.572C141.2 160.876 141.437 161.089 141.74 161.212C142.053 161.335 142.412 161.396 142.82 161.396C143.104 161.396 143.388 161.373 143.672 161.325C143.956 161.269 144.174 161.226 144.325 161.197L145.277 165.7C144.974 165.795 144.548 165.904 143.999 166.027C143.449 166.16 142.782 166.24 141.996 166.269C140.537 166.325 139.259 166.131 138.161 165.686C137.071 165.241 136.224 164.55 135.618 163.612C135.012 162.675 134.714 161.491 134.723 160.061V138.925ZM166.701 150.374L161.161 150.715C161.067 150.241 160.863 149.815 160.55 149.436C160.238 149.048 159.826 148.74 159.315 148.513C158.813 148.276 158.211 148.158 157.511 148.158C156.573 148.158 155.782 148.357 155.138 148.754C154.495 149.143 154.173 149.663 154.173 150.317C154.173 150.838 154.381 151.278 154.798 151.638C155.214 151.998 155.929 152.287 156.942 152.504L160.891 153.3C163.013 153.735 164.594 154.436 165.636 155.402C166.677 156.368 167.198 157.637 167.198 159.209C167.198 160.639 166.777 161.894 165.934 162.973C165.101 164.053 163.955 164.895 162.496 165.501C161.048 166.098 159.376 166.396 157.482 166.396C154.594 166.396 152.293 165.795 150.579 164.592C148.874 163.38 147.875 161.733 147.582 159.649L153.533 159.337C153.713 160.217 154.149 160.89 154.84 161.354C155.531 161.808 156.417 162.036 157.496 162.036C158.557 162.036 159.409 161.832 160.053 161.425C160.707 161.008 161.038 160.473 161.048 159.82C161.038 159.27 160.806 158.821 160.352 158.47C159.897 158.11 159.196 157.836 158.249 157.646L154.471 156.894C152.34 156.467 150.754 155.729 149.712 154.678C148.68 153.626 148.164 152.287 148.164 150.658C148.164 149.256 148.543 148.049 149.3 147.036C150.067 146.022 151.142 145.241 152.525 144.692C153.917 144.143 155.546 143.868 157.411 143.868C160.167 143.868 162.335 144.45 163.917 145.615C165.508 146.78 166.436 148.366 166.701 150.374Z" fill="#EF283B"/>
</svg>
