<svg width="700" height="700" viewBox="0 0 700 700" fill="none" xmlns="http://www.w3.org/2000/svg">
<rect y="700" width="700" height="700" transform="rotate(-90 0 700)" fill="#FDCA6B"/>
<line x1="8.74228e-08" y1="350" x2="700" y2="350" stroke="#FFFFF9" stroke-width="4"/>
<circle cx="350" cy="350" r="48" transform="rotate(-90 350 350)" stroke="#FFFFF9" stroke-width="4"/>
<path d="M300 572C300 565.434 301.293 558.932 303.806 552.866C306.319 546.8 310.002 541.288 314.645 536.645C319.288 532.002 324.8 528.319 330.866 525.806C336.932 523.293 343.434 522 350 522C356.566 522 363.068 523.293 369.134 525.806C375.2 528.319 380.712 532.002 385.355 536.645C389.998 541.288 393.681 546.8 396.194 552.866C398.707 558.932 400 565.434 400 572" stroke="#FFFFF9" stroke-width="4"/>
<path d="M300 128C300 134.566 301.293 141.068 303.806 147.134C306.319 153.2 310.002 158.712 314.645 163.355C319.288 167.998 324.8 171.681 330.866 174.194C336.932 176.707 343.434 178 350 178C356.566 178 363.068 176.707 369.134 174.194C375.2 171.681 380.712 167.998 385.355 163.355C389.998 158.712 393.681 153.2 396.194 147.134C398.707 141.068 400 134.566 400 128" stroke="#FFFFF9" stroke-width="4"/>
<path d="M300 572C300 578.566 301.293 585.068 303.806 591.134C306.319 597.2 310.002 602.712 314.645 607.355C319.288 611.998 324.8 615.681 330.866 618.194C336.932 620.707 343.434 622 350 622C356.566 622 363.068 620.707 369.134 618.194C375.2 615.681 380.712 611.998 385.355 607.355C389.998 602.712 393.681 597.2 396.194 591.134C398.707 585.068 400 578.566 400 572" stroke="#FFFFF9" stroke-width="4" stroke-dasharray="8 8"/>
<path d="M300 128C300 121.434 301.293 114.932 303.806 108.866C306.319 102.8 310.002 97.2876 314.645 92.6447C319.288 88.0017 324.8 84.3188 330.866 81.806C336.932 79.2933 343.434 78 350 78C356.566 78 363.068 79.2933 369.134 81.806C375.2 84.3188 380.712 88.0017 385.355 92.6447C389.998 97.2876 393.681 102.8 396.194 108.866C398.707 114.932 400 121.434 400 128" stroke="#FFFFF9" stroke-width="4" stroke-dasharray="8 8"/>
<path d="M198 700C198 671.503 201.932 643.285 209.57 616.958C217.209 590.63 228.405 566.708 242.52 546.558C256.634 526.408 273.391 510.423 291.832 499.518C310.274 488.613 330.039 483 350 483C369.961 483 389.726 488.613 408.168 499.518C426.609 510.423 443.366 526.408 457.48 546.558C471.595 566.708 482.791 590.63 490.43 616.958C498.068 643.285 502 671.503 502 700" stroke="#FFFFF9" stroke-width="4"/>
<path d="M198 2.71201e-05C198 28.4969 201.932 56.7147 209.57 83.0423C217.209 109.37 228.405 133.292 242.52 153.442C256.634 173.592 273.391 189.577 291.832 200.482C310.274 211.387 330.039 217 350 217C369.961 217 389.726 211.387 408.168 200.482C426.609 189.577 443.366 173.592 457.48 153.442C471.595 133.292 482.791 109.37 490.43 83.0423C498.068 56.7147 502 28.4969 502 8.22621e-06" stroke="#FFFFF9" stroke-width="4"/>
<path d="M300 572H298V570H300V572ZM400 572V570H402V572H400ZM302 572V700H298V572H302ZM398 700V572H402V700H398ZM400 574H300V570H400V574Z" fill="#FFFFF9"/>
<path d="M300 128H298V130H300V128ZM400 128V130H402V128H400ZM302 128V0H298V128H302ZM398 0V128H402V0H398ZM400 126H300V130H400V126Z" fill="#FFFFF9"/>
</svg>
