<svg width="1202" height="756" viewBox="0 0 1202 756" fill="none" xmlns="http://www.w3.org/2000/svg">
<g filter="url(#filter0_d_1723_15535)">
<rect x="8" y="8" width="1176" height="736" rx="32" fill="#019E73" stroke="#FFFFF9" stroke-width="16"/>
<line x1="598" y1="16" x2="598" y2="736" stroke="#FFFFF9" stroke-width="4"/>
<circle cx="596" cy="376" r="153" stroke="#FFFFF9" stroke-width="4"/>
<mask id="path-4-inside-1_1723_15535" fill="white">
<path d="M16 200H164C170.627 200 176 205.373 176 212V541C176 547.627 170.627 553 164 553H16V200Z"/>
</mask>
<path d="M16 196H164C172.837 196 180 203.163 180 212H172C172 207.582 168.418 204 164 204H16V196ZM180 541C180 549.837 172.837 557 164 557H16V549H164C168.418 549 172 545.418 172 541H180ZM16 553V200V553ZM164 196C172.837 196 180 203.163 180 212V541C180 549.837 172.837 557 164 557V549C168.418 549 172 545.418 172 541V212C172 207.582 168.418 204 164 204V196Z" fill="#E8EEED" mask="url(#path-4-inside-1_1723_15535)"/>
<mask id="path-6-inside-2_1723_15535" fill="white">
<path d="M1176 200H1028C1021.37 200 1016 205.373 1016 212V541C1016 547.627 1021.37 553 1028 553H1176V200Z"/>
</mask>
<path d="M1176 196H1028C1019.16 196 1012 203.163 1012 212H1020C1020 207.582 1023.58 204 1028 204H1176V196ZM1012 541C1012 549.837 1019.16 557 1028 557H1176V549H1028C1023.58 549 1020 545.418 1020 541H1012ZM1176 553V200V553ZM1028 196C1019.16 196 1012 203.163 1012 212V541C1012 549.837 1019.16 557 1028 557V549C1023.58 549 1020 545.418 1020 541V212C1020 207.582 1023.58 204 1028 204V196Z" fill="#E8EEED" mask="url(#path-6-inside-2_1723_15535)"/>
</g>
<defs>
<filter id="filter0_d_1723_15535" x="0" y="0" width="1202" height="762" filterUnits="userSpaceOnUse" color-interpolation-filters="sRGB">
<feFlood flood-opacity="0" result="BackgroundImageFix"/>
<feColorMatrix in="SourceAlpha" type="matrix" values="0 0 0 0 0 0 0 0 0 0 0 0 0 0 0 0 0 0 127 0" result="hardAlpha"/>
<feOffset dx="10" dy="10"/>
<feComposite in2="hardAlpha" operator="out"/>
<feColorMatrix type="matrix" values="0 0 0 0 0 0 0 0 0 0 0 0 0 0 0 0 0 0 0.1 0"/>
<feBlend mode="normal" in2="BackgroundImageFix" result="effect1_dropShadow_1723_15535"/>
<feBlend mode="normal" in="SourceGraphic" in2="effect1_dropShadow_1723_15535" result="shape"/>
</filter>
</defs>
</svg>
