<svg width="700" height="700" viewBox="0 0 700 700" fill="none" xmlns="http://www.w3.org/2000/svg">
<rect y="700" width="700" height="700" transform="rotate(-90 0 700)" fill="#3A82AF"/>
<rect width="20" height="700" fill="#3E4244"/>
<rect width="20" height="700" fill="#3E4244"/>
<rect x="225" width="20" height="700" fill="#3E4244"/>
<rect x="680" width="20" height="700" fill="#3E4244"/>
<rect x="455" width="20" height="700" fill="#3E4244"/>
<rect x="475" width="205" height="700" fill="#FEEBC4"/>
<rect x="576" width="4" height="700" fill="#E7C691"/>
<rect x="550" width="4" height="700" fill="#E7C691"/>
<rect x="628" width="4" height="700" fill="#E7C691"/>
<rect x="654" width="4" height="700" fill="#E7C691"/>
<rect x="602" width="4" height="700" fill="#E7C691"/>
<rect x="524" width="4" height="700" fill="#E7C691"/>
<rect x="498" width="4" height="700" fill="#E7C691"/>
<path d="M576.268 560C577.038 558.667 578.962 558.667 579.732 560L583.196 566C583.966 567.333 583.004 569 581.464 569H574.536C572.996 569 572.034 567.333 572.804 566L576.268 560Z" fill="#3E4244"/>
<path d="M550.268 586C551.038 584.667 552.962 584.667 553.732 586L557.196 592C557.966 593.333 557.004 595 555.464 595H548.536C546.996 595 546.034 593.333 546.804 592L550.268 586Z" fill="#3E4244"/>
<path d="M602.268 586C603.038 584.667 604.962 584.667 605.732 586L609.196 592C609.966 593.333 609.004 595 607.464 595H600.536C598.996 595 598.034 593.333 598.804 592L602.268 586Z" fill="#3E4244"/>
<path d="M628.268 612C629.038 610.667 630.962 610.667 631.732 612L635.196 618C635.966 619.333 635.004 621 633.464 621H626.536C624.996 621 624.034 619.333 624.804 618L628.268 612Z" fill="#3E4244"/>
<path d="M524.268 612C525.038 610.667 526.962 610.667 527.732 612L531.196 618C531.966 619.333 531.004 621 529.464 621H522.536C520.996 621 520.034 619.333 520.804 618L524.268 612Z" fill="#3E4244"/>
<rect x="20" width="205" height="700" fill="#FEEBC4"/>
<rect x="121" width="4" height="700" fill="#E7C691"/>
<rect x="95" width="4" height="700" fill="#E7C691"/>
<rect x="173" width="4" height="700" fill="#E7C691"/>
<rect x="199" width="4" height="700" fill="#E7C691"/>
<rect x="147" width="4" height="700" fill="#E7C691"/>
<rect x="69" width="4" height="700" fill="#E7C691"/>
<rect x="43" width="4" height="700" fill="#E7C691"/>
<path d="M121.268 560C122.038 558.667 123.962 558.667 124.732 560L128.196 566C128.966 567.333 128.004 569 126.464 569H119.536C117.996 569 117.034 567.333 117.804 566L121.268 560Z" fill="#3E4244"/>
<path d="M95.268 586C96.0378 584.667 97.9623 584.667 98.7321 586L102.196 592C102.966 593.333 102.004 595 100.464 595H93.5359C91.9963 595 91.034 593.333 91.8038 592L95.268 586Z" fill="#3E4244"/>
<path d="M147.268 586C148.038 584.667 149.962 584.667 150.732 586L154.196 592C154.966 593.333 154.004 595 152.464 595H145.536C143.996 595 143.034 593.333 143.804 592L147.268 586Z" fill="#3E4244"/>
<path d="M173.268 612C174.038 610.667 175.962 610.667 176.732 612L180.196 618C180.966 619.333 180.004 621 178.464 621H171.536C169.996 621 169.034 619.333 169.804 618L173.268 612Z" fill="#3E4244"/>
<path d="M69.268 612C70.0378 610.667 71.9623 610.667 72.7321 612L76.1962 618C76.966 619.333 76.0037 621 74.4641 621H67.5359C65.9963 621 65.034 619.333 65.8038 618L69.268 612Z" fill="#3E4244"/>
<rect x="245" width="210" height="700" fill="#FEEBC4"/>
<rect x="348" width="4" height="700" fill="#E7C691"/>
<rect x="322" width="4" height="700" fill="#E7C691"/>
<rect x="400" width="4" height="700" fill="#E7C691"/>
<rect x="426" width="4" height="700" fill="#E7C691"/>
<rect x="374" width="4" height="700" fill="#E7C691"/>
<rect x="296" width="4" height="700" fill="#E7C691"/>
<rect x="270" width="4" height="700" fill="#E7C691"/>
<path d="M348.268 560C349.038 558.667 350.962 558.667 351.732 560L355.196 566C355.966 567.333 355.004 569 353.464 569H346.536C344.996 569 344.034 567.333 344.804 566L348.268 560Z" fill="#3E4244"/>
<path d="M322.268 586C323.038 584.667 324.962 584.667 325.732 586L329.196 592C329.966 593.333 329.004 595 327.464 595H320.536C318.996 595 318.034 593.333 318.804 592L322.268 586Z" fill="#3E4244"/>
<path d="M374.268 586C375.038 584.667 376.962 584.667 377.732 586L381.196 592C381.966 593.333 381.004 595 379.464 595H372.536C370.996 595 370.034 593.333 370.804 592L374.268 586Z" fill="#3E4244"/>
<path d="M400.268 612C401.038 610.667 402.962 610.667 403.732 612L407.196 618C407.966 619.333 407.004 621 405.464 621H398.536C396.996 621 396.034 619.333 396.804 618L400.268 612Z" fill="#3E4244"/>
<path d="M296.268 612C297.038 610.667 298.962 610.667 299.732 612L303.196 618C303.966 619.333 303.004 621 301.464 621H294.536C292.996 621 292.034 619.333 292.804 618L296.268 612Z" fill="#3E4244"/>
<g opacity="0.2">
<circle cx="352" cy="135" r="10" fill="#3E4244"/>
<circle cx="352" cy="79" r="10" fill="#3E4244"/>
<circle cx="322" cy="79" r="10" fill="#3E4244"/>
<circle cx="382" cy="79" r="10" fill="#3E4244"/>
<circle cx="337" cy="107" r="10" fill="#3E4244"/>
<circle cx="337" cy="51" r="10" fill="#3E4244"/>
<circle cx="307" cy="51" r="10" fill="#3E4244"/>
<circle cx="367" cy="107" r="10" fill="#3E4244"/>
<circle cx="367" cy="51" r="10" fill="#3E4244"/>
<circle cx="397" cy="51" r="10" fill="#3E4244"/>
</g>
<circle cx="350" cy="133" r="10" fill="#FFFFF9"/>
<circle cx="350" cy="77" r="10" fill="#FFFFF9"/>
<circle cx="320" cy="77" r="10" fill="#FFFFF9"/>
<circle cx="380" cy="77" r="10" fill="#FFFFF9"/>
<circle cx="335" cy="105" r="10" fill="#FFFFF9"/>
<circle cx="335" cy="49" r="10" fill="#FFFFF9"/>
<circle cx="305" cy="49" r="10" fill="#FFFFF9"/>
<circle cx="365" cy="105" r="10" fill="#FFFFF9"/>
<circle cx="365" cy="49" r="10" fill="#FFFFF9"/>
<circle cx="395" cy="49" r="10" fill="#FFFFF9"/>
</svg>
