<svg width="700" height="606" viewBox="0 0 700 606" fill="none" xmlns="http://www.w3.org/2000/svg">
<path d="M0 606L350 -1.81198e-05L700 606H0Z" fill="#038063"/>
<path fill-rule="evenodd" clip-rule="evenodd" d="M357.155 12.3885L700 606H14.3102L357.155 12.3885Z" fill="#0DC192"/>
<path opacity="0.2" d="M352.17 298.501L260.401 457.501C258.477 460.834 260.883 465 264.732 465H448.268C452.117 465 454.523 460.834 452.599 457.501L360.83 298.501C358.906 295.167 354.094 295.167 352.17 298.501Z" stroke="#3E4244" stroke-width="8"/>
<path d="M346.17 295.501L254.401 454.501C252.477 457.834 254.883 462 258.732 462H442.268C446.117 462 448.523 457.834 446.599 454.501L354.83 295.501C352.906 292.167 348.094 292.167 346.17 295.501Z" stroke="#3E4244" stroke-width="8"/>
<g filter="url(#filter0_i_2460_1480)">
<circle cx="288" cy="440" r="18" fill="#365558"/>
<circle cx="288" cy="440" r="9" fill="white"/>
<path d="M288.295 446.159C287.739 446.155 287.195 446.059 286.665 445.869C286.134 445.676 285.657 445.364 285.233 444.932C284.809 444.496 284.472 443.919 284.222 443.199C283.972 442.475 283.848 441.58 283.852 440.511C283.852 439.515 283.958 438.627 284.17 437.847C284.383 437.066 284.688 436.407 285.085 435.869C285.483 435.328 285.962 434.915 286.523 434.631C287.087 434.347 287.718 434.205 288.415 434.205C289.146 434.205 289.794 434.348 290.358 434.636C290.926 434.924 291.384 435.318 291.733 435.818C292.081 436.314 292.297 436.875 292.381 437.5H290.307C290.201 437.053 289.983 436.697 289.653 436.432C289.328 436.163 288.915 436.028 288.415 436.028C287.608 436.028 286.987 436.379 286.551 437.08C286.119 437.78 285.902 438.742 285.898 439.966H285.977C286.163 439.633 286.403 439.347 286.699 439.108C286.994 438.869 287.328 438.686 287.699 438.557C288.074 438.424 288.47 438.358 288.886 438.358C289.568 438.358 290.18 438.521 290.722 438.847C291.267 439.172 291.699 439.621 292.017 440.193C292.335 440.761 292.492 441.413 292.489 442.148C292.492 442.913 292.318 443.6 291.966 444.21C291.614 444.816 291.123 445.294 290.494 445.642C289.866 445.991 289.133 446.163 288.295 446.159ZM288.284 444.455C288.697 444.455 289.066 444.354 289.392 444.153C289.718 443.953 289.975 443.682 290.165 443.341C290.354 443 290.447 442.617 290.443 442.193C290.447 441.777 290.356 441.4 290.17 441.062C289.989 440.725 289.737 440.458 289.415 440.261C289.093 440.064 288.725 439.966 288.312 439.966C288.006 439.966 287.72 440.025 287.455 440.142C287.189 440.259 286.958 440.422 286.761 440.631C286.564 440.835 286.409 441.074 286.295 441.347C286.186 441.616 286.129 441.903 286.125 442.21C286.129 442.616 286.223 442.989 286.409 443.33C286.595 443.67 286.85 443.943 287.176 444.148C287.502 444.352 287.871 444.455 288.284 444.455Z" fill="#3E4244"/>
</g>
<g filter="url(#filter1_i_2460_1480)">
<circle cx="350" cy="334" r="18" fill="#EDE6D6"/>
<circle cx="350" cy="334" r="9" fill="white"/>
<path d="M350.767 328.364V340H348.659V330.415H348.591L345.869 332.153V330.222L348.761 328.364H350.767Z" fill="#3E4244"/>
</g>
<g filter="url(#filter2_i_2460_1480)">
<circle cx="329" cy="368" r="18" fill="#99000B"/>
<circle cx="329" cy="368" r="9" fill="white"/>
<path d="M325.034 374V372.477L329.074 368.517C329.46 368.127 329.782 367.78 330.04 367.477C330.297 367.174 330.491 366.881 330.619 366.597C330.748 366.312 330.812 366.009 330.812 365.688C330.812 365.32 330.729 365.006 330.562 364.744C330.396 364.479 330.167 364.275 329.875 364.131C329.583 363.987 329.252 363.915 328.881 363.915C328.498 363.915 328.163 363.994 327.875 364.153C327.587 364.309 327.364 364.53 327.205 364.818C327.049 365.106 326.972 365.449 326.972 365.847H324.966C324.966 365.108 325.134 364.466 325.472 363.92C325.809 363.375 326.273 362.953 326.864 362.653C327.458 362.354 328.14 362.205 328.909 362.205C329.689 362.205 330.375 362.35 330.966 362.642C331.557 362.934 332.015 363.333 332.341 363.841C332.67 364.348 332.835 364.928 332.835 365.58C332.835 366.015 332.752 366.443 332.585 366.864C332.419 367.284 332.125 367.75 331.705 368.261C331.288 368.773 330.703 369.392 329.949 370.119L327.943 372.159V372.239H333.011V374H325.034Z" fill="#3E4244"/>
</g>
<g filter="url(#filter3_i_2460_1480)">
<circle cx="371" cy="368" r="18" fill="#FC7D00"/>
<circle cx="371" cy="368" r="9" fill="white"/>
<path d="M371.21 374.159C370.392 374.159 369.665 374.019 369.028 373.739C368.396 373.458 367.896 373.068 367.528 372.568C367.161 372.068 366.966 371.491 366.943 370.835H369.08C369.098 371.15 369.203 371.424 369.392 371.659C369.581 371.89 369.833 372.07 370.148 372.199C370.462 372.328 370.814 372.392 371.205 372.392C371.621 372.392 371.991 372.32 372.312 372.176C372.634 372.028 372.886 371.824 373.068 371.562C373.25 371.301 373.339 371 373.335 370.659C373.339 370.307 373.248 369.996 373.062 369.727C372.877 369.458 372.608 369.248 372.256 369.097C371.907 368.945 371.487 368.869 370.994 368.869H369.966V367.244H370.994C371.4 367.244 371.754 367.174 372.057 367.034C372.364 366.894 372.604 366.697 372.778 366.443C372.953 366.186 373.038 365.888 373.034 365.551C373.038 365.222 372.964 364.936 372.812 364.693C372.665 364.447 372.455 364.256 372.182 364.119C371.913 363.983 371.597 363.915 371.233 363.915C370.877 363.915 370.547 363.979 370.244 364.108C369.941 364.237 369.697 364.42 369.511 364.659C369.326 364.894 369.227 365.174 369.216 365.5H367.188C367.203 364.848 367.39 364.277 367.75 363.784C368.114 363.288 368.598 362.902 369.205 362.625C369.811 362.345 370.491 362.205 371.244 362.205C372.021 362.205 372.695 362.35 373.267 362.642C373.843 362.93 374.288 363.318 374.602 363.807C374.917 364.295 375.074 364.835 375.074 365.426C375.078 366.081 374.884 366.631 374.494 367.074C374.108 367.517 373.6 367.807 372.972 367.943V368.034C373.79 368.148 374.417 368.451 374.852 368.943C375.292 369.432 375.509 370.04 375.506 370.767C375.506 371.419 375.32 372.002 374.949 372.517C374.581 373.028 374.074 373.43 373.426 373.722C372.782 374.013 372.044 374.159 371.21 374.159Z" fill="#3E4244"/>
</g>
<g filter="url(#filter4_i_2460_1480)">
<circle cx="308" cy="404" r="18" fill="#590485"/>
<circle cx="308" cy="404" r="9" fill="white"/>
<path d="M303.824 407.841V406.165L308.761 398.364H310.159V400.75H309.307L305.983 406.017V406.108H312.875V407.841H303.824ZM309.375 410V407.33L309.398 406.58V398.364H311.386V410H309.375Z" fill="#3E4244"/>
</g>
<g filter="url(#filter5_i_2460_1480)">
<circle cx="392" cy="404" r="18" fill="#01474F"/>
<circle cx="392" cy="404" r="9" fill="white"/>
<path d="M392.08 410.159C391.322 410.159 390.644 410.017 390.045 409.733C389.447 409.445 388.972 409.051 388.619 408.551C388.271 408.051 388.085 407.479 388.062 406.835H390.108C390.146 407.312 390.352 407.703 390.727 408.006C391.102 408.305 391.553 408.455 392.08 408.455C392.492 408.455 392.86 408.36 393.182 408.17C393.504 407.981 393.758 407.718 393.943 407.381C394.129 407.044 394.22 406.659 394.216 406.227C394.22 405.788 394.127 405.398 393.938 405.057C393.748 404.716 393.489 404.449 393.159 404.256C392.83 404.059 392.451 403.96 392.023 403.96C391.674 403.956 391.331 404.021 390.994 404.153C390.657 404.286 390.39 404.46 390.193 404.676L388.29 404.364L388.898 398.364H395.648V400.125H390.642L390.307 403.21H390.375C390.591 402.956 390.896 402.746 391.29 402.58C391.684 402.409 392.116 402.324 392.585 402.324C393.29 402.324 393.919 402.491 394.472 402.824C395.025 403.153 395.46 403.608 395.778 404.188C396.097 404.767 396.256 405.43 396.256 406.176C396.256 406.945 396.078 407.631 395.722 408.233C395.369 408.831 394.879 409.303 394.25 409.648C393.625 409.989 392.902 410.159 392.08 410.159Z" fill="#3E4244"/>
</g>
<g filter="url(#filter6_i_2460_1480)">
<circle cx="329" cy="440" r="18" fill="#FF0707"/>
<circle cx="329" cy="440" r="9" fill="white"/>
<path d="M325.46 446L330.409 436.205V436.125H324.665V434.364H332.591V436.165L327.648 446H325.46Z" fill="#3E4244"/>
</g>
<g filter="url(#filter7_i_2460_1480)">
<circle cx="371" cy="440" r="18" fill="#004BCB"/>
<circle cx="371" cy="440" r="9" fill="white"/>
<path opacity="0.9" d="M371.074 434.205C371.631 434.208 372.172 434.307 372.699 434.5C373.229 434.689 373.706 435 374.131 435.432C374.555 435.86 374.892 436.434 375.142 437.153C375.392 437.873 375.517 438.763 375.517 439.824C375.521 440.824 375.415 441.718 375.199 442.506C374.987 443.29 374.682 443.953 374.284 444.494C373.886 445.036 373.407 445.449 372.847 445.733C372.286 446.017 371.655 446.159 370.955 446.159C370.22 446.159 369.568 446.015 369 445.727C368.436 445.439 367.979 445.045 367.631 444.545C367.282 444.045 367.068 443.473 366.989 442.83H369.062C369.169 443.292 369.384 443.659 369.71 443.932C370.04 444.201 370.455 444.335 370.955 444.335C371.761 444.335 372.383 443.985 372.818 443.284C373.254 442.583 373.472 441.61 373.472 440.364H373.392C373.206 440.697 372.966 440.985 372.67 441.227C372.375 441.466 372.04 441.65 371.665 441.778C371.294 441.907 370.9 441.972 370.483 441.972C369.801 441.972 369.188 441.809 368.642 441.483C368.1 441.157 367.67 440.71 367.352 440.142C367.038 439.574 366.879 438.924 366.875 438.193C366.875 437.436 367.049 436.756 367.398 436.153C367.75 435.547 368.241 435.07 368.869 434.722C369.498 434.369 370.233 434.197 371.074 434.205ZM371.08 435.909C370.67 435.909 370.301 436.009 369.972 436.21C369.646 436.407 369.388 436.676 369.199 437.017C369.013 437.354 368.92 437.731 368.92 438.148C368.924 438.561 369.017 438.936 369.199 439.273C369.384 439.61 369.636 439.877 369.955 440.074C370.277 440.271 370.644 440.369 371.057 440.369C371.364 440.369 371.65 440.311 371.915 440.193C372.18 440.076 372.411 439.913 372.608 439.705C372.809 439.492 372.964 439.252 373.074 438.983C373.188 438.714 373.242 438.43 373.239 438.131C373.239 437.733 373.144 437.366 372.955 437.028C372.769 436.691 372.513 436.42 372.188 436.216C371.866 436.011 371.496 435.909 371.08 435.909Z" fill="#3E4244"/>
</g>
<g filter="url(#filter8_i_2460_1480)">
<circle cx="413" cy="440" r="18" fill="#FAC800"/>
<circle cx="413" cy="440" r="9" fill="white"/>
<path d="M413.335 446.222C412.4 446.222 411.597 445.985 410.926 445.511C410.259 445.034 409.746 444.347 409.386 443.449C409.03 442.547 408.852 441.462 408.852 440.193C408.856 438.924 409.036 437.845 409.392 436.955C409.752 436.061 410.265 435.379 410.932 434.909C411.602 434.439 412.403 434.205 413.335 434.205C414.267 434.205 415.068 434.439 415.739 434.909C416.409 435.379 416.922 436.061 417.278 436.955C417.638 437.848 417.818 438.928 417.818 440.193C417.818 441.466 417.638 442.553 417.278 443.455C416.922 444.352 416.409 445.038 415.739 445.511C415.072 445.985 414.271 446.222 413.335 446.222ZM413.335 444.443C414.063 444.443 414.636 444.085 415.057 443.369C415.481 442.65 415.693 441.591 415.693 440.193C415.693 439.269 415.597 438.492 415.403 437.864C415.21 437.235 414.938 436.761 414.585 436.443C414.233 436.121 413.816 435.96 413.335 435.96C412.612 435.96 412.04 436.32 411.619 437.04C411.199 437.756 410.987 438.807 410.983 440.193C410.979 441.121 411.072 441.902 411.261 442.534C411.455 443.167 411.727 443.644 412.08 443.966C412.432 444.284 412.85 444.443 413.335 444.443Z" fill="#3E4244"/>
</g>
<defs>
<filter id="filter0_i_2460_1480" x="270" y="422" width="36" height="36" filterUnits="userSpaceOnUse" color-interpolation-filters="sRGB">
<feFlood flood-opacity="0" result="BackgroundImageFix"/>
<feBlend mode="normal" in="SourceGraphic" in2="BackgroundImageFix" result="shape"/>
<feColorMatrix in="SourceAlpha" type="matrix" values="0 0 0 0 0 0 0 0 0 0 0 0 0 0 0 0 0 0 127 0" result="hardAlpha"/>
<feOffset dx="-3.5" dy="-3.5"/>
<feComposite in2="hardAlpha" operator="arithmetic" k2="-1" k3="1"/>
<feColorMatrix type="matrix" values="0 0 0 0 0 0 0 0 0 0 0 0 0 0 0 0 0 0 0.1 0"/>
<feBlend mode="normal" in2="shape" result="effect1_innerShadow_2460_1480"/>
</filter>
<filter id="filter1_i_2460_1480" x="332" y="316" width="36" height="36" filterUnits="userSpaceOnUse" color-interpolation-filters="sRGB">
<feFlood flood-opacity="0" result="BackgroundImageFix"/>
<feBlend mode="normal" in="SourceGraphic" in2="BackgroundImageFix" result="shape"/>
<feColorMatrix in="SourceAlpha" type="matrix" values="0 0 0 0 0 0 0 0 0 0 0 0 0 0 0 0 0 0 127 0" result="hardAlpha"/>
<feOffset dx="-3.5" dy="-3.5"/>
<feComposite in2="hardAlpha" operator="arithmetic" k2="-1" k3="1"/>
<feColorMatrix type="matrix" values="0 0 0 0 0 0 0 0 0 0 0 0 0 0 0 0 0 0 0.1 0"/>
<feBlend mode="normal" in2="shape" result="effect1_innerShadow_2460_1480"/>
</filter>
<filter id="filter2_i_2460_1480" x="311" y="350" width="36" height="36" filterUnits="userSpaceOnUse" color-interpolation-filters="sRGB">
<feFlood flood-opacity="0" result="BackgroundImageFix"/>
<feBlend mode="normal" in="SourceGraphic" in2="BackgroundImageFix" result="shape"/>
<feColorMatrix in="SourceAlpha" type="matrix" values="0 0 0 0 0 0 0 0 0 0 0 0 0 0 0 0 0 0 127 0" result="hardAlpha"/>
<feOffset dx="-3.5" dy="-3.5"/>
<feComposite in2="hardAlpha" operator="arithmetic" k2="-1" k3="1"/>
<feColorMatrix type="matrix" values="0 0 0 0 0 0 0 0 0 0 0 0 0 0 0 0 0 0 0.1 0"/>
<feBlend mode="normal" in2="shape" result="effect1_innerShadow_2460_1480"/>
</filter>
<filter id="filter3_i_2460_1480" x="353" y="350" width="36" height="36" filterUnits="userSpaceOnUse" color-interpolation-filters="sRGB">
<feFlood flood-opacity="0" result="BackgroundImageFix"/>
<feBlend mode="normal" in="SourceGraphic" in2="BackgroundImageFix" result="shape"/>
<feColorMatrix in="SourceAlpha" type="matrix" values="0 0 0 0 0 0 0 0 0 0 0 0 0 0 0 0 0 0 127 0" result="hardAlpha"/>
<feOffset dx="-3.5" dy="-3.5"/>
<feComposite in2="hardAlpha" operator="arithmetic" k2="-1" k3="1"/>
<feColorMatrix type="matrix" values="0 0 0 0 0 0 0 0 0 0 0 0 0 0 0 0 0 0 0.1 0"/>
<feBlend mode="normal" in2="shape" result="effect1_innerShadow_2460_1480"/>
</filter>
<filter id="filter4_i_2460_1480" x="290" y="386" width="36" height="36" filterUnits="userSpaceOnUse" color-interpolation-filters="sRGB">
<feFlood flood-opacity="0" result="BackgroundImageFix"/>
<feBlend mode="normal" in="SourceGraphic" in2="BackgroundImageFix" result="shape"/>
<feColorMatrix in="SourceAlpha" type="matrix" values="0 0 0 0 0 0 0 0 0 0 0 0 0 0 0 0 0 0 127 0" result="hardAlpha"/>
<feOffset dx="-3.5" dy="-3.5"/>
<feComposite in2="hardAlpha" operator="arithmetic" k2="-1" k3="1"/>
<feColorMatrix type="matrix" values="0 0 0 0 0 0 0 0 0 0 0 0 0 0 0 0 0 0 0.1 0"/>
<feBlend mode="normal" in2="shape" result="effect1_innerShadow_2460_1480"/>
</filter>
<filter id="filter5_i_2460_1480" x="374" y="386" width="36" height="36" filterUnits="userSpaceOnUse" color-interpolation-filters="sRGB">
<feFlood flood-opacity="0" result="BackgroundImageFix"/>
<feBlend mode="normal" in="SourceGraphic" in2="BackgroundImageFix" result="shape"/>
<feColorMatrix in="SourceAlpha" type="matrix" values="0 0 0 0 0 0 0 0 0 0 0 0 0 0 0 0 0 0 127 0" result="hardAlpha"/>
<feOffset dx="-3.5" dy="-3.5"/>
<feComposite in2="hardAlpha" operator="arithmetic" k2="-1" k3="1"/>
<feColorMatrix type="matrix" values="0 0 0 0 0 0 0 0 0 0 0 0 0 0 0 0 0 0 0.1 0"/>
<feBlend mode="normal" in2="shape" result="effect1_innerShadow_2460_1480"/>
</filter>
<filter id="filter6_i_2460_1480" x="311" y="422" width="36" height="36" filterUnits="userSpaceOnUse" color-interpolation-filters="sRGB">
<feFlood flood-opacity="0" result="BackgroundImageFix"/>
<feBlend mode="normal" in="SourceGraphic" in2="BackgroundImageFix" result="shape"/>
<feColorMatrix in="SourceAlpha" type="matrix" values="0 0 0 0 0 0 0 0 0 0 0 0 0 0 0 0 0 0 127 0" result="hardAlpha"/>
<feOffset dx="-3.5" dy="-3.5"/>
<feComposite in2="hardAlpha" operator="arithmetic" k2="-1" k3="1"/>
<feColorMatrix type="matrix" values="0 0 0 0 0 0 0 0 0 0 0 0 0 0 0 0 0 0 0.1 0"/>
<feBlend mode="normal" in2="shape" result="effect1_innerShadow_2460_1480"/>
</filter>
<filter id="filter7_i_2460_1480" x="353" y="422" width="36" height="36" filterUnits="userSpaceOnUse" color-interpolation-filters="sRGB">
<feFlood flood-opacity="0" result="BackgroundImageFix"/>
<feBlend mode="normal" in="SourceGraphic" in2="BackgroundImageFix" result="shape"/>
<feColorMatrix in="SourceAlpha" type="matrix" values="0 0 0 0 0 0 0 0 0 0 0 0 0 0 0 0 0 0 127 0" result="hardAlpha"/>
<feOffset dx="-3.5" dy="-3.5"/>
<feComposite in2="hardAlpha" operator="arithmetic" k2="-1" k3="1"/>
<feColorMatrix type="matrix" values="0 0 0 0 0 0 0 0 0 0 0 0 0 0 0 0 0 0 0.1 0"/>
<feBlend mode="normal" in2="shape" result="effect1_innerShadow_2460_1480"/>
</filter>
<filter id="filter8_i_2460_1480" x="395" y="422" width="36" height="36" filterUnits="userSpaceOnUse" color-interpolation-filters="sRGB">
<feFlood flood-opacity="0" result="BackgroundImageFix"/>
<feBlend mode="normal" in="SourceGraphic" in2="BackgroundImageFix" result="shape"/>
<feColorMatrix in="SourceAlpha" type="matrix" values="0 0 0 0 0 0 0 0 0 0 0 0 0 0 0 0 0 0 127 0" result="hardAlpha"/>
<feOffset dx="-3.5" dy="-3.5"/>
<feComposite in2="hardAlpha" operator="arithmetic" k2="-1" k3="1"/>
<feColorMatrix type="matrix" values="0 0 0 0 0 0 0 0 0 0 0 0 0 0 0 0 0 0 0.1 0"/>
<feBlend mode="normal" in2="shape" result="effect1_innerShadow_2460_1480"/>
</filter>
</defs>
</svg>
