<svg width="700" height="700" viewBox="0 0 700 700" fill="none" xmlns="http://www.w3.org/2000/svg">
<rect y="700" width="700" height="700" transform="rotate(-90 0 700)" fill="#019E73"/>
<line x1="8.74228e-08" y1="348" x2="700" y2="348" stroke="#FFFFF9" stroke-width="4"/>
<circle cx="350.5" cy="349.5" r="65.5" transform="matrix(0 -1 1 0 1 700)" stroke="#FFFFF9" stroke-width="4"/>
<mask id="path-4-inside-1_1723_15535" fill="white">
<path d="M245 700V615C245 608.373 250.373 603 257 603H443C449.627 603 455 608.373 455 615V700H245Z"/>
</mask>
<path d="M241 700V615C241 606.163 248.163 599 257 599V607C252.582 607 249 610.582 249 615V700H241ZM443 599C451.837 599 459 606.163 459 615V700H451V615C451 610.582 447.418 607 443 607V599ZM455 700H245H455ZM241 615C241 606.163 248.163 599 257 599H443C451.837 599 459 606.163 459 615H451C451 610.582 447.418 607 443 607H257C252.582 607 249 610.582 249 615H241Z" fill="#E8EEED" mask="url(#path-4-inside-1_1723_15535)"/>
<mask id="path-6-inside-2_1723_15535" fill="white">
<path d="M245 0V85C245 91.6274 250.373 97 257 97L443 97C449.627 97 455 91.6274 455 85V0L245 0Z"/>
</mask>
<path d="M241 0V85C241 93.8366 248.163 101 257 101V93C252.582 93 249 89.4183 249 85V0L241 0ZM443 101C451.837 101 459 93.8366 459 85V0L451 0V85C451 89.4183 447.418 93 443 93V101ZM455 0L245 0L455 0ZM241 85C241 93.8366 248.163 101 257 101L443 101C451.837 101 459 93.8366 459 85H451C451 89.4183 447.418 93 443 93L257 93C252.582 93 249 89.4183 249 85H241Z" fill="#E8EEED" mask="url(#path-6-inside-2_1723_15535)"/>
</svg>
