<svg width="1202" height="756" viewBox="0 0 1202 756" fill="none" xmlns="http://www.w3.org/2000/svg">
<g filter="url(#filter0_d_1723_15534)">
<rect x="8" y="8" width="1176" height="736" rx="32" fill="#FDCA6B" stroke="#FFFFF9" stroke-width="16"/>
<line x1="598" y1="16" x2="598" y2="736" stroke="#FFFFF9" stroke-width="4"/>
<circle cx="596" cy="376" r="68" stroke="#FFFFF9" stroke-width="4"/>
<path d="M918 306C908.807 306 899.705 307.811 891.212 311.328C882.719 314.846 875.003 320.002 868.503 326.503C862.002 333.003 856.846 340.719 853.328 349.212C849.811 357.705 848 366.807 848 376C848 385.193 849.811 394.295 853.328 402.788C856.846 411.281 862.002 418.997 868.503 425.497C875.003 431.998 882.719 437.154 891.212 440.672C899.705 444.189 908.807 446 918 446" stroke="#FFFFF9" stroke-width="4"/>
<path d="M273.5 306C282.693 306 291.795 307.811 300.288 311.328C308.781 314.846 316.497 320.002 322.997 326.503C329.498 333.003 334.654 340.719 338.172 349.212C341.689 357.705 343.5 366.807 343.5 376C343.5 385.193 341.689 394.295 338.172 402.788C334.654 411.281 329.498 418.997 322.997 425.497C316.497 431.998 308.781 437.154 300.288 440.672C291.795 444.189 282.693 446 273.5 446" stroke="#FFFFF9" stroke-width="4"/>
<path d="M918 306C927.193 306 936.295 307.811 944.788 311.328C953.281 314.846 960.997 320.002 967.497 326.503C973.998 333.003 979.154 340.719 982.672 349.212C986.189 357.705 988 366.807 988 376C988 385.193 986.189 394.295 982.672 402.788C979.154 411.281 973.998 418.997 967.497 425.497C960.997 431.998 953.281 437.154 944.788 440.672C936.295 444.189 927.193 446 918 446" stroke="#FFFFF9" stroke-width="2" stroke-dasharray="8 8"/>
<path d="M273.5 306C264.307 306 255.205 307.811 246.712 311.328C238.219 314.846 230.503 320.002 224.003 326.503C217.502 333.003 212.346 340.719 208.828 349.212C205.311 357.705 203.5 366.807 203.5 376C203.5 385.193 205.311 394.295 208.828 402.788C212.346 411.281 217.502 418.997 224.003 425.497C230.503 431.998 238.219 437.154 246.712 440.672C255.205 444.189 264.307 446 273.5 446" stroke="#FFFFF9" stroke-width="2" stroke-dasharray="8 8"/>
<path d="M1175.5 124C1129.47 124 1083.89 130.518 1041.37 143.182C998.845 155.847 960.206 174.409 927.659 197.809C895.112 221.209 869.294 248.99 851.68 279.564C834.066 310.138 825 342.907 825 376C825 409.093 834.066 441.862 851.68 472.436C869.295 503.01 895.112 530.791 927.659 554.191C960.206 577.591 998.845 596.153 1041.37 608.818C1083.89 621.482 1129.47 628 1175.5 628" stroke="#FFFFF9" stroke-width="4"/>
<path d="M16 124C62.0283 124 107.606 130.518 150.131 143.182C192.655 155.847 231.294 174.409 263.841 197.809C296.388 221.209 322.206 248.99 339.82 279.564C357.434 310.138 366.5 342.907 366.5 376C366.5 409.093 357.434 441.862 339.82 472.436C322.205 503.01 296.388 530.791 263.841 554.191C231.294 577.591 192.655 596.153 150.131 608.818C107.606 621.482 62.0283 628 16 628" stroke="#FFFFF9" stroke-width="4"/>
<path d="M918 306V304H916V306H918ZM918 446H916V448H918V446ZM918 308H1176V304H918V308ZM1176 444H918V448H1176V444ZM920 446V306H916V446H920Z" fill="#FFFFF9"/>
<path d="M273 306V304H275V306H273ZM273 446H275V448H273V446ZM273 308H16V304H273V308ZM16 444H273V448H16V444ZM271 446V306H275V446H271Z" fill="#FFFFF9"/>
</g>
<defs>
<filter id="filter0_d_1723_15534" x="0" y="0" width="1202" height="762" filterUnits="userSpaceOnUse" color-interpolation-filters="sRGB">
<feFlood flood-opacity="0" result="BackgroundImageFix"/>
<feColorMatrix in="SourceAlpha" type="matrix" values="0 0 0 0 0 0 0 0 0 0 0 0 0 0 0 0 0 0 127 0" result="hardAlpha"/>
<feOffset dx="10" dy="10"/>
<feComposite in2="hardAlpha" operator="out"/>
<feColorMatrix type="matrix" values="0 0 0 0 0 0 0 0 0 0 0 0 0 0 0 0 0 0 0.1 0"/>
<feBlend mode="normal" in2="BackgroundImageFix" result="effect1_dropShadow_1723_15534"/>
<feBlend mode="normal" in="SourceGraphic" in2="effect1_dropShadow_1723_15534" result="shape"/>
</filter>
</defs>
</svg>
