<svg width="1920" height="1080" viewBox="0 0 1920 1080" fill="none" xmlns="http://www.w3.org/2000/svg">
<path d="M-48.5762 -364.482L938.086 463.425M1069.64 573.813L2056.3 1401.72" stroke="#FFFFFA" stroke-width="8"/>
<g opacity="0.1" filter="url(#filter0_f_2127_2703)">
<path fill-rule="evenodd" clip-rule="evenodd" d="M1517.76 -51.5151L1517.78 -51.5356L1500.23 -66.254L1500.22 -66.2334L1495.83 -69.913L502.343 1114.08L546.195 1150.88L549.874 1146.49L532.333 1131.77L544.262 1117.56L561.802 1132.28L565.482 1127.89L547.941 1113.17L562.643 1095.65L580.184 1110.37L583.863 1105.99L566.323 1091.27L581.025 1073.75L598.565 1088.46L602.245 1084.08L584.704 1069.36L599.406 1051.84L616.947 1066.56L620.626 1062.17L603.086 1047.45L617.788 1029.93L635.328 1044.65L639.008 1040.27L621.467 1025.55L636.169 1008.03L653.71 1022.75L657.389 1018.36L639.849 1003.64L654.551 986.121L672.091 1000.84L675.771 996.454L658.23 981.736L672.932 964.215L690.473 978.933L694.152 974.548L676.612 959.83L691.314 942.309L708.854 957.027L712.534 952.642L694.993 937.924L709.695 920.403L727.236 935.121L730.915 930.736L713.375 916.017L728.077 898.496L745.617 913.215L749.297 908.83L731.756 894.111L746.458 876.59L763.999 891.309L767.678 886.923L750.138 872.205L764.84 854.684L782.38 869.402L786.06 865.017L768.519 850.299L783.221 832.778L800.762 847.496L804.441 843.111L786.901 828.393L801.603 810.872L819.143 825.59L822.823 821.205L805.282 806.486L819.984 788.965L837.525 803.684L841.204 799.299L823.664 784.58L838.366 767.059L855.906 781.777L859.586 777.392L842.045 762.674L856.747 745.153L874.288 759.871L877.967 755.486L860.427 740.768L875.129 723.247L892.669 737.965L896.349 733.58L878.808 718.861L893.51 701.34L911.051 716.059L914.73 711.674L897.19 696.955L911.892 679.434L929.432 694.153L933.112 689.767L915.571 675.049L930.273 657.528L947.814 672.246L951.493 667.861L933.953 653.143L948.655 635.622L966.195 650.34L969.875 645.955L952.334 631.237L967.036 613.716L984.577 628.434L988.256 624.049L970.716 609.33L985.418 591.809L1002.96 606.528L1006.64 602.143L989.097 587.424L1003.8 569.903L1021.34 584.622L1025.02 580.236L1007.48 565.518L1022.18 547.997L1039.72 562.715L1043.4 558.33L1025.86 543.612L1040.56 526.091L1058.1 540.809L1061.78 536.424L1044.24 521.706L1058.94 504.185L1076.48 518.903L1080.16 514.518L1062.62 499.799L1077.33 482.278L1094.87 496.997L1098.55 492.611L1081 477.893L1095.71 460.372L1113.25 475.09L1116.93 470.705L1099.39 455.987L1114.09 438.466L1131.63 453.184L1135.31 448.799L1117.77 434.081L1132.47 416.56L1150.01 431.278L1153.69 426.893L1136.15 412.174L1150.85 394.653L1168.39 409.372L1172.07 404.987L1154.53 390.268L1169.23 372.747L1186.77 387.466L1190.45 383.08L1172.91 368.362L1187.61 350.841L1205.15 365.559L1208.83 361.174L1191.29 346.456L1206 328.935L1223.54 343.653L1227.22 339.268L1209.68 324.55L1224.38 307.029L1241.92 321.747L1245.6 317.362L1228.06 302.643L1242.76 285.122L1260.3 299.841L1263.98 295.456L1246.44 280.737L1261.14 263.216L1278.68 277.934L1282.36 273.549L1264.82 258.831L1279.52 241.31L1297.06 256.028L1300.74 251.643L1283.2 236.925L1297.9 219.404L1315.44 234.122L1319.12 229.737L1301.58 215.019L1316.28 197.497L1333.83 212.216L1337.5 207.831L1319.96 193.112L1334.67 175.591L1352.21 190.31L1355.89 185.924L1338.35 171.206L1353.05 153.685L1370.59 168.403L1374.27 164.018L1356.73 149.3L1371.43 131.779L1388.97 146.497L1392.65 142.112L1375.11 127.394L1389.81 109.873L1407.35 124.591L1411.03 120.206L1393.49 105.487L1408.19 87.9664L1425.73 102.685L1429.41 98.2996L1411.87 83.5812L1426.57 66.0602L1444.11 80.7786L1447.79 76.3934L1430.25 61.675L1444.96 44.154L1462.5 58.8723L1466.18 54.4872L1448.63 39.7688L1463.34 22.2478L1480.88 36.9661L1484.56 32.581L1467.02 17.8626L1481.72 0.341542L1499.26 15.0599L1502.94 10.6747L1485.4 -4.04362L1500.1 -21.5647L1517.64 -6.84631L1521.32 -11.2315L1503.78 -25.9498L1518.48 -43.4709L1536.02 -28.7525L1539.7 -33.1377L1522.16 -47.8561L1522.14 -47.8355L1517.76 -51.5151ZM1496.56 -61.8688L1514.1 -47.1505L1499.39 -29.6294L1481.85 -44.3478L1496.56 -61.8688ZM510.408 1113.38L522.336 1099.16L539.877 1113.88L527.948 1128.09L510.408 1113.38ZM526.015 1094.78L540.717 1077.25L558.258 1091.97L543.556 1109.49L526.015 1094.78ZM544.397 1072.87L559.099 1055.35L576.64 1070.07L561.938 1087.59L544.397 1072.87ZM562.778 1050.96L577.48 1033.44L595.021 1048.16L580.319 1065.68L562.778 1050.96ZM581.16 1029.06L595.862 1011.54L613.403 1026.25L598.701 1043.78L581.16 1029.06ZM599.541 1007.15L614.243 989.63L631.784 1004.35L617.082 1021.87L599.541 1007.15ZM617.923 985.244L632.625 967.723L650.166 982.442L635.464 999.963L617.923 985.244ZM636.304 963.338L651.006 945.817L668.547 960.535L653.845 978.056L636.304 963.338ZM654.686 941.432L669.388 923.911L686.929 938.629L672.227 956.15L654.686 941.432ZM673.067 919.526L687.769 902.005L705.31 916.723L690.608 934.244L673.067 919.526ZM691.449 897.619L706.151 880.098L723.691 894.817L708.99 912.338L691.449 897.619ZM709.83 875.713L724.532 858.192L742.073 872.911L727.371 890.432L709.83 875.713ZM728.212 853.807L742.914 836.286L760.454 851.004L745.753 868.525L728.212 853.807ZM746.593 831.901L761.295 814.38L778.836 829.098L764.134 846.619L746.593 831.901ZM764.975 809.995L779.677 792.474L797.217 807.192L782.516 824.713L764.975 809.995ZM783.356 788.088L798.058 770.567L815.599 785.286L800.897 802.807L783.356 788.088ZM801.738 766.182L816.44 748.661L833.98 763.379L819.279 780.901L801.738 766.182ZM820.119 744.276L834.821 726.755L852.362 741.473L837.66 758.994L820.119 744.276ZM838.501 722.37L853.203 704.849L870.743 719.567L856.042 737.088L838.501 722.37ZM856.882 700.464L871.584 682.942L889.125 697.661L874.423 715.182L856.882 700.464ZM875.264 678.557L889.966 661.036L907.506 675.755L892.805 693.276L875.264 678.557ZM893.645 656.651L908.347 639.13L925.888 653.848L911.186 671.369L893.645 656.651ZM912.027 634.745L926.729 617.224L944.269 631.942L929.568 649.463L912.027 634.745ZM930.408 612.839L945.11 595.318L962.651 610.036L947.949 627.557L930.408 612.839ZM948.79 590.932L963.492 573.411L981.032 588.13L966.331 605.651L948.79 590.932ZM967.171 569.026L981.873 551.505L999.414 566.224L984.712 583.745L967.171 569.026ZM985.553 547.12L1000.25 529.599L1017.8 544.317L1003.09 561.838L985.553 547.12ZM1003.93 525.214L1018.64 507.693L1036.18 522.411L1021.48 539.932L1003.93 525.214ZM1022.32 503.308L1037.02 485.787L1054.56 500.505L1039.86 518.026L1022.32 503.308ZM1040.7 481.401L1055.4 463.88L1072.94 478.599L1058.24 496.12L1040.7 481.401ZM1059.08 459.495L1073.78 441.974L1091.32 456.692L1076.62 474.214L1059.08 459.495ZM1077.46 437.589L1092.16 420.068L1109.7 434.786L1095 452.307L1077.46 437.589ZM1095.84 415.683L1110.54 398.162L1128.08 412.88L1113.38 430.401L1095.84 415.683ZM1114.22 393.777L1128.93 376.255L1146.47 390.974L1131.76 408.495L1114.22 393.777ZM1132.6 371.87L1147.31 354.349L1164.85 369.068L1150.15 386.589L1132.6 371.87ZM1150.99 349.964L1165.69 332.443L1183.23 347.161L1168.53 364.682L1150.99 349.964ZM1169.37 328.058L1184.07 310.537L1201.61 325.255L1186.91 342.776L1169.37 328.058ZM1187.75 306.152L1202.45 288.631L1219.99 303.349L1205.29 320.87L1187.75 306.152ZM1206.13 284.245L1220.83 266.724L1238.37 281.443L1223.67 298.964L1206.13 284.245ZM1224.51 262.339L1239.21 244.818L1256.75 259.537L1242.05 277.058L1224.51 262.339ZM1242.89 240.433L1257.6 222.912L1275.14 237.63L1260.43 255.151L1242.89 240.433ZM1261.28 218.527L1275.98 201.006L1293.52 215.724L1278.82 233.245L1261.28 218.527ZM1279.66 196.621L1294.36 179.1L1311.9 193.818L1297.2 211.339L1279.66 196.621ZM1298.04 174.714L1312.74 157.193L1330.28 171.912L1315.58 189.433L1298.04 174.714ZM1316.42 152.808L1331.12 135.287L1348.66 150.005L1333.96 167.527L1316.42 152.808ZM1334.8 130.902L1349.5 113.381L1367.04 128.099L1352.34 145.62L1334.8 130.902ZM1353.18 108.996L1367.88 91.4747L1385.43 106.193L1370.72 123.714L1353.18 108.996ZM1371.56 87.0895L1386.27 69.5685L1403.81 84.2868L1389.1 101.808L1371.56 87.0895ZM1389.95 65.1833L1404.65 47.6622L1422.19 62.3806L1407.49 79.9016L1389.95 65.1833ZM1408.33 43.2771L1423.03 25.756L1440.57 40.4744L1425.87 57.9954L1408.33 43.2771ZM1426.71 21.3709L1441.41 3.84981L1458.95 18.5682L1444.25 36.0892L1426.71 21.3709ZM1445.09 -0.535357L1459.79 -18.0564L1477.33 -3.33805L1462.63 14.183L1445.09 -0.535357ZM1463.47 -22.4416L1478.17 -39.9626L1495.71 -25.2443L1481.01 -7.72321L1463.47 -22.4416Z" fill="#3E4244"/>
<path fill-rule="evenodd" clip-rule="evenodd" d="M1561.61 -14.7192L1561.63 -14.7397L1544.09 -29.4581L1544.07 -29.4375L1539.68 -33.1171L546.195 1150.88L584.565 1183.07L1578.05 -0.920687L1561.61 -14.7192ZM1557.95 -10.3546L1540.41 -25.0729L1525.7 -7.55184L1543.25 7.16647L1557.95 -10.3546ZM571.8 1164.89L583.728 1150.67L566.188 1135.96L554.259 1150.17L571.8 1164.89ZM587.408 1146.29L602.11 1128.77L584.569 1114.05L569.867 1131.57L587.408 1146.29ZM605.789 1124.38L620.491 1106.86L602.951 1092.14L588.249 1109.67L605.789 1124.38ZM624.171 1102.48L638.873 1084.96L621.332 1070.24L606.63 1087.76L624.171 1102.48ZM642.552 1080.57L657.254 1063.05L639.714 1048.33L625.012 1065.85L642.552 1080.57ZM660.934 1058.66L675.636 1041.14L658.095 1026.43L643.393 1043.95L660.934 1058.66ZM679.315 1036.76L694.017 1019.24L676.477 1004.52L661.775 1022.04L679.315 1036.76ZM697.697 1014.85L712.399 997.331L694.858 982.613L680.156 1000.13L697.697 1014.85ZM716.078 992.946L730.78 975.425L713.24 960.707L698.538 978.228L716.078 992.946ZM734.46 971.04L749.162 953.519L731.621 938.801L716.919 956.322L734.46 971.04ZM752.841 949.134L767.543 931.613L750.002 916.894L735.301 934.415L752.841 949.134ZM771.223 927.228L785.925 909.707L768.384 894.988L753.682 912.509L771.223 927.228ZM789.604 905.321L804.306 887.8L786.765 873.082L772.064 890.603L789.604 905.321ZM807.986 883.415L822.688 865.894L805.147 851.176L790.445 868.697L807.986 883.415ZM826.367 861.509L841.069 843.988L823.528 829.269L808.827 846.791L826.367 861.509ZM844.749 839.603L859.451 822.082L841.91 807.363L827.208 824.884L844.749 839.603ZM863.13 817.696L877.832 800.175L860.291 785.457L845.59 802.978L863.13 817.696ZM881.512 795.79L896.214 778.269L878.673 763.551L863.971 781.072L881.512 795.79ZM899.893 773.884L914.595 756.363L897.054 741.645L882.353 759.166L899.893 773.884ZM918.275 751.978L932.977 734.457L915.436 719.738L900.734 737.259L918.275 751.978ZM936.656 730.072L951.358 712.551L933.817 697.832L919.116 715.353L936.656 730.072ZM955.038 708.165L969.74 690.644L952.199 675.926L937.497 693.447L955.038 708.165ZM973.419 686.259L988.121 668.738L970.58 654.02L955.878 671.541L973.419 686.259ZM991.801 664.353L1006.5 646.832L988.962 632.114L974.26 649.635L991.801 664.353ZM1010.18 642.447L1024.88 624.926L1007.34 610.207L992.642 627.728L1010.18 642.447ZM1028.56 620.541L1043.27 603.019L1025.72 588.301L1011.02 605.822L1028.56 620.541ZM1046.95 598.634L1061.65 581.113L1044.11 566.395L1029.4 583.916L1046.95 598.634ZM1065.33 576.728L1080.03 559.207L1062.49 544.489L1047.79 562.01L1065.33 576.728ZM1083.71 554.822L1098.41 537.301L1080.87 522.582L1066.17 540.104L1083.71 554.822ZM1102.09 532.916L1116.79 515.395L1099.25 500.676L1084.55 518.197L1102.09 532.916ZM1120.47 511.009L1135.17 493.488L1117.63 478.77L1102.93 496.291L1120.47 511.009ZM1138.85 489.103L1153.55 471.582L1136.01 456.864L1121.31 474.385L1138.85 489.103ZM1157.23 467.197L1171.94 449.676L1154.4 434.958L1139.69 452.479L1157.23 467.197ZM1175.62 445.291L1190.32 427.77L1172.78 413.051L1158.08 430.572L1175.62 445.291ZM1194 423.385L1208.7 405.863L1191.16 391.145L1176.46 408.666L1194 423.385ZM1212.38 401.478L1227.08 383.957L1209.54 369.239L1194.84 386.76L1212.38 401.478ZM1230.76 379.572L1245.46 362.051L1227.92 347.333L1213.22 364.854L1230.76 379.572ZM1249.14 357.666L1263.84 340.145L1246.3 325.427L1231.6 342.948L1249.14 357.666ZM1267.52 335.76L1282.23 318.239L1264.68 303.52L1249.98 321.041L1267.52 335.76ZM1285.9 313.854L1300.61 296.332L1283.07 281.614L1268.36 299.135L1285.9 313.854ZM1304.29 291.947L1318.99 274.426L1301.45 259.708L1286.75 277.229L1304.29 291.947ZM1322.67 270.041L1337.37 252.52L1319.83 237.802L1305.13 255.323L1322.67 270.041ZM1341.05 248.135L1355.75 230.614L1338.21 215.895L1323.51 233.416L1341.05 248.135ZM1359.43 226.229L1374.13 208.708L1356.59 193.989L1341.89 211.51L1359.43 226.229ZM1377.81 204.322L1392.51 186.801L1374.97 172.083L1360.27 189.604L1377.81 204.322ZM1396.19 182.416L1410.9 164.895L1393.35 150.177L1378.65 167.698L1396.19 182.416ZM1414.58 160.51L1429.28 142.989L1411.74 128.271L1397.03 145.792L1414.58 160.51ZM1432.96 138.604L1447.66 121.083L1430.12 106.364L1415.42 123.885L1432.96 138.604ZM1451.34 116.698L1466.04 99.1765L1448.5 84.4581L1433.8 101.979L1451.34 116.698ZM1469.72 94.7913L1484.42 77.2703L1466.88 62.5519L1452.18 80.073L1469.72 94.7913ZM1488.1 72.8851L1502.8 55.3641L1485.26 40.6458L1470.56 58.1668L1488.1 72.8851ZM1506.48 50.9789L1521.18 33.4579L1503.64 18.7395L1488.94 36.2606L1506.48 50.9789ZM1524.86 29.0727L1539.57 11.5516L1522.03 -3.16668L1507.32 14.3544L1524.86 29.0727Z" fill="#3E4244"/>
</g>
<path d="M1477.43 -47.9873L520.74 1092.16" stroke="#FFFFFA" stroke-width="8"/>
<defs>
<filter id="filter0_f_2127_2703" x="498.344" y="-73.9131" width="1083.71" height="1260.99" filterUnits="userSpaceOnUse" color-interpolation-filters="sRGB">
<feFlood flood-opacity="0" result="BackgroundImageFix"/>
<feBlend mode="normal" in="SourceGraphic" in2="BackgroundImageFix" result="shape"/>
<feGaussianBlur stdDeviation="2" result="effect1_foregroundBlur_2127_2703"/>
</filter>
</defs>
</svg>
