<svg width="3090" height="2966" viewBox="0 0 3090 2966" fill="none" xmlns="http://www.w3.org/2000/svg">
<path d="M509 580.438L1483.58 1422.53M1613.53 1534.81L2588.11 2376.91" stroke="#FFFFFA" stroke-width="8"/>
<g opacity="0.1" filter="url(#filter0_f_1566_6364)">
<path fill-rule="evenodd" clip-rule="evenodd" d="M2070.64 916.033L2070.66 916.013L2053.33 901.042L2053.32 901.062L2048.98 897.32L1038.47 2066.82L1081.78 2104.24L1085.53 2099.91L1068.2 2084.94L1080.33 2070.9L1097.66 2085.87L1101.4 2081.54L1084.08 2066.57L1099.03 2049.26L1116.36 2064.23L1120.1 2059.9L1102.77 2044.93L1117.73 2027.62L1135.05 2042.59L1138.8 2038.26L1121.47 2023.29L1136.42 2005.99L1153.75 2020.96L1157.49 2016.63L1140.17 2001.65L1155.12 1984.35L1172.45 1999.32L1176.19 1994.99L1158.86 1980.02L1173.82 1962.71L1191.14 1977.68L1194.89 1973.35L1177.56 1958.38L1192.51 1941.07L1209.84 1956.04L1213.58 1951.71L1196.26 1936.74L1211.21 1919.43L1228.54 1934.41L1232.28 1930.07L1214.95 1915.1L1229.91 1897.8L1247.23 1912.77L1250.97 1908.44L1233.65 1893.46L1248.6 1876.16L1265.93 1891.13L1269.67 1886.8L1252.35 1871.83L1267.3 1854.52L1284.62 1869.49L1288.37 1865.16L1271.04 1850.19L1286 1832.88L1303.32 1847.85L1307.06 1843.52L1289.74 1828.55L1304.69 1811.24L1322.02 1826.22L1325.76 1821.88L1308.43 1806.91L1323.39 1789.61L1340.71 1804.58L1344.46 1800.25L1327.13 1785.28L1342.08 1767.97L1359.41 1782.94L1363.15 1778.61L1345.83 1763.64L1360.78 1746.33L1378.11 1761.3L1381.85 1756.97L1364.52 1742L1379.48 1724.69L1396.8 1739.66L1400.55 1735.33L1383.22 1720.36L1398.17 1703.05L1415.5 1718.03L1419.24 1713.69L1401.92 1698.72L1416.87 1681.42L1434.2 1696.39L1437.94 1692.06L1420.61 1677.09L1435.57 1659.78L1452.89 1674.75L1456.64 1670.42L1439.31 1655.45L1454.26 1638.14L1471.59 1653.11L1475.33 1648.78L1458.01 1633.81L1472.96 1616.5L1490.29 1631.47L1494.03 1627.14L1476.7 1612.17L1491.66 1594.86L1508.98 1609.84L1512.73 1605.5L1495.4 1590.53L1510.35 1573.23L1527.68 1588.2L1531.42 1583.87L1514.1 1568.9L1529.05 1551.59L1546.38 1566.56L1550.12 1562.23L1532.79 1547.26L1547.75 1529.95L1565.07 1544.92L1568.81 1540.59L1551.49 1525.62L1566.44 1508.31L1583.77 1523.28L1587.51 1518.95L1570.19 1503.98L1585.14 1486.67L1602.47 1501.65L1606.21 1497.31L1588.88 1482.34L1603.84 1465.04L1621.16 1480.01L1624.9 1475.68L1607.58 1460.71L1622.53 1443.4L1639.86 1458.37L1643.6 1454.04L1626.27 1439.07L1641.23 1421.76L1658.55 1436.73L1662.3 1432.4L1644.97 1417.43L1659.93 1400.12L1677.25 1415.09L1680.99 1410.76L1663.67 1395.79L1678.62 1378.48L1695.95 1393.46L1699.69 1389.12L1682.36 1374.15L1697.32 1356.85L1714.64 1371.82L1718.39 1367.49L1701.06 1352.52L1716.01 1335.21L1733.34 1350.18L1737.08 1345.85L1719.76 1330.88L1734.71 1313.57L1752.04 1328.54L1755.78 1324.21L1738.45 1309.24L1753.41 1291.93L1770.73 1306.9L1774.48 1302.57L1757.15 1287.6L1772.1 1270.29L1789.43 1285.27L1793.17 1280.93L1775.85 1265.96L1790.8 1248.66L1808.13 1263.63L1811.87 1259.3L1794.54 1244.33L1809.5 1227.02L1826.82 1241.99L1830.57 1237.66L1813.24 1222.69L1828.19 1205.38L1845.52 1220.35L1849.26 1216.02L1831.94 1201.05L1846.89 1183.74L1864.22 1198.71L1867.96 1194.38L1850.63 1179.41L1865.59 1162.1L1882.91 1177.08L1886.66 1172.74L1869.33 1157.77L1884.28 1140.47L1901.61 1155.44L1905.35 1151.11L1888.03 1136.14L1902.98 1118.83L1920.31 1133.8L1924.05 1129.47L1906.72 1114.5L1921.68 1097.19L1939 1112.16L1942.74 1107.83L1925.42 1092.86L1940.37 1075.55L1957.7 1090.52L1961.44 1086.19L1944.12 1071.22L1959.07 1053.91L1976.4 1068.89L1980.14 1064.55L1962.81 1049.58L1977.77 1032.28L1995.09 1047.25L1998.83 1042.92L1981.51 1027.95L1996.46 1010.64L2013.79 1025.61L2017.53 1021.28L2000.2 1006.31L2015.16 989.001L2032.48 1003.97L2036.23 999.64L2018.9 984.669L2033.86 967.363L2051.18 982.333L2054.92 978.002L2037.6 963.031L2052.55 945.725L2069.88 960.695L2073.62 956.364L2056.29 941.393L2071.25 924.087L2088.57 939.057L2092.32 934.726L2074.99 919.755L2074.97 919.776L2070.64 916.033ZM2049.59 905.373L2066.92 920.344L2051.96 937.651L2034.64 922.68L2049.59 905.373ZM1046.54 2066.23L1058.68 2052.19L1076 2067.16L1063.87 2081.2L1046.54 2066.23ZM1062.42 2047.86L1077.37 2030.55L1094.7 2045.52L1079.75 2062.83L1062.42 2047.86ZM1081.12 2026.22L1096.07 2008.91L1113.4 2023.88L1098.44 2041.19L1081.12 2026.22ZM1099.81 2004.58L1114.77 1987.27L1132.09 2002.24L1117.14 2019.55L1099.81 2004.58ZM1118.51 1982.94L1133.46 1965.64L1150.79 1980.61L1135.83 1997.91L1118.51 1982.94ZM1137.21 1961.3L1152.16 1944L1169.49 1958.97L1154.53 1976.27L1137.21 1961.3ZM1155.9 1939.67L1170.86 1922.36L1188.18 1937.33L1173.23 1954.64L1155.9 1939.67ZM1174.6 1918.03L1189.55 1900.72L1206.88 1915.69L1191.92 1933L1174.6 1918.03ZM1193.29 1896.39L1208.25 1879.08L1225.57 1894.05L1210.62 1911.36L1193.29 1896.39ZM1211.99 1874.75L1226.95 1857.45L1244.27 1872.42L1229.32 1889.72L1211.99 1874.75ZM1230.69 1853.11L1245.64 1835.81L1262.97 1850.78L1248.01 1868.08L1230.69 1853.11ZM1249.38 1831.48L1264.34 1814.17L1281.66 1829.14L1266.71 1846.45L1249.38 1831.48ZM1268.08 1809.84L1283.03 1792.53L1300.36 1807.5L1285.41 1824.81L1268.08 1809.84ZM1286.78 1788.2L1301.73 1770.89L1319.06 1785.86L1304.1 1803.17L1286.78 1788.2ZM1305.47 1766.56L1320.43 1749.26L1337.75 1764.23L1322.8 1781.53L1305.47 1766.56ZM1324.17 1744.92L1339.12 1727.62L1356.45 1742.59L1341.5 1759.89L1324.17 1744.92ZM1342.87 1723.29L1357.82 1705.98L1375.15 1720.95L1360.19 1738.26L1342.87 1723.29ZM1361.56 1701.65L1376.52 1684.34L1393.84 1699.31L1378.89 1716.62L1361.56 1701.65ZM1380.26 1680.01L1395.21 1662.7L1412.54 1677.67L1397.59 1694.98L1380.26 1680.01ZM1398.96 1658.37L1413.91 1641.07L1431.24 1656.04L1416.28 1673.34L1398.96 1658.37ZM1417.65 1636.73L1432.61 1619.43L1449.93 1634.4L1434.98 1651.7L1417.65 1636.73ZM1436.35 1615.1L1451.3 1597.79L1468.63 1612.76L1453.68 1630.07L1436.35 1615.1ZM1455.05 1593.46L1470 1576.15L1487.33 1591.12L1472.37 1608.43L1455.05 1593.46ZM1473.74 1571.82L1488.7 1554.51L1506.02 1569.48L1491.07 1586.79L1473.74 1571.82ZM1492.44 1550.18L1507.39 1532.88L1524.72 1547.85L1509.76 1565.15L1492.44 1550.18ZM1511.14 1528.54L1526.09 1511.24L1543.41 1526.21L1528.46 1543.51L1511.14 1528.54ZM1529.83 1506.91L1544.79 1489.6L1562.11 1504.57L1547.16 1521.88L1529.83 1506.91ZM1548.53 1485.27L1563.48 1467.96L1580.81 1482.93L1565.85 1500.24L1548.53 1485.27ZM1567.22 1463.63L1582.18 1446.32L1599.5 1461.29L1584.55 1478.6L1567.22 1463.63ZM1585.92 1441.99L1600.87 1424.69L1618.2 1439.66L1603.25 1456.96L1585.92 1441.99ZM1604.62 1420.35L1619.57 1403.05L1636.9 1418.02L1621.94 1435.32L1604.62 1420.35ZM1623.31 1398.72L1638.27 1381.41L1655.59 1396.38L1640.64 1413.69L1623.31 1398.72ZM1642.01 1377.08L1656.96 1359.77L1674.29 1374.74L1659.34 1392.05L1642.01 1377.08ZM1660.71 1355.44L1675.66 1338.13L1692.99 1353.1L1678.03 1370.41L1660.71 1355.44ZM1679.4 1333.8L1694.36 1316.5L1711.68 1331.47L1696.73 1348.77L1679.4 1333.8ZM1698.1 1312.16L1713.05 1294.86L1730.38 1309.83L1715.43 1327.13L1698.1 1312.16ZM1716.8 1290.53L1731.75 1273.22L1749.08 1288.19L1734.12 1305.5L1716.8 1290.53ZM1735.49 1268.89L1750.45 1251.58L1767.77 1266.55L1752.82 1283.86L1735.49 1268.89ZM1754.19 1247.25L1769.14 1229.94L1786.47 1244.91L1771.52 1262.22L1754.19 1247.25ZM1772.89 1225.61L1787.84 1208.31L1805.17 1223.28L1790.21 1240.58L1772.89 1225.61ZM1791.58 1203.97L1806.54 1186.67L1823.86 1201.64L1808.91 1218.94L1791.58 1203.97ZM1810.28 1182.34L1825.23 1165.03L1842.56 1180L1827.6 1197.31L1810.28 1182.34ZM1828.98 1160.7L1843.93 1143.39L1861.26 1158.36L1846.3 1175.67L1828.98 1160.7ZM1847.67 1139.06L1862.63 1121.75L1879.95 1136.72L1865 1154.03L1847.67 1139.06ZM1866.37 1117.42L1881.32 1100.12L1898.65 1115.09L1883.69 1132.39L1866.37 1117.42ZM1885.06 1095.78L1900.02 1078.48L1917.34 1093.45L1902.39 1110.75L1885.06 1095.78ZM1903.76 1074.15L1918.72 1056.84L1936.04 1071.81L1921.09 1089.12L1903.76 1074.15ZM1922.46 1052.51L1937.41 1035.2L1954.74 1050.17L1939.78 1067.48L1922.46 1052.51ZM1941.15 1030.87L1956.11 1013.56L1973.43 1028.53L1958.48 1045.84L1941.15 1030.87ZM1959.85 1009.23L1974.8 991.925L1992.13 1006.9L1977.18 1024.2L1959.85 1009.23ZM1978.55 987.594L1993.5 970.287L2010.83 985.258L1995.87 1002.56L1978.55 987.594ZM1997.24 965.956L2012.2 948.649L2029.52 963.62L2014.57 980.927L1997.24 965.956ZM2015.94 944.318L2030.89 927.011L2048.22 941.982L2033.27 959.289L2015.94 944.318Z" fill="#3F4346"/>
<path fill-rule="evenodd" clip-rule="evenodd" d="M2113.96 953.459L2113.97 953.439L2096.65 938.468L2096.63 938.489L2092.3 934.746L1081.78 2104.24L1119.69 2136.99L2130.2 967.494L2113.96 953.459ZM2110.23 957.77L2092.91 942.8L2077.95 960.106L2095.28 975.077L2110.23 957.77ZM1107.18 2118.63L1119.32 2104.58L1101.99 2089.61L1089.86 2103.66L1107.18 2118.63ZM1123.06 2100.25L1138.01 2082.95L1120.69 2067.98L1105.73 2085.28L1123.06 2100.25ZM1141.76 2078.61L1156.71 2061.31L1139.38 2046.34L1124.43 2063.64L1141.76 2078.61ZM1160.45 2056.98L1175.41 2039.67L1158.08 2024.7L1143.13 2042.01L1160.45 2056.98ZM1179.15 2035.34L1194.1 2018.03L1176.78 2003.06L1161.82 2020.37L1179.15 2035.34ZM1197.85 2013.7L1212.8 1996.39L1195.47 1981.42L1180.52 1998.73L1197.85 2013.7ZM1216.54 1992.06L1231.5 1974.76L1214.17 1959.79L1199.22 1977.09L1216.54 1992.06ZM1235.24 1970.42L1250.19 1953.12L1232.87 1938.15L1217.91 1955.45L1235.24 1970.42ZM1253.94 1948.79L1268.89 1931.48L1251.56 1916.51L1236.61 1933.82L1253.94 1948.79ZM1272.63 1927.15L1287.59 1909.84L1270.26 1894.87L1255.31 1912.18L1272.63 1927.15ZM1291.33 1905.51L1306.28 1888.2L1288.96 1873.23L1274 1890.54L1291.33 1905.51ZM1310.02 1883.87L1324.98 1866.57L1307.65 1851.6L1292.7 1868.9L1310.02 1883.87ZM1328.72 1862.23L1343.68 1844.93L1326.35 1829.96L1311.4 1847.26L1328.72 1862.23ZM1347.42 1840.6L1362.37 1823.29L1345.05 1808.32L1330.09 1825.63L1347.42 1840.6ZM1366.11 1818.96L1381.07 1801.65L1363.74 1786.68L1348.79 1803.99L1366.11 1818.96ZM1384.81 1797.32L1399.76 1780.01L1382.44 1765.04L1367.48 1782.35L1384.81 1797.32ZM1403.51 1775.68L1418.46 1758.38L1401.14 1743.41L1386.18 1760.71L1403.51 1775.68ZM1422.2 1754.04L1437.16 1736.74L1419.83 1721.77L1404.88 1739.07L1422.2 1754.04ZM1440.9 1732.41L1455.85 1715.1L1438.53 1700.13L1423.57 1717.44L1440.9 1732.41ZM1459.6 1710.77L1474.55 1693.46L1457.22 1678.49L1442.27 1695.8L1459.6 1710.77ZM1478.29 1689.13L1493.25 1671.82L1475.92 1656.85L1460.97 1674.16L1478.29 1689.13ZM1496.99 1667.49L1511.94 1650.19L1494.62 1635.22L1479.66 1652.52L1496.99 1667.49ZM1515.69 1645.85L1530.64 1628.55L1513.31 1613.58L1498.36 1630.88L1515.69 1645.85ZM1534.38 1624.22L1549.34 1606.91L1532.01 1591.94L1517.06 1609.25L1534.38 1624.22ZM1553.08 1602.58L1568.03 1585.27L1550.71 1570.3L1535.75 1587.61L1553.08 1602.58ZM1571.78 1580.94L1586.73 1563.63L1569.4 1548.66L1554.45 1565.97L1571.78 1580.94ZM1590.47 1559.3L1605.43 1542L1588.1 1527.03L1573.15 1544.33L1590.47 1559.3ZM1609.17 1537.66L1624.12 1520.36L1606.8 1505.39L1591.84 1522.69L1609.17 1537.66ZM1627.87 1516.03L1642.82 1498.72L1625.49 1483.75L1610.54 1501.06L1627.87 1516.03ZM1646.56 1494.39L1661.52 1477.08L1644.19 1462.11L1629.24 1479.42L1646.56 1494.39ZM1665.26 1472.75L1680.21 1455.44L1662.89 1440.47L1647.93 1457.78L1665.26 1472.75ZM1683.95 1451.11L1698.91 1433.81L1681.58 1418.84L1666.63 1436.14L1683.95 1451.11ZM1702.65 1429.47L1717.61 1412.17L1700.28 1397.2L1685.33 1414.5L1702.65 1429.47ZM1721.35 1407.84L1736.3 1390.53L1718.98 1375.56L1704.02 1392.87L1721.35 1407.84ZM1740.04 1386.2L1755 1368.89L1737.67 1353.92L1722.72 1371.23L1740.04 1386.2ZM1758.74 1364.56L1773.69 1347.25L1756.37 1332.28L1741.41 1349.59L1758.74 1364.56ZM1777.44 1342.92L1792.39 1325.62L1775.07 1310.65L1760.11 1327.95L1777.44 1342.92ZM1796.13 1321.28L1811.09 1303.98L1793.76 1289.01L1778.81 1306.31L1796.13 1321.28ZM1814.83 1299.65L1829.78 1282.34L1812.46 1267.37L1797.5 1284.68L1814.83 1299.65ZM1833.53 1278.01L1848.48 1260.7L1831.15 1245.73L1816.2 1263.04L1833.53 1278.01ZM1852.22 1256.37L1867.18 1239.06L1849.85 1224.09L1834.9 1241.4L1852.22 1256.37ZM1870.92 1234.73L1885.87 1217.43L1868.55 1202.46L1853.59 1219.76L1870.92 1234.73ZM1889.62 1213.09L1904.57 1195.79L1887.24 1180.82L1872.29 1198.12L1889.62 1213.09ZM1908.31 1191.46L1923.27 1174.15L1905.94 1159.18L1890.99 1176.49L1908.31 1191.46ZM1927.01 1169.82L1941.96 1152.51L1924.64 1137.54L1909.68 1154.85L1927.01 1169.82ZM1945.71 1148.18L1960.66 1130.87L1943.33 1115.9L1928.38 1133.21L1945.71 1148.18ZM1964.4 1126.54L1979.36 1109.24L1962.03 1094.27L1947.08 1111.57L1964.4 1126.54ZM1983.1 1104.9L1998.05 1087.6L1980.73 1072.63L1965.77 1089.93L1983.1 1104.9ZM2001.8 1083.27L2016.75 1065.96L1999.42 1050.99L1984.47 1068.3L2001.8 1083.27ZM2020.49 1061.63L2035.45 1044.32L2018.12 1029.35L2003.17 1046.66L2020.49 1061.63ZM2039.19 1039.99L2054.14 1022.68L2036.82 1007.71L2021.86 1025.02L2039.19 1039.99ZM2057.88 1018.35L2072.84 1001.05L2055.51 986.076L2040.56 1003.38L2057.88 1018.35ZM2076.58 996.715L2091.53 979.408L2074.21 964.438L2059.26 981.744L2076.58 996.715Z" fill="#3F4346"/>
</g>
<path d="M1043.74 2038.83C1045.18 2037.16 1047.71 2036.97 1049.38 2038.42L1064.99 2051.9C1066.66 2053.35 1066.84 2055.87 1065.4 2057.54L1049.3 2076.17L1027.64 2057.46L1043.74 2038.83Z" fill="#FFFFFA"/>
<path d="M2038.16 887.963L2059.81 906.677L2043.72 925.307C2042.27 926.979 2039.75 927.163 2038.07 925.719L2022.47 912.236C2020.8 910.792 2020.61 908.266 2022.06 906.594L2038.16 887.963Z" fill="#FFFFFA"/>
<path d="M2030.27 918.978L1057.18 2045.16" stroke="#FFFFFA" stroke-width="8"/>
<defs>
<filter id="filter0_f_1566_6364" x="1034.47" y="893.32" width="1099.73" height="1247.67" filterUnits="userSpaceOnUse" color-interpolation-filters="sRGB">
<feFlood flood-opacity="0" result="BackgroundImageFix"/>
<feBlend mode="normal" in="SourceGraphic" in2="BackgroundImageFix" result="shape"/>
<feGaussianBlur stdDeviation="2" result="effect1_foregroundBlur_1566_6364"/>
</filter>
</defs>
</svg>
