<svg width="72" height="72" viewBox="0 0 72 72" fill="none" xmlns="http://www.w3.org/2000/svg">
<g clip-path="url(#clip0_1561_3606)">
<path d="M4 8.48264C4 5.44495 6.46253 2.98242 9.50022 2.98242H63.1774C66.2151 2.98242 68.6777 5.44495 68.6777 8.48264V49.3145C68.6777 50.0404 68.5387 50.7525 68.213 51.4013C66.1343 55.5428 56.8757 71.3085 36.3388 71.4318C15.7671 71.5554 6.51199 55.5534 4.45413 51.3928C4.13622 50.75 4 50.0452 4 49.3282V8.48264Z" fill="#F6C543"/>
<path d="M4 5.50022C4 2.46253 6.46253 0 9.50022 0H63.1774C66.2151 0 68.6777 2.46253 68.6777 5.50022V46.3321C68.6777 47.058 68.5387 47.7701 68.213 48.4188C66.1343 52.5603 56.8757 68.326 36.3388 68.4494C15.7671 68.573 6.51199 52.571 4.45413 48.4104C4.13622 47.7676 4 47.0628 4 46.3457V5.50022Z" fill="#FBEC7C"/>
<path d="M10.2539 10.8396C10.2539 7.80189 12.7164 5.33936 15.7541 5.33936H56.9229C59.9606 5.33936 62.4232 7.80189 62.4232 10.8396V44.2384C62.4232 44.9362 62.2961 45.619 61.9902 46.2463C60.2044 49.9088 52.7193 62.8968 36.3385 62.9995C19.9252 63.1025 12.443 49.9145 10.6762 46.2365C10.3778 45.6152 10.2539 44.9409 10.2539 44.2516V10.8396Z" fill="#F8D75D"/>
<g filter="url(#filter0_f_1561_3606)">
<path d="M68.6774 25.2783L21.1606 68.2367C24.7497 70.5352 33.9387 71.544 36.9787 72C58.2778 69.2637 66.9858 56.6313 68.6774 50.6572V25.2783Z" fill="#7E7E7E" fill-opacity="0.05"/>
</g>
<g filter="url(#filter1_f_1561_3606)">
<path d="M4 40.1892L42.8981 0H9.79658C8.37286 0.0710056 5.22033 1.3349 4 5.82246V40.1892Z" fill="#7E7E7E" fill-opacity="0.05"/>
</g>
</g>
<defs>
<filter id="filter0_f_1561_3606" x="19.7856" y="23.9033" width="50.2667" height="49.4718" filterUnits="userSpaceOnUse" color-interpolation-filters="sRGB">
<feFlood flood-opacity="0" result="BackgroundImageFix"/>
<feBlend mode="normal" in="SourceGraphic" in2="BackgroundImageFix" result="shape"/>
<feGaussianBlur stdDeviation="0.687527" result="effect1_foregroundBlur_1561_3606"/>
</filter>
<filter id="filter1_f_1561_3606" x="2.62495" y="-1.37505" width="41.6481" height="42.9391" filterUnits="userSpaceOnUse" color-interpolation-filters="sRGB">
<feFlood flood-opacity="0" result="BackgroundImageFix"/>
<feBlend mode="normal" in="SourceGraphic" in2="BackgroundImageFix" result="shape"/>
<feGaussianBlur stdDeviation="0.687527" result="effect1_foregroundBlur_1561_3606"/>
</filter>
<clipPath id="clip0_1561_3606">
<rect width="72" height="72" fill="white"/>
</clipPath>
</defs>
</svg>
