<svg width="72" height="72" viewBox="0 0 72 72" fill="none" xmlns="http://www.w3.org/2000/svg">
<g clip-path="url(#clip0_1561_3605)">
<path d="M35.3199 4.06178C35.974 3.80139 36.703 3.80177 37.3568 4.06284L63.8581 14.6446C64.9031 15.0619 65.5884 16.0735 65.5884 17.1987V58.0108C65.5884 59.1283 64.9122 60.1347 63.8775 60.557L37.3761 71.3726C36.711 71.6441 35.966 71.6445 35.3005 71.3737L8.71365 60.556C7.67753 60.1344 7 59.1273 7 58.0087V17.2007C7 16.0746 7.68663 15.0622 8.73296 14.6457L35.3199 4.06178Z" fill="#D35A57"/>
<path d="M35.3199 0.405527C35.974 0.145142 36.703 0.145521 37.3568 0.406587L63.8581 10.9884C64.9031 11.4056 65.5884 12.4173 65.5884 13.5424V54.3545C65.5884 55.4721 64.9122 56.4785 63.8775 56.9007L37.3761 67.7164C36.711 67.9879 35.966 67.9883 35.3005 67.7175L8.71365 56.8997C7.67753 56.4781 7 55.471 7 54.3524V13.5445C7 12.4183 7.68663 11.4059 8.73296 10.9894L35.3199 0.405527Z" fill="#EF8E89"/>
<path d="M35.8638 7.55859C36.1907 7.42848 36.5551 7.42867 36.8819 7.55912L58.3947 16.1461C58.9173 16.3546 59.26 16.8605 59.26 17.4231V50.3933C59.26 50.9521 58.9218 51.4553 58.4044 51.6664L36.8916 60.4431C36.5591 60.5788 36.1867 60.579 35.8541 60.4437L14.2735 51.6659C13.7553 51.4552 13.4165 50.9516 13.4165 50.3922V17.4242C13.4165 16.861 13.7599 16.3548 14.2831 16.1466L35.8638 7.55859Z" fill="#EC6B65"/>
<g filter="url(#filter0_f_1561_3605)">
<path d="M7 34.3827L46.5154 4.21873L37.5155 0L7 12.8671V34.3827Z" fill="#7E7E7E" fill-opacity="0.05"/>
</g>
<g filter="url(#filter1_f_1561_3605)">
<path d="M20.9922 65.3905L65.5701 29.5312V59.6952L36.2499 71.9998L20.9922 65.3905Z" fill="#7E7E7E" fill-opacity="0.05"/>
</g>
</g>
<defs>
<filter id="filter0_f_1561_3605" x="5.62495" y="-1.37505" width="42.2657" height="37.1329" filterUnits="userSpaceOnUse" color-interpolation-filters="sRGB">
<feFlood flood-opacity="0" result="BackgroundImageFix"/>
<feBlend mode="normal" in="SourceGraphic" in2="BackgroundImageFix" result="shape"/>
<feGaussianBlur stdDeviation="0.687527" result="effect1_foregroundBlur_1561_3605"/>
</filter>
<filter id="filter1_f_1561_3605" x="19.6171" y="28.1562" width="47.3282" height="45.2189" filterUnits="userSpaceOnUse" color-interpolation-filters="sRGB">
<feFlood flood-opacity="0" result="BackgroundImageFix"/>
<feBlend mode="normal" in="SourceGraphic" in2="BackgroundImageFix" result="shape"/>
<feGaussianBlur stdDeviation="0.687527" result="effect1_foregroundBlur_1561_3605"/>
</filter>
<clipPath id="clip0_1561_3605">
<rect width="72" height="72" fill="white"/>
</clipPath>
</defs>
</svg>
