<svg width="72" height="72" viewBox="0 0 72 72" fill="none" xmlns="http://www.w3.org/2000/svg">
<g clip-path="url(#clip0_1561_3604)">
<path d="M21.5798 6.77433C21.8418 6.46333 22.2264 6.28389 22.6306 6.28399L49.9304 6.29053C50.3298 6.29063 50.7084 6.46598 50.9673 6.77073L65.2797 23.6206C65.5397 23.9266 65.6528 24.3324 65.5894 24.7311L60.5719 56.2666C60.5075 56.6712 60.2679 57.027 59.9179 57.2377L36.9671 71.0541C36.5326 71.3157 35.9915 71.3163 35.5589 71.0556L12.6062 57.223C12.259 57.0137 12.0225 56.6601 11.9603 56.2571L7.08817 24.7114C7.02698 24.3152 7.14044 23.911 7.39896 23.6041L21.5798 6.77433Z" fill="#ADE0E1"/>
<path d="M21.1728 0.859994C21.4349 0.548992 21.8194 0.369554 22.2237 0.36965L50.4966 0.376433C50.896 0.376528 51.2746 0.551879 51.5335 0.856629L66.3613 18.3132C66.6212 18.6192 66.7344 19.0251 66.6709 19.4238L61.4757 52.0767C61.4113 52.4813 61.1717 52.8371 60.8217 53.0478L37.0462 67.3606C36.6117 67.6222 36.0706 67.6228 35.638 67.3621L11.8609 53.0327C11.5137 52.8234 11.2772 52.4697 11.2149 52.0668L6.17023 19.4035C6.10904 19.0073 6.22249 18.6031 6.48101 18.2963L21.1728 0.859994Z" fill="#C1F9F7"/>
<path d="M24.5103 7.85778C24.7723 7.54677 25.1569 7.36734 25.5611 7.36743L47.0663 7.37259C47.4657 7.37268 47.8443 7.54804 48.1031 7.85279L59.3466 21.0895C59.6065 21.3955 59.7196 21.8013 59.6562 22.2001L55.6974 47.0816C55.633 47.4863 55.3934 47.8421 55.0434 48.0528L37.0033 58.9129C36.5688 59.1745 36.0277 59.1751 35.5951 58.9144L17.5519 48.0405C17.2047 47.8313 16.9682 47.4776 16.906 47.0747L13.0616 22.1834C13.0004 21.7872 13.1139 21.383 13.3724 21.0762L24.5103 7.85778Z" fill="#AFEBEC"/>
<g filter="url(#filter0_f_1561_3604)">
<path d="M8.35692 33.4798L45.6527 0.314941H21.3008L5.50488 19.1651L8.35692 33.4798Z" fill="#7E7E7E" fill-opacity="0.05"/>
</g>
<g filter="url(#filter1_f_1561_3604)">
<path d="M24.1528 63.5976L65.1051 31.9917L60.9367 57.3614L35.8535 71.6762L24.1528 63.5976Z" fill="#7E7E7E" fill-opacity="0.05"/>
</g>
</g>
<defs>
<filter id="filter0_f_1561_3604" x="4.12983" y="-1.06011" width="42.8981" height="35.9151" filterUnits="userSpaceOnUse" color-interpolation-filters="sRGB">
<feFlood flood-opacity="0" result="BackgroundImageFix"/>
<feBlend mode="normal" in="SourceGraphic" in2="BackgroundImageFix" result="shape"/>
<feGaussianBlur stdDeviation="0.687527" result="effect1_foregroundBlur_1561_3604"/>
</filter>
<filter id="filter1_f_1561_3604" x="22.7778" y="30.6166" width="43.7023" height="42.4347" filterUnits="userSpaceOnUse" color-interpolation-filters="sRGB">
<feFlood flood-opacity="0" result="BackgroundImageFix"/>
<feBlend mode="normal" in="SourceGraphic" in2="BackgroundImageFix" result="shape"/>
<feGaussianBlur stdDeviation="0.687527" result="effect1_foregroundBlur_1561_3604"/>
</filter>
<clipPath id="clip0_1561_3604">
<rect width="72" height="72" fill="white"/>
</clipPath>
</defs>
</svg>
