<svg width="366" height="295" viewBox="0 0 366 295" fill="none" xmlns="http://www.w3.org/2000/svg">
<path d="M331 185.431C319.4 190.231 319.833 213.098 321.5 223.931C327 221.431 347.5 199.431 349.5 196.431C351.1 194.031 361.167 188.098 366 185.431C359.167 183.431 342.6 180.631 331 185.431Z" fill="#FABC04"/>
<path d="M349.5 196.431C351.1 194.031 361.167 188.098 366 185.431C332.8 185.431 322.5 211.098 321.5 223.931C327 221.431 347.5 199.431 349.5 196.431Z" fill="#DCA500"/>
<path d="M320.5 147.931C317.7 157.531 319.333 176.598 320.5 184.931C323.667 181.598 330.6 173.431 333 167.431C336 159.931 338 143.931 339 139.431C339.8 135.831 346.333 124.598 349.5 119.431C341 124.931 323.3 138.331 320.5 147.931Z" fill="#FABC04"/>
<path d="M339 139.431C339.8 135.831 346.333 124.598 349.5 119.431C343.167 126.931 329.8 143.831 327 151.431C324.2 159.031 321.5 176.931 320.5 184.931C323.667 181.598 330.6 173.431 333 167.431C336 159.931 338 143.931 339 139.431Z" fill="#DCA500"/>
<path d="M304 234.431C294 238.831 285.167 251.264 282 256.931C284.5 256.931 291.9 256.431 301.5 254.431C311.1 252.431 331.833 243.598 341 239.431C332.833 235.931 314 230.031 304 234.431Z" fill="#FABC04"/>
<path d="M301.5 254.431C311.1 252.431 331.833 243.597 341 239.431C311.4 237.831 289.333 250.431 282 256.931C284.5 256.931 291.9 256.431 301.5 254.431Z" fill="#DCA500"/>
<path d="M295 217.931V230.431C301.333 228.764 314.1 221.931 314.5 207.931C315 190.431 311 188.431 310 179.431C309.2 172.231 309 162.098 309 157.931C306.5 160.431 294 188.431 293.5 195.931C293 203.431 295 208.931 295 217.931Z" fill="#FABC04"/>
<path d="M310 179.431C309.2 172.231 309 162.098 309 157.931C303.5 168.931 303.5 195.931 302.5 207.931C301.7 217.531 297.167 226.931 295 230.431C301.333 228.764 314.1 221.931 314.5 207.931C315 190.431 311 188.431 310 179.431Z" fill="#DCA500"/>
<path d="M287.5 265.431C275.9 265.031 262.667 274.598 257.5 279.431C263 282.431 284 283.931 294.5 283.931C302.9 283.931 312.667 285.598 316.5 286.431C311.667 279.598 299.1 265.831 287.5 265.431Z" fill="#FABC04"/>
<path d="M294.5 283.931C302.9 283.931 312.667 285.597 316.5 286.431C298.1 270.831 269.5 275.264 257.5 279.431C263 282.431 284 283.931 294.5 283.931Z" fill="#DCA500"/>
<path d="M250 243.931C240.8 252.331 236.167 261.431 235 264.931C251 271.331 261 268.598 264 266.431C288.8 244.431 288.333 214.931 285 202.931C272.5 235.931 261.5 233.431 250 243.931Z" fill="#FABC04"/>
<path d="M264 266.431C288.8 244.431 288.333 214.931 285 202.931C276.6 251.331 248.167 264.431 235 264.931C251 271.331 261 268.598 264 266.431Z" fill="#DCA500"/>
<path d="M227.5 269.431C212.7 267.031 198.333 277.098 193 282.431C208.5 279.931 214 292.431 227.5 290.431C238.3 288.831 254.667 292.431 261.5 294.431C256.333 287.098 242.3 271.831 227.5 269.431Z" fill="#FABC04"/>
<path d="M227.5 290.431C238.3 288.831 254.667 292.431 261.5 294.431C234.7 272.431 204.667 277.264 193 282.431C208.5 279.931 214 292.431 227.5 290.431Z" fill="#DCA500"/>
<path d="M35.0002 185.431C46.6002 190.231 46.1669 213.098 44.5002 223.931C39.0005 221.431 18.5 199.431 16.5 196.431C14.9 194.031 4.83333 188.098 0 185.431C6.83341 183.431 23.4002 180.631 35.0002 185.431Z" fill="#FABC04"/>
<path d="M16.4998 196.431C14.8998 194.031 4.8331 188.098 -0.000228882 185.431C33.1998 185.431 43.4999 211.098 44.5 223.931C39.0002 221.431 18.4998 199.431 16.4998 196.431Z" fill="#DCA500"/>
<path d="M45.4999 147.931C48.2999 157.531 46.6665 176.598 45.4999 184.931C42.3332 181.598 35.4 173.431 33 167.431C30 159.931 28 143.931 27 139.431C26.2 135.831 19.6667 124.598 16.5 119.431C25 124.931 42.6999 138.331 45.4999 147.931Z" fill="#FABC04"/>
<path d="M27.0001 139.431C26.2001 135.831 19.6668 124.598 16.5001 119.431C22.8335 126.931 36.2001 143.831 39.0001 151.431C41.8001 159.031 44.5 176.931 45.5 184.931C42.3334 181.598 35.4001 173.431 33.0001 167.431C30.0001 159.931 28.0001 143.931 27.0001 139.431Z" fill="#DCA500"/>
<path d="M62 234.431C72 238.831 80.8333 251.264 84 256.931C81.5 256.931 74.1 256.431 64.5 254.431C54.9 252.431 34.1667 243.598 25 239.431C33.1667 235.931 52 230.031 62 234.431Z" fill="#FABC04"/>
<path d="M64.5 254.431C54.9 252.431 34.1667 243.597 25 239.431C54.6 237.831 76.6667 250.431 84 256.931C81.5 256.931 74.1 256.431 64.5 254.431Z" fill="#DCA500"/>
<path d="M70.9998 217.931V230.431C64.6666 228.764 51.9 221.931 51.5 207.931C51 190.431 55 188.431 56 179.431C56.8 172.231 57 162.098 57 157.931C59.5 160.431 71.9998 188.431 72.4998 195.931C72.9998 203.431 70.9998 208.931 70.9998 217.931Z" fill="#FABC04"/>
<path d="M56.0002 179.431C56.8002 172.231 57.0002 162.098 57.0002 157.931C62.5002 168.931 62.5002 195.931 63.5002 207.931C64.3002 217.531 68.8334 226.931 71 230.431C64.6667 228.764 51.9002 221.931 51.5002 207.931C51.0002 190.431 55.0002 188.431 56.0002 179.431Z" fill="#DCA500"/>
<path d="M78.5 265.431C90.1 265.031 103.333 274.598 108.5 279.431C103 282.431 82 283.931 71.5 283.931C63.1 283.931 53.3333 285.598 49.5 286.431C54.3333 279.598 66.9 265.831 78.5 265.431Z" fill="#FABC04"/>
<path d="M71.5 283.931C63.1 283.931 53.3333 285.597 49.5 286.431C67.9 270.831 96.5 275.264 108.5 279.431C103 282.431 82 283.931 71.5 283.931Z" fill="#DCA500"/>
<path d="M116 243.931C125.2 252.331 129.833 261.431 131 264.931C115 271.331 105 268.598 102 266.431C77.2 244.431 77.6667 214.931 81 202.931C93.5 235.931 104.5 233.431 116 243.931Z" fill="#FABC04"/>
<path d="M102 266.431C77.2 244.431 77.6667 214.931 81 202.931C89.4 251.331 117.833 264.431 131 264.931C115 271.331 105 268.598 102 266.431Z" fill="#DCA500"/>
<path d="M138.5 269.431C153.3 267.031 167.667 277.098 173 282.431C157.5 279.931 152 292.431 138.5 290.431C127.7 288.831 111.333 292.431 104.5 294.431C109.667 287.098 123.7 271.831 138.5 269.431Z" fill="#FABC04"/>
<path d="M138.5 290.431C127.7 288.831 111.333 292.431 104.5 294.431C131.3 272.431 161.333 277.264 173 282.431C157.5 279.931 152 292.431 138.5 290.431Z" fill="#DCA500"/>
<ellipse cx="236.181" cy="22.0175" rx="4.5" ry="6" transform="rotate(22.5356 236.181 22.0175)" fill="#DCA500"/>
<ellipse cx="272.376" cy="43.9584" rx="3.63291" ry="6" transform="rotate(31.3568 272.376 43.9584)" fill="#DCA500"/>
<ellipse cx="200.76" cy="12.7196" rx="3.63291" ry="6" transform="rotate(21.1242 200.76 12.7196)" fill="#DCA500"/>
<path d="M211.677 69.2184C200.612 63.9908 185.382 49.2761 179.15 42.5722C195.018 24.3661 192.229 25.2177 200.463 12.8401C199.865 21.4507 193.616 38.4005 204.494 42.1829C214.927 45.8104 229.949 30.3134 236.367 21.7777C233.719 40.6982 239.273 54.7875 247.56 57.5405C253.747 59.5958 266.267 49.3158 273.254 43.3262C266.473 52.3554 263.987 72.9653 263.592 82.1417C250.897 80.0121 222.741 74.446 211.677 69.2184Z" fill="#DCA500"/>
<path d="M212.903 82.9204C181.649 67.7206 173.745 54.6236 173.7 49.975L194.028 5.5705C190.602 15.1945 184.939 35.0478 189.695 37.4683C194.451 39.8889 206.947 29.5685 212.601 24.1057C211.924 33.727 212.243 54.1078 218.942 58.6607C225.64 63.2136 245.25 51.641 254.217 45.2856C251.68 54.1003 248.084 72.4073 254.005 75.1178C259.925 77.8282 275.781 63.5349 282.969 56.0495L258.511 94.2735C256.331 96.8224 244.157 98.1201 212.903 82.9204Z" fill="#FABC04"/>
<ellipse cx="213.048" cy="22.9949" rx="4.5" ry="6" transform="rotate(24.1942 213.048 22.9949)" fill="#FABC04"/>
<ellipse cx="254.182" cy="44.6678" rx="4.5" ry="6" transform="rotate(30.3172 254.182 44.6678)" fill="#FABC04"/>
<ellipse cx="282.543" cy="55.662" rx="3.31083" ry="6" transform="rotate(31.8605 282.543 55.662)" fill="#FABC04"/>
<ellipse cx="193.466" cy="8.43635" rx="3.31083" ry="6" transform="rotate(22.326 193.466 8.43635)" fill="#FABC04"/>
</svg>
