<svg width="318" height="165" viewBox="0 0 318 165" fill="none" xmlns="http://www.w3.org/2000/svg">
<path d="M89.9432 46V11.0909H103.034C105.716 11.0909 107.966 11.5909 109.784 12.5909C111.614 13.5909 112.994 14.9659 113.926 16.7159C114.869 18.4545 115.341 20.4318 115.341 22.6477C115.341 24.8864 114.869 26.875 113.926 28.6136C112.983 30.3523 111.591 31.7216 109.75 32.7216C107.909 33.7102 105.642 34.2045 102.949 34.2045H94.2727V29.0057H102.097C103.665 29.0057 104.949 28.733 105.949 28.1875C106.949 27.642 107.688 26.892 108.165 25.9375C108.653 24.983 108.898 23.8864 108.898 22.6477C108.898 21.4091 108.653 20.3182 108.165 19.375C107.688 18.4318 106.943 17.6989 105.932 17.1761C104.932 16.642 103.642 16.375 102.062 16.375H96.267V46H89.9432ZM136.758 11.0909V46H130.434V11.0909H136.758ZM181.893 11.0909V46H176.268L159.819 22.2216H159.53V46H153.206V11.0909H158.865L175.297 34.8864H175.603V11.0909H181.893ZM221.77 22.2386C221.486 21.3182 221.094 20.4943 220.594 19.767C220.105 19.0284 219.514 18.3977 218.821 17.875C218.139 17.3523 217.355 16.9602 216.469 16.6989C215.583 16.4261 214.617 16.2898 213.571 16.2898C211.696 16.2898 210.026 16.7614 208.56 17.7045C207.094 18.6477 205.941 20.0341 205.1 21.8636C204.27 23.6818 203.855 25.8977 203.855 28.5114C203.855 31.1477 204.27 33.3807 205.1 35.2102C205.929 37.0398 207.083 38.4318 208.56 39.3864C210.037 40.3295 211.753 40.8011 213.708 40.8011C215.48 40.8011 217.014 40.4602 218.31 39.7784C219.617 39.0966 220.622 38.1307 221.327 36.8807C222.032 35.6193 222.384 34.142 222.384 32.4489L223.816 32.6705H214.338V27.7273H228.503V31.9205C228.503 34.9091 227.867 37.4943 226.594 39.6761C225.321 41.858 223.571 43.5398 221.344 44.7216C219.117 45.892 216.56 46.4773 213.674 46.4773C210.458 46.4773 207.634 45.7557 205.202 44.3125C202.782 42.858 200.889 40.7955 199.526 38.125C198.174 35.4432 197.497 32.2614 197.497 28.5795C197.497 25.7614 197.895 23.2443 198.691 21.0284C199.497 18.8125 200.622 16.9318 202.066 15.3864C203.509 13.8295 205.202 12.6477 207.145 11.8409C209.088 11.0227 211.202 10.6136 213.486 10.6136C215.418 10.6136 217.219 10.8977 218.889 11.4659C220.56 12.0227 222.043 12.8182 223.338 13.8523C224.645 14.8864 225.719 16.1136 226.56 17.5341C227.401 18.9545 227.952 20.5227 228.213 22.2386H221.77Z" fill="#3E4244"/>
<path d="M5.9446 139V60.4545H38.3906C44.2713 60.4545 49.3466 61.6051 53.6165 63.9062C57.9119 66.1818 61.223 69.3651 63.5497 73.456C65.8764 77.5213 67.0398 82.2514 67.0398 87.6463C67.0398 93.0668 65.8509 97.8097 63.473 101.875C61.1207 105.915 57.7585 109.047 53.3864 111.271C49.0142 113.496 43.8239 114.608 37.8153 114.608H17.7955V99.6506H34.2869C37.1506 99.6506 39.5412 99.152 41.4588 98.1548C43.402 97.1577 44.8722 95.7642 45.8693 93.9744C46.8665 92.1591 47.3651 90.0497 47.3651 87.6463C47.3651 85.2173 46.8665 83.1207 45.8693 81.3565C44.8722 79.5668 43.402 78.1861 41.4588 77.2145C39.5156 76.2429 37.125 75.7571 34.2869 75.7571H24.929V139H5.9446ZM150.533 99.7273C150.533 108.369 148.871 115.695 145.547 121.703C142.223 127.712 137.723 132.276 132.047 135.395C126.396 138.514 120.055 140.074 113.024 140.074C105.967 140.074 99.6136 138.501 93.9631 135.357C88.3125 132.212 83.8253 127.648 80.5014 121.665C77.2031 115.656 75.554 108.344 75.554 99.7273C75.554 91.0852 77.2031 83.7599 80.5014 77.7514C83.8253 71.7429 88.3125 67.179 93.9631 64.0597C99.6136 60.9403 105.967 59.3807 113.024 59.3807C120.055 59.3807 126.396 60.9403 132.047 64.0597C137.723 67.179 142.223 71.7429 145.547 77.7514C148.871 83.7599 150.533 91.0852 150.533 99.7273ZM131.126 99.7273C131.126 94.6136 130.398 90.2926 128.94 86.7642C127.509 83.2358 125.438 80.5639 122.727 78.7486C120.043 76.9332 116.808 76.0256 113.024 76.0256C109.266 76.0256 106.031 76.9332 103.321 78.7486C100.611 80.5639 98.527 83.2358 97.0696 86.7642C95.6378 90.2926 94.9219 94.6136 94.9219 99.7273C94.9219 104.841 95.6378 109.162 97.0696 112.69C98.527 116.219 100.611 118.891 103.321 120.706C106.031 122.521 109.266 123.429 113.024 123.429C116.808 123.429 120.043 122.521 122.727 120.706C125.438 118.891 127.509 116.219 128.94 112.69C130.398 109.162 131.126 104.841 131.126 99.7273ZM228.464 60.4545V139H212.357L181.099 93.6676H180.601V139H161.616V60.4545H177.955L208.866 105.71H209.518V60.4545H228.464ZM291.947 86.1122C291.512 84.5014 290.873 83.0824 290.029 81.8551C289.186 80.6023 288.15 79.5412 286.923 78.6719C285.696 77.8026 284.289 77.1506 282.704 76.7159C281.119 76.2557 279.38 76.0256 277.488 76.0256C273.679 76.0256 270.38 76.946 267.593 78.7869C264.832 80.6278 262.697 83.3125 261.189 86.8409C259.68 90.3437 258.926 94.6009 258.926 99.6122C258.926 104.649 259.654 108.945 261.112 112.499C262.569 116.053 264.679 118.763 267.44 120.629C270.201 122.496 273.551 123.429 277.488 123.429C280.966 123.429 283.906 122.866 286.309 121.741C288.738 120.591 290.579 118.967 291.832 116.871C293.085 114.774 293.711 112.307 293.711 109.469L297.24 109.891H278.14V96.0455H312.005V106.439C312.005 113.47 310.51 119.491 307.518 124.503C304.552 129.514 300.461 133.362 295.245 136.047C290.055 138.732 284.085 140.074 277.335 140.074C269.843 140.074 263.26 138.45 257.583 135.203C251.907 131.956 247.484 127.328 244.314 121.32C241.143 115.286 239.558 108.126 239.558 99.8423C239.558 93.3991 240.517 87.6847 242.434 82.6989C244.352 77.6875 247.024 73.4432 250.45 69.9659C253.902 66.4886 257.89 63.8551 262.416 62.0653C266.967 60.2756 271.863 59.3807 277.105 59.3807C281.656 59.3807 285.887 60.0327 289.799 61.3366C293.737 62.6406 297.214 64.4815 300.231 66.8594C303.274 69.2372 305.741 72.0625 307.633 75.3352C309.525 78.608 310.701 82.2003 311.162 86.1122H291.947Z" fill="#3E4244"/>
<path d="M154 100C154 123.196 135.196 142 112 142C88.804 142 70 123.196 70 100C70 76.804 88.804 58 112 58C135.196 58 154 76.804 154 100Z" fill="#FEA93C"/>
<path d="M103.236 133.522C126.432 133.522 145.236 114.718 145.236 91.5221C145.236 81.8714 141.981 72.981 136.509 65.8887C147.102 73.5135 154 85.9512 154 100C154 123.196 135.196 142 112 142C98.4547 142 86.4072 135.588 78.727 125.633C85.6244 130.598 94.0886 133.522 103.236 133.522Z" fill="#E79A37" fill-opacity="0.7"/>
</svg>
